<?xml version="1.0" encoding="utf-8" ?>
<svg baseProfile="full" height="124mm" version="1.1" viewBox="0, 0, 246, 124" width="246mm" xmlns="http://www.w3.org/2000/svg" xmlns:ev="http://www.w3.org/2001/xml-events" xmlns:xlink="http://www.w3.org/1999/xlink"><defs /><path d="M 0 0 l 10.5 -0.0 l 0.0 30.4 l 1.8 -0.0 l 0.0 -30.4 l 63.89999999999999 -0.0 l 0.0 30.4 l 1.8 -0.0 l 0.0 -30.4 l 63.89999999999999 -0.0 l 0.0 30.4 l 1.8 -0.0 l 0.0 -30.4 l 10.5 -0.0 l -4.324815 54.82972 a 6 6 184.51 0,1 -5.9814240000000005 5.528202 l -132.4 0.0 a 6 6 270.0 0,1 -5.9814240000000005 -5.528202 z" fill="none" stroke="red" stroke-width="0.5" /><path d="M 0 63 l 89.0 -0.0 l -4.324815 54.82972 a 6 6 184.51 0,1 -5.9814240000000005 5.528202 l -32.75 0.0 l -0.0 -30.4 l -1.8 0.0 l 0.0 30.4 l -32.75 0.0 a 6 6 270.0 0,1 -5.9814240000000005 -5.528202 z" fill="none" stroke="red" stroke-width="0.5" /><path d="M 91 63 l 89.0 -0.0 l -4.324815 54.82972 a 6 6 184.51 0,1 -5.9814240000000005 5.528202 l -32.75 0.0 l -0.0 -30.4 l -1.8 0.0 l 0.0 30.4 l -32.75 0.0 a 6 6 270.0 0,1 -5.9814240000000005 -5.528202 z" fill="none" stroke="red" stroke-width="0.5" /><path d="M 156.2 0 l 89.0 -0.0 l -4.324815 54.82972 a 6 6 184.51 0,1 -5.9814240000000005 5.528202 l -32.75 0.0 l -0.0 -30.4 l -1.8 0.0 l 0.0 30.4 l -32.75 0.0 a 6 6 270.0 0,1 -5.9814240000000005 -5.528202 z" fill="none" stroke="red" stroke-width="0.5" /></svg>