<?xml version="1.0" encoding="utf-8" ?>
<svg baseProfile="full" height="21mm" version="1.1" viewBox="0, 0, 116, 21" width="116mm" xmlns="http://www.w3.org/2000/svg" xmlns:ev="http://www.w3.org/2001/xml-events" xmlns:xlink="http://www.w3.org/1999/xlink"><defs /><path d="M 0 0 l 30.0 -0.0 l 0.0 10.0 l 5.0 -0.0 l 0.0 -10.0 l 46.0 -0.0 l 0.0 10.0 l 5.0 -0.0 l 0.0 -10.0 l 30.0 -0.0 l 0.0 21.0 l -15.0 0.0 l -0.0 -6.0 a 6 6 360 0,0 -12.0 0.0 l 0.0 6.0 l -25.0 0.0 l -0.0 -6.0 a 6 6 360 0,0 -12.0 0.0 l 0.0 6.0 l -25.0 0.0 l -0.0 -6.0 a 6 6 360 0,0 -12.0 0.0 l 0.0 6.0 l -15.0 0.0 z" fill="none" stroke="red" stroke-width="0.5" /></svg>