<?xml version="1.0" encoding="utf-8" ?>
<svg baseProfile="full" height="200mm" version="1.1" viewBox="0, 0, 300, 200" width="300mm" xmlns="http://www.w3.org/2000/svg" xmlns:ev="http://www.w3.org/2001/xml-events" xmlns:xlink="http://www.w3.org/1999/xlink"><defs /><path d="M 0 0 l 1.5 -0.0 l 236.0 -0.0 l 0.1 -0.0 l 0.0 33.65 l 3.8 -0.0 l 0.0 -33.65 l 0.1 -0.0 a 10 10 90 0,1 10.0 10.0 l 0.0 57.5 l -248.0 0.0 a 2 2 270 0,1 -1.999506 -1.955556 z" fill="none" stroke="red" stroke-width="0.5" /><path d="M 0 69.5 l 1.5 -0.0 l 236.0 -0.0 l 0.1 -0.0 l 0.0 33.65 l 3.8 -0.0 l 0.0 -33.65 l 0.1 -0.0 a 10 10 90 0,1 10.0 10.0 l 0.0 57.5 l -248.0 0.0 a 2 2 270 0,1 -1.999506 -1.955556 z" fill="none" stroke="red" stroke-width="0.5" /><path d="M 0 200 l 217.0 -0.0 l -1.4559113209536731 65.50048199340283 a 2 2 181.27334436140757 0,1 -1.999506 1.955556 l -67.33333333333333 0.0 l -0.1 0.0 l -0.0 -33.65 l -3.8 0.0 l 0.0 33.65 l -0.1 0.0 l -31.66666666666667 0.0 l -0.1 0.0 l -0.0 -33.65 l -3.8 0.0 l 0.0 33.65 l -0.1 0.0 l -31.66666666666667 0.0 l -0.1 0.0 l -0.0 -33.65 l -3.8 0.0 l 0.0 33.65 l -0.1 0.0 l -67.33333333333333 0.0 a 2 2 270.0 0,1 -1.999506 -1.955556 z" fill="none" stroke="red" stroke-width="0.5" /><path d="M 0 269.5 l 1.5 -0.0 l 102.5 -0.0 l 0.1 -0.0 l 0.0 33.65 l 3.8 -0.0 l 0.0 -33.65 l 0.1 -0.0 a 10 10 90 0,1 10.0 10.0 l 0.0 57.5 l -114.5 0.0 a 2 2 270 0,1 -1.999506 -1.955556 z" fill="none" stroke="red" stroke-width="0.5" /></svg>