<?xml version="1.0" encoding="utf-8" ?>
<svg baseProfile="full" height="420mm" version="1.1" viewBox="0, 0, 1950, 420" width="1950mm" xmlns="http://www.w3.org/2000/svg" xmlns:ev="http://www.w3.org/2001/xml-events" xmlns:xlink="http://www.w3.org/1999/xlink"><defs /><g transform="translate(75,0)"><path d="M -17.0 0 l 4.5 -0.0 l 0.0 -0.0 l 0.0 3.5 a 0.5 0.5 180 0,0 0.5 0.5 l 0.0 -0.0 a 0.5 0.5 90 0,0 0.5 -0.5 l 0.0 -3.5 l 0.0 -0.0 l 7.0 -0.0 l 0.0 -0.0 l 0.0 3.5 a 0.5 0.5 180 0,0 0.5 0.5 l 0.0 -0.0 a 0.5 0.5 90 0,0 0.5 -0.5 l 0.0 -3.5 l 0.0 -0.0 l 7.0 -0.0 l 0.0 -0.0 l 0.0 3.5 a 0.5 0.5 180 0,0 0.5 0.5 l 0.0 -0.0 a 0.5 0.5 90 0,0 0.5 -0.5 l 0.0 -3.5 l 0.0 -0.0 l 7.0 -0.0 l 0.0 -0.0 l 0.0 3.5 a 0.5 0.5 180 0,0 0.5 0.5 l 0.0 -0.0 a 0.5 0.5 90 0,0 0.5 -0.5 l 0.0 -3.5 l 0.0 -0.0 l 4.5 -0.0 l 0.0 15.0 l 4.499926125689871 174.00004449634048 c 1.0341200000000002 39.98664 53.5 40.0 53.5 100 l 0.0 109.0 a 15 15 180.0 0,1 -15.0 15.0 l -0.0 -0.0 l -0.0 0.0 l -0.0 -0.0 l -25.0 0.0 l 0.0 0.0 l -0.0 0.0 l 0.0 0.0 a 5 5 270.0 0,1 -5.0 -5.0 l -0.0 -21.21110255092798 l -60.0 0.0 l 0.0 21.21110255092798 a 5 5 180.0 0,1 -5.0 5.0 l -25.0 0.0 a 15 15 270.0 0,1 -15.0 -15.0 l -0.0 -109.0 c -0.0 -60.0 52.46588 -60.01336 53.5 -100 l 4.499926125689871 -174.00004449634048 z" fill="none" stroke="red" stroke-width="0.5" /><rect fill="none" height="80" rx="20.0" ry="20.0" stroke="red" stroke-width="0.5" transform="rotate(1.4814571708870745) translate(-33.5,293)" width="40" x="-20.0" y="-40.0" /><rect fill="none" height="80" rx="20.0" ry="20.0" stroke="red" stroke-width="0.5" transform="rotate(-1.4814571708870745) translate(33.5,293)" width="40" x="-20.0" y="-40.0" /><circle cx="0" cy="204.0" fill="none" r="2" stroke="red" stroke-width="0.5" /><circle cx="0" cy="134.0" fill="none" r="2" stroke="red" stroke-width="0.5" /></g><g transform="translate(75,15)"><path d="M -17.0 0 l 34.0 -0.0 l 5.428258660635029 209.89616764949434 l -44.85669555035763 0.0 z" fill="none" stroke="red" stroke-width="0.5" /><line fill="none" stroke="blue" stroke-width="0.5" x1="-17.50513120698913" x2="17.50513120698913" y1="19.531740003579696" y2="19.531740003579696" /><line fill="none" stroke="blue" stroke-width="0.5" x1="-17.98191157661445" x2="17.98191157661445" y1="37.96724762909205" y2="37.96724762909205" /><line fill="none" stroke="blue" stroke-width="0.5" x1="-18.431932319175594" x2="18.431932319175594" y1="55.368049674789695" y2="55.368049674789695" /><line fill="none" stroke="blue" stroke-width="0.5" x1="-18.856695337196737" x2="18.856695337196737" y1="71.79221970494044" y2="71.79221970494044" /><line fill="none" stroke="blue" stroke-width="0.5" x1="-19.25761823788706" x2="19.25761823788706" y1="87.2945718649662" y2="87.2945718649662" /><line fill="none" stroke="blue" stroke-width="0.5" x1="-19.636039064273458" x2="19.636039064273458" y1="101.9268438185737" y2="101.9268438185737" /><line fill="none" stroke="blue" stroke-width="0.5" x1="-19.993220760795147" x2="19.993220760795147" y1="115.73786941741243" y2="115.73786941741243" /><line fill="none" stroke="blue" stroke-width="0.5" x1="-20.330355388263683" x2="20.330355388263683" y1="128.77374167952902" y2="128.77374167952902" /><line fill="none" stroke="blue" stroke-width="0.5" x1="-20.648568102255435" x2="20.648568102255435" y1="141.0779666205435" y2="141.0779666205435" /><line fill="none" stroke="blue" stroke-width="0.5" x1="-20.948920908214085" x2="20.948920908214085" y1="152.69160845094459" y2="152.69160845094459" /><line fill="none" stroke="blue" stroke-width="0.5" x1="-21.23241620579535" x2="21.23241620579535" y1="163.6534266240868" y2="163.6534266240868" /><line fill="none" stroke="blue" stroke-width="0.5" x1="-21.50000013428295" x2="21.50000013428295" y1="174.00000519227405" y2="174.00000519227405" /><line fill="none" stroke="blue" stroke-width="0.5" x1="-21.752565730240793" x2="21.752565730240793" y1="183.76587490264393" y2="183.76587490264393" /><line fill="none" stroke="blue" stroke-width="0.5" x1="-21.990955907939732" x2="21.990955907939732" y1="192.9836284403363" y2="192.9836284403363" /><line fill="none" stroke="blue" stroke-width="0.5" x1="-22.21596627250585" x2="22.21596627250585" y1="201.68402920355945" y2="201.68402920355945" /><circle cx="0" cy="79.54339578495332" fill="none" r="2" stroke="blue" stroke-width="0.5" /><circle cx="0" cy="108.83235661799307" fill="none" r="2" stroke="blue" stroke-width="0.5" /><circle cx="0" cy="146.88478753574404" fill="none" r="2" stroke="blue" stroke-width="0.5" /></g><g transform="translate(75,363)"><rect fill="none" height="3" stroke="red" stroke-width="0.5" width="60" x="-30.0" y="0" /><rect fill="none" height="19" stroke="red" stroke-width="0.5" width="92" x="-46.0" y="-8" /></g><rect fill="black" height="5" transform="translate(75,10)" width="34" x="-17.0" y="0" /><g transform="translate(75,0)"><line fill="none" stroke="blue" stroke-width="0.5" x1="-12.0" x2="-21.0" y1="5" y2="388" /><line fill="none" stroke="blue" stroke-width="0.5" x1="-4.0" x2="-7.0" y1="5" y2="388" /><line fill="none" stroke="blue" stroke-width="0.5" x1="4.0" x2="7.0" y1="5" y2="388" /><line fill="none" stroke="blue" stroke-width="0.5" x1="12.0" x2="21.0" y1="5" y2="388" /></g><rect fill="black" height="28" transform="translate(75,380)" width="60" x="-30.0" y="0" /><g transform="translate(225,0)"><path d="M -17.0 0 l 4.5 -0.0 l 0.0 -0.0 l 0.0 3.5 a 0.5 0.5 180 0,0 0.5 0.5 l 0.0 -0.0 a 0.5 0.5 90 0,0 0.5 -0.5 l 0.0 -3.5 l 0.0 -0.0 l 7.0 -0.0 l 0.0 -0.0 l 0.0 3.5 a 0.5 0.5 180 0,0 0.5 0.5 l 0.0 -0.0 a 0.5 0.5 90 0,0 0.5 -0.5 l 0.0 -3.5 l 0.0 -0.0 l 7.0 -0.0 l 0.0 -0.0 l 0.0 3.5 a 0.5 0.5 180 0,0 0.5 0.5 l 0.0 -0.0 a 0.5 0.5 90 0,0 0.5 -0.5 l 0.0 -3.5 l 0.0 -0.0 l 7.0 -0.0 l 0.0 -0.0 l 0.0 3.5 a 0.5 0.5 180 0,0 0.5 0.5 l 0.0 -0.0 a 0.5 0.5 90 0,0 0.5 -0.5 l 0.0 -3.5 l 0.0 -0.0 l 4.5 -0.0 l 0.0 15.0 l 4.499926125689871 174.00004449634048 c 1.0341200000000002 39.98664 53.5 40.0 53.5 100 l 0.0 109.0 a 15 15 180.0 0,1 -15.0 15.0 l -0.0 -0.0 l -0.0 0.0 l -0.0 -0.0 l -25.0 0.0 l 0.0 0.0 l -0.0 0.0 l 0.0 0.0 a 5 5 270.0 0,1 -5.0 -5.0 l -0.0 -21.21110255092798 l -60.0 0.0 l 0.0 21.21110255092798 a 5 5 180.0 0,1 -5.0 5.0 l -25.0 0.0 a 15 15 270.0 0,1 -15.0 -15.0 l -0.0 -109.0 c -0.0 -60.0 52.46588 -60.01336 53.5 -100 l 4.499926125689871 -174.00004449634048 z" fill="none" stroke="red" stroke-width="0.5" /><rect fill="none" height="80" rx="20.0" ry="20.0" stroke="red" stroke-width="0.5" transform="rotate(1.4814571708870745) translate(-33.5,293)" width="40" x="-20.0" y="-40.0" /><rect fill="none" height="80" rx="20.0" ry="20.0" stroke="red" stroke-width="0.5" transform="rotate(-1.4814571708870745) translate(33.5,293)" width="40" x="-20.0" y="-40.0" /><circle cx="0" cy="204.0" fill="none" r="2" stroke="red" stroke-width="0.5" /><circle cx="0" cy="134.0" fill="none" r="2" stroke="red" stroke-width="0.5" /></g><g transform="translate(225,0)"><path d="M -17.0 0 l 4.5 -0.0 l 0.0 -0.0 l 0.0 3.5 a 0.5 0.5 180 0,0 0.5 0.5 l 0.0 -0.0 a 0.5 0.5 90 0,0 0.5 -0.5 l 0.0 -3.5 l 0.0 -0.0 l 7.0 -0.0 l 0.0 -0.0 l 0.0 3.5 a 0.5 0.5 180 0,0 0.5 0.5 l 0.0 -0.0 a 0.5 0.5 90 0,0 0.5 -0.5 l 0.0 -3.5 l 0.0 -0.0 l 7.0 -0.0 l 0.0 -0.0 l 0.0 3.5 a 0.5 0.5 180 0,0 0.5 0.5 l 0.0 -0.0 a 0.5 0.5 90 0,0 0.5 -0.5 l 0.0 -3.5 l 0.0 -0.0 l 7.0 -0.0 l 0.0 -0.0 l 0.0 3.5 a 0.5 0.5 180 0,0 0.5 0.5 l 0.0 -0.0 a 0.5 0.5 90 0,0 0.5 -0.5 l 0.0 -3.5 l 0.0 -0.0 l 4.5 -0.0 c 0.0 7.5 -0.6619625 7.5017475000000005 -0.5 15 l 3.7584064978637994 174.0000365431719 c 0.8638 39.99068 54.74150675842184 40.0 54.74150675842184 100 l 0.0 109.0 a 15 15 180.0 0,1 -15.0 15.0 l -0.0 -0.0 l -0.0 0.0 l -0.0 -4.0 l -25.0 0.0 l 0.0 4.0 l -0.0 0.0 l 0.0 0.0 a 5 5 270.0 0,1 -5.0 -5.0 l -0.0 -27.41640786499874 l -60.0 0.0 l 0.0 27.41640786499874 a 5 5 180.0 0,1 -5.0 5.0 l -25.0 0.0 a 15 15 270.0 0,1 -15.0 -15.0 l -0.0 -109.0 c -0.0 -60.0 53.877706758421844 -60.00932 54.74150675842184 -100 l 3.7584064978637994 -174.0000365431719 c 0.1619625 -7.4982524999999995 -0.5 -7.5 -0.5 -15 z" fill="none" stroke="red" stroke-width="0.5" /><rect fill="none" height="80" rx="20.0" ry="20.0" stroke="red" stroke-width="0.5" transform="rotate(1.4814571708870745) translate(-33.5,293)" width="40" x="-20.0" y="-40.0" /><rect fill="none" height="80" rx="20.0" ry="20.0" stroke="red" stroke-width="0.5" transform="rotate(-1.4814571708870745) translate(33.5,293)" width="40" x="-20.0" y="-40.0" /><circle cx="0" cy="204.0" fill="none" r="2" stroke="red" stroke-width="0.5" /><circle cx="0" cy="134.0" fill="none" r="2" stroke="red" stroke-width="0.5" /></g><g transform="translate(225,0)"><path d="M -17.0 0 l 4.5 -0.0 l 0.0 -0.0 l 0.0 3.5 a 0.5 0.5 180 0,0 0.5 0.5 l 0.0 -0.0 a 0.5 0.5 90 0,0 0.5 -0.5 l 0.0 -3.5 l 0.0 -0.0 l 7.0 -0.0 l 0.0 -0.0 l 0.0 3.5 a 0.5 0.5 180 0,0 0.5 0.5 l 0.0 -0.0 a 0.5 0.5 90 0,0 0.5 -0.5 l 0.0 -3.5 l 0.0 -0.0 l 7.0 -0.0 l 0.0 -0.0 l 0.0 3.5 a 0.5 0.5 180 0,0 0.5 0.5 l 0.0 -0.0 a 0.5 0.5 90 0,0 0.5 -0.5 l 0.0 -3.5 l 0.0 -0.0 l 7.0 -0.0 l 0.0 -0.0 l 0.0 3.5 a 0.5 0.5 180 0,0 0.5 0.5 l 0.0 -0.0 a 0.5 0.5 90 0,0 0.5 -0.5 l 0.0 -3.5 l 0.0 -0.0 l 4.5 -0.0 c 0.0 7.5 -3.1619625 7.5017475000000005 -3.0 15 l 3.7584064978637994 174.0000365431719 c 0.8638 39.99068 57.24150675842184 40.0 57.24150675842184 100 l 0.0 109.0 a 15 15 180.0 0,1 -15.0 15.0 l -0.0 -4.0 l -4.0 0.0 l -0.0 -36.0 a 5 5 360.0 0,0 -5.0 -5.0 l -7.0 0.0 a 5 5 270.0 0,0 -5.0 5.0 l 0.0 36.0 l -4.0 0.0 l 0.0 4.0 a 5 5 270.0 0,1 -5.0 -5.0 l -0.0 -28.0 l -60.0 0.0 l 0.0 28.0 a 5 5 180.0 0,1 -5.0 5.0 l -25.0 0.0 a 15 15 270.0 0,1 -15.0 -15.0 l -0.0 -109.0 c -0.0 -60.0 56.377706758421844 -60.00932 57.24150675842184 -100 l 3.7584064978637994 -174.0000365431719 c 0.1619625 -7.4982524999999995 -3.0 -7.5 -3.0 -15 z" fill="none" stroke="red" stroke-width="0.5" /><rect fill="none" height="80" rx="20.0" ry="20.0" stroke="red" stroke-width="0.5" transform="rotate(1.4814571708870745) translate(-33.5,293)" width="40" x="-20.0" y="-40.0" /><rect fill="none" height="80" rx="20.0" ry="20.0" stroke="red" stroke-width="0.5" transform="rotate(-1.4814571708870745) translate(33.5,293)" width="40" x="-20.0" y="-40.0" /><circle cx="0" cy="204.0" fill="none" r="2" stroke="red" stroke-width="0.5" /><circle cx="0" cy="134.0" fill="none" r="2" stroke="red" stroke-width="0.5" /></g><g transform="translate(225,0)"><path d="M -17.0 0 l 3.5 -0.0 l 0.0 -0.0 l 0.0 3.5 a 1.5 1.5 180 0,0 1.5 1.5 l 0.0 -0.0 a 1.5 1.5 90 0,0 1.5 -1.5 l 0.0 -3.5 l 0.0 -0.0 l 5.0 -0.0 l 0.0 -0.0 l 0.0 3.5 a 1.5 1.5 180 0,0 1.5 1.5 l 0.0 -0.0 a 1.5 1.5 90 0,0 1.5 -1.5 l 0.0 -3.5 l 0.0 -0.0 l 5.0 -0.0 l 0.0 -0.0 l 0.0 3.5 a 1.5 1.5 180 0,0 1.5 1.5 l 0.0 -0.0 a 1.5 1.5 90 0,0 1.5 -1.5 l 0.0 -3.5 l 0.0 -0.0 l 5.0 -0.0 l 0.0 -0.0 l 0.0 3.5 a 1.5 1.5 180 0,0 1.5 1.5 l 0.0 -0.0 a 1.5 1.5 90 0,0 1.5 -1.5 l 0.0 -3.5 l 0.0 -0.0 l 3.5 -0.0 c 0.0 7.5 -9.8237075 7.50699 -9.5 15 l 7.517018825166269 173.9999759880729 c 1.72644 39.96272 59.983013516843684 40.0 59.983013516843684 100 l 0.0 109.0 a 15 15 180.0 0,1 -15.0 15.0 l -0.0 -0.0 l -0.0 0.0 l -0.0 -40.0 a 5 5 360.0 0,0 -5.0 -5.0 l -15.0 0.0 a 5 5 270.0 0,0 -5.0 5.0 l 0.0 40.0 l -0.0 0.0 l 0.0 0.0 a 5 5 270.0 0,1 -5.0 -5.0 l -0.0 -28.0 l -60.0 0.0 l 0.0 28.0 a 5 5 180.0 0,1 -5.0 5.0 l -25.0 0.0 a 15 15 270.0 0,1 -15.0 -15.0 l -0.0 -109.0 c -0.0 -60.0 58.25657351684369 -60.03728 59.983013516843684 -100 l 7.517018825166269 -173.9999759880729 c 0.3237075 -7.49301 -9.5 -7.5 -9.5 -15 z" fill="none" stroke="red" stroke-width="0.5" /><rect fill="none" height="80" rx="20.0" ry="20.0" stroke="red" stroke-width="0.5" transform="rotate(1.4814571708870745) translate(-33.5,293)" width="40" x="-20.0" y="-40.0" /><rect fill="none" height="80" rx="20.0" ry="20.0" stroke="red" stroke-width="0.5" transform="rotate(-1.4814571708870745) translate(33.5,293)" width="40" x="-20.0" y="-40.0" /><circle cx="0" cy="204.0" fill="none" r="2" stroke="red" stroke-width="0.5" /><circle cx="0" cy="134.0" fill="none" r="2" stroke="red" stroke-width="0.5" /></g><g transform="translate(225,0)"><path d="M -13.75 189.0 c 1.189238 -45.984636 7.75 -46.0 13.75 -46.0 c 6.0 -0.0 12.560762 0.015363999999998157 13.75 46.0 c 1.0341200000000002 39.98664 61.25 40.0 61.25 100 l 0.0 109.0 a 15 15 180.0 0,1 -15.0 15.0 l -0.0 -0.0 l -0.0 0.0 l -0.0 -40.0 a 5 5 360.0 0,0 -5.0 -5.0 l -15.0 0.0 a 5 5 270.0 0,0 -5.0 5.0 l 0.0 40.0 l -0.0 0.0 l 0.0 0.0 a 5 5 270.0 0,1 -5.0 -5.0 l -0.0 -27.41640786499874 l -60.0 0.0 l 0.0 27.41640786499874 a 5 5 180.0 0,1 -5.0 5.0 l -25.0 0.0 a 15 15 270.0 0,1 -15.0 -15.0 l -0.0 -109.0 c -0.0 -60.0 60.21588 -60.01336 61.25 -100 z" fill="none" stroke="red" stroke-width="0.5" /><rect fill="none" height="80" rx="20.0" ry="20.0" stroke="red" stroke-width="0.5" transform="rotate(1.4814571708870745) translate(-33.5,293)" width="40" x="-20.0" y="-40.0" /><rect fill="none" height="80" rx="20.0" ry="20.0" stroke="red" stroke-width="0.5" transform="rotate(-1.4814571708870745) translate(33.5,293)" width="40" x="-20.0" y="-40.0" /></g><g transform="translate(225,0)"><path d="M -12.2 189.0 c 0.8696773457769794 -33.628084692046954 6.199999999999999 -33.6393202250021 12.2 -33.6393202250021 c 6.0 -0.0 11.33032265422302 0.011235532955147676 12.2 33.6393202250021 c 1.0341200000000002 39.98664 62.8 40.0 62.8 100 l 0.0 109.0 a 15 15 180.0 0,1 -15.0 15.0 l -0.0 -0.0 l -0.0 0.0 l -0.0 -40.0 a 5 5 360.0 0,0 -5.0 -5.0 l -15.0 0.0 a 5 5 270.0 0,0 -5.0 5.0 l 0.0 40.0 l -0.0 0.0 l 0.0 0.0 a 5 5 270.0 0,1 -5.0 -5.0 l -0.0 -21.21110255092798 l -60.0 0.0 l 0.0 21.21110255092798 a 5 5 180.0 0,1 -5.0 5.0 l -25.0 0.0 a 15 15 270.0 0,1 -15.0 -15.0 l -0.0 -109.0 c -0.0 -60.0 61.765879999999996 -60.01336 62.8 -100 z" fill="none" stroke="red" stroke-width="0.5" /><path d="M -20.0 -40.0 l 0.0 -10.0 l 16.0 -0.0 l 0.0 10.0 l 4.0 -0.0 a 20.0 20.0 90 0,1 20.0 20.0 l 0.0 40.0 a 20.0 20.0 180 0,1 -20.0 20.0 l -4.0 0.0 l 0.0 10.0 l -16.0 0.0 z" fill="none" stroke="red" stroke-width="0.5" transform="rotate(181.48145717088707) translate(33.5,-293)" /><path d="M -20.0 -40.0 l 0.0 -10.0 l 16.0 -0.0 l 0.0 10.0 l 4.0 -0.0 a 20.0 20.0 90 0,1 20.0 20.0 l 0.0 40.0 a 20.0 20.0 180 0,1 -20.0 20.0 l -4.0 0.0 l 0.0 10.0 l -16.0 0.0 z" fill="none" stroke="red" stroke-width="0.5" transform="rotate(-1.4814571708870745) translate(33.5,293)" /></g><g transform="translate(225,0)"><path d="M -10.65 189.0 c 0.5813975148993077 -22.4810787192717 4.65 -22.488589908301073 10.65 -22.488589908301073 c 6.0 -0.0 10.068602485100692 0.007511189029372645 10.65 22.488589908301073 c 1.0341200000000002 39.98664 64.35 40.0 64.35 100 l 0.0 109.0 a 15 15 180.0 0,1 -15.0 15.0 l -0.0 -0.0 l -0.0 0.0 l -0.0 -40.0 a 5 5 360.0 0,0 -5.0 -5.0 l -15.0 0.0 a 5 5 270.0 0,0 -5.0 5.0 l 0.0 40.0 l -0.0 0.0 l 0.0 0.0 a 5 5 270.0 0,1 -5.0 -5.0 c -0.0 -45.0 -7.112205 -50.00501 -7.5 -65 l -1.8097100000000002 -69.97662 l -41.38052058076775 0.0 l -1.8097100000000002 69.97662 c -0.387795 14.994990000000001 -7.5 20.0 -7.5 65 a 5 5 180.0 0,1 -5.0 5.0 l -25.0 0.0 a 15 15 270.0 0,1 -15.0 -15.0 l -0.0 -109.0 c -0.0 -60.0 63.31587999999999 -60.01336 64.35 -100 z" fill="none" stroke="red" stroke-width="0.5" /><path d="M -20.0 -40.0 l 0.0 -10.0 l 16.0 -0.0 l 0.0 10.0 l 4.0 -0.0 a 20.0 20.0 90 0,1 20.0 20.0 l 0.0 40.0 a 20.0 20.0 180 0,1 -20.0 20.0 l -4.0 0.0 l 0.0 10.0 l -16.0 0.0 z" fill="none" stroke="red" stroke-width="0.5" transform="rotate(181.48145717088707) translate(33.5,-293)" /><path d="M -20.0 -40.0 l 0.0 -10.0 l 16.0 -0.0 l 0.0 10.0 l 4.0 -0.0 a 20.0 20.0 90 0,1 20.0 20.0 l 0.0 40.0 a 20.0 20.0 180 0,1 -20.0 20.0 l -4.0 0.0 l 0.0 10.0 l -16.0 0.0 z" fill="none" stroke="red" stroke-width="0.5" transform="rotate(-1.4814571708870745) translate(33.5,293)" /></g><g transform="translate(225,0)"><path d="M -9.1 189.0 c 0.35261734577697934 -13.634764692046952 3.0999999999999996 -13.639320225002102 9.1 -13.639320225002102 c 6.0 -0.0 8.74738265422302 0.004555532955150099 9.1 13.639320225002102 c 1.0341200000000002 39.98664 65.9 40.0 65.9 100 l 0.0 109.0 a 15 15 180.0 0,1 -15.0 15.0 l -0.0 -4.0 l -4.0 0.0 l -0.0 -36.0 a 5 5 360.0 0,0 -5.0 -5.0 l -7.0 0.0 a 5 5 270.0 0,0 -5.0 5.0 l 0.0 36.0 l -4.0 0.0 l 0.0 4.0 a 5 5 270.0 0,1 -5.0 -5.0 c -0.0 -45.0 -7.112205 -50.00501 -7.5 -65 l -1.8097100000000002 -69.97662 l -41.38052058076775 0.0 l -1.8097100000000002 69.97662 c -0.387795 14.994990000000001 -7.5 20.0 -7.5 65 a 5 5 180.0 0,1 -5.0 5.0 l -25.0 0.0 a 15 15 270.0 0,1 -15.0 -15.0 l -0.0 -109.0 c -0.0 -60.0 64.86588 -60.01336 65.9 -100 z" fill="none" stroke="red" stroke-width="0.5" /><path d="M -20.0 -40.0 l 0.0 -10.0 l 16.0 -0.0 l 0.0 10.0 l 4.0 -0.0 a 20.0 20.0 90 0,1 20.0 20.0 l 0.0 40.0 a 20.0 20.0 180 0,1 -20.0 20.0 l -4.0 0.0 l 0.0 10.0 l -16.0 0.0 z" fill="none" stroke="red" stroke-width="0.5" transform="rotate(181.48145717088707) translate(33.5,-293)" /><path d="M -20.0 -40.0 l 0.0 -10.0 l 16.0 -0.0 l 0.0 10.0 l 4.0 -0.0 a 20.0 20.0 90 0,1 20.0 20.0 l 0.0 40.0 a 20.0 20.0 180 0,1 -20.0 20.0 l -4.0 0.0 l 0.0 10.0 l -16.0 0.0 z" fill="none" stroke="red" stroke-width="0.5" transform="rotate(-1.4814571708870745) translate(33.5,293)" /></g><g transform="translate(225,0)"><path d="M -7.550000000000001 189.0 c 0.20573143536885583 -7.955081463251562 1.5500000000000007 -7.957739348193859 7.550000000000001 -7.957739348193859 c 6.0 -0.0 7.344268564631145 0.0026578849422964623 7.550000000000001 7.957739348193859 c 1.0341200000000002 39.98664 67.45 40.0 67.45 100 l 0.0 109.0 a 15 15 180.0 0,1 -15.0 15.0 l -0.0 -0.0 l -0.0 0.0 l -0.0 -4.0 l -25.0 0.0 l 0.0 4.0 l -0.0 0.0 l 0.0 0.0 a 5 5 270.0 0,1 -5.0 -5.0 c -0.0 -45.0 -7.112205 -50.00501 -7.5 -65 l -1.8097100000000002 -69.97662 l -41.38052058076775 0.0 l -1.8097100000000002 69.97662 c -0.387795 14.994990000000001 -7.5 20.0 -7.5 65 a 5 5 180.0 0,1 -5.0 5.0 l -25.0 0.0 a 15 15 270.0 0,1 -15.0 -15.0 l -0.0 -109.0 c -0.0 -60.0 66.41588 -60.01336 67.45 -100 z" fill="none" stroke="red" stroke-width="0.5" /><path d="M -20.0 -40.0 l 0.0 -10.0 l 16.0 -0.0 l 0.0 10.0 l 4.0 -0.0 a 20.0 20.0 90 0,1 20.0 20.0 l 0.0 40.0 a 20.0 20.0 180 0,1 -20.0 20.0 l -4.0 0.0 l 0.0 10.0 l -16.0 0.0 z" fill="none" stroke="red" stroke-width="0.5" transform="rotate(181.48145717088707) translate(33.5,-293)" /><path d="M -20.0 -40.0 l 0.0 -10.0 l 16.0 -0.0 l 0.0 10.0 l 4.0 -0.0 a 20.0 20.0 90 0,1 20.0 20.0 l 0.0 40.0 a 20.0 20.0 180 0,1 -20.0 20.0 l -4.0 0.0 l 0.0 10.0 l -16.0 0.0 z" fill="none" stroke="red" stroke-width="0.5" transform="rotate(-1.4814571708870745) translate(33.5,293)" /></g><g transform="translate(225,0)"><path d="M -6.0 189.0 c 0.155118 -5.9979960000000005 0.0 -6.0 6.0 -6.0 c 6.0 -0.0 5.844882 0.0020039999999994507 6.0 6.0 c 1.0341200000000002 39.98664 69.0 40.0 69.0 100 l 0.0 109.0 a 15 15 180.0 0,1 -15.0 15.0 l -0.0 -0.0 l -0.0 0.0 l -0.0 -0.0 l -25.0 0.0 l 0.0 0.0 l -0.0 0.0 l 0.0 0.0 a 5 5 270.0 0,1 -5.0 -5.0 c -0.0 -45.0 -7.112205 -50.00501 -7.5 -65 l -1.8097100000000002 -69.97662 l -41.38052058076775 0.0 l -1.8097100000000002 69.97662 c -0.387795 14.994990000000001 -7.5 20.0 -7.5 65 a 5 5 180.0 0,1 -5.0 5.0 l -25.0 0.0 a 15 15 270.0 0,1 -15.0 -15.0 l -0.0 -109.0 c -0.0 -60.0 67.96588 -60.01336 69.0 -100 z" fill="none" stroke="red" stroke-width="0.5" /><path d="M -20.0 -40.0 l 0.0 -10.0 l 16.0 -0.0 l 0.0 10.0 l 4.0 -0.0 a 20.0 20.0 90 0,1 20.0 20.0 l 0.0 40.0 a 20.0 20.0 180 0,1 -20.0 20.0 l -4.0 0.0 l 0.0 10.0 l -16.0 0.0 z" fill="none" stroke="red" stroke-width="0.5" transform="rotate(181.48145717088707) translate(33.5,-293)" /><path d="M -20.0 -40.0 l 0.0 -10.0 l 16.0 -0.0 l 0.0 10.0 l 4.0 -0.0 a 20.0 20.0 90 0,1 20.0 20.0 l 0.0 40.0 a 20.0 20.0 180 0,1 -20.0 20.0 l -4.0 0.0 l 0.0 10.0 l -16.0 0.0 z" fill="none" stroke="red" stroke-width="0.5" transform="rotate(-1.4814571708870745) translate(33.5,293)" /></g><g transform="translate(225,363)"><rect fill="none" height="3" stroke="red" stroke-width="0.5" width="60" x="-30.0" y="0" /><rect fill="none" height="19" stroke="red" stroke-width="0.5" width="92" x="-46.0" y="-8" /></g><g transform="translate(375,15)"><path d="M -17.0 0 l 34.0 -0.0 l 5.428258660635029 209.89616764949434 l -44.85669555035763 0.0 z" fill="none" stroke="red" stroke-width="0.5" /><line fill="none" stroke="blue" stroke-width="0.5" x1="-17.50513120698913" x2="17.50513120698913" y1="19.531740003579696" y2="19.531740003579696" /><line fill="none" stroke="blue" stroke-width="0.5" x1="-17.98191157661445" x2="17.98191157661445" y1="37.96724762909205" y2="37.96724762909205" /><line fill="none" stroke="blue" stroke-width="0.5" x1="-18.431932319175594" x2="18.431932319175594" y1="55.368049674789695" y2="55.368049674789695" /><line fill="none" stroke="blue" stroke-width="0.5" x1="-18.856695337196737" x2="18.856695337196737" y1="71.79221970494044" y2="71.79221970494044" /><line fill="none" stroke="blue" stroke-width="0.5" x1="-19.25761823788706" x2="19.25761823788706" y1="87.2945718649662" y2="87.2945718649662" /><line fill="none" stroke="blue" stroke-width="0.5" x1="-19.636039064273458" x2="19.636039064273458" y1="101.9268438185737" y2="101.9268438185737" /><line fill="none" stroke="blue" stroke-width="0.5" x1="-19.993220760795147" x2="19.993220760795147" y1="115.73786941741243" y2="115.73786941741243" /><line fill="none" stroke="blue" stroke-width="0.5" x1="-20.330355388263683" x2="20.330355388263683" y1="128.77374167952902" y2="128.77374167952902" /><line fill="none" stroke="blue" stroke-width="0.5" x1="-20.648568102255435" x2="20.648568102255435" y1="141.0779666205435" y2="141.0779666205435" /><line fill="none" stroke="blue" stroke-width="0.5" x1="-20.948920908214085" x2="20.948920908214085" y1="152.69160845094459" y2="152.69160845094459" /><line fill="none" stroke="blue" stroke-width="0.5" x1="-21.23241620579535" x2="21.23241620579535" y1="163.6534266240868" y2="163.6534266240868" /><line fill="none" stroke="blue" stroke-width="0.5" x1="-21.50000013428295" x2="21.50000013428295" y1="174.00000519227405" y2="174.00000519227405" /><line fill="none" stroke="blue" stroke-width="0.5" x1="-21.752565730240793" x2="21.752565730240793" y1="183.76587490264393" y2="183.76587490264393" /><line fill="none" stroke="blue" stroke-width="0.5" x1="-21.990955907939732" x2="21.990955907939732" y1="192.9836284403363" y2="192.9836284403363" /><line fill="none" stroke="blue" stroke-width="0.5" x1="-22.21596627250585" x2="22.21596627250585" y1="201.68402920355945" y2="201.68402920355945" /><circle cx="0" cy="79.54339578495332" fill="none" r="2" stroke="blue" stroke-width="0.5" /><circle cx="0" cy="108.83235661799307" fill="none" r="2" stroke="blue" stroke-width="0.5" /><circle cx="0" cy="146.88478753574404" fill="none" r="2" stroke="blue" stroke-width="0.5" /></g><g transform="translate(375,363)"><rect fill="none" height="3" stroke="red" stroke-width="0.5" width="60" x="-30.0" y="0" /><rect fill="none" height="19" stroke="red" stroke-width="0.5" width="92" x="-46.0" y="-8" /></g><g transform="translate(375,343)"><rect fill="none" height="3" stroke="red" stroke-width="0.5" width="60" x="-30.0" y="0" /><rect fill="none" height="19" stroke="red" stroke-width="0.5" width="92" x="-46.0" y="-8" /></g><g transform="translate(525,0)"><path d="M -17.0 0 l 4.5 -0.0 l 0.0 -0.0 l 0.0 3.5 a 0.5 0.5 180 0,0 0.5 0.5 l 0.0 -0.0 a 0.5 0.5 90 0,0 0.5 -0.5 l 0.0 -3.5 l 0.0 -0.0 l 7.0 -0.0 l 0.0 -0.0 l 0.0 3.5 a 0.5 0.5 180 0,0 0.5 0.5 l 0.0 -0.0 a 0.5 0.5 90 0,0 0.5 -0.5 l 0.0 -3.5 l 0.0 -0.0 l 7.0 -0.0 l 0.0 -0.0 l 0.0 3.5 a 0.5 0.5 180 0,0 0.5 0.5 l 0.0 -0.0 a 0.5 0.5 90 0,0 0.5 -0.5 l 0.0 -3.5 l 0.0 -0.0 l 7.0 -0.0 l 0.0 -0.0 l 0.0 3.5 a 0.5 0.5 180 0,0 0.5 0.5 l 0.0 -0.0 a 0.5 0.5 90 0,0 0.5 -0.5 l 0.0 -3.5 l 0.0 -0.0 l 4.5 -0.0 l 0.0 15.0 l 4.499926125689871 174.00004449634048 c 1.0341200000000002 39.98664 53.5 40.0 53.5 100 l 0.0 109.0 a 15 15 180.0 0,1 -15.0 15.0 l -0.0 -0.0 l -0.0 0.0 l -0.0 -0.0 l -25.0 0.0 l 0.0 0.0 l -0.0 0.0 l 0.0 0.0 a 5 5 270.0 0,1 -5.0 -5.0 l -0.0 -21.21110255092798 l -60.0 0.0 l 0.0 21.21110255092798 a 5 5 180.0 0,1 -5.0 5.0 l -25.0 0.0 a 15 15 270.0 0,1 -15.0 -15.0 l -0.0 -109.0 c -0.0 -60.0 52.46588 -60.01336 53.5 -100 l 4.499926125689871 -174.00004449634048 z" fill="none" stroke="red" stroke-width="0.5" /><rect fill="none" height="80" rx="20.0" ry="20.0" stroke="red" stroke-width="0.5" transform="rotate(1.4814571708870745) translate(-33.5,293)" width="40" x="-20.0" y="-40.0" /><rect fill="none" height="80" rx="20.0" ry="20.0" stroke="red" stroke-width="0.5" transform="rotate(-1.4814571708870745) translate(33.5,293)" width="40" x="-20.0" y="-40.0" /><circle cx="0" cy="204.0" fill="none" r="2" stroke="red" stroke-width="0.5" /><circle cx="0" cy="134.0" fill="none" r="2" stroke="red" stroke-width="0.5" /></g><g transform="translate(675,0)"><path d="M -17.0 0 l 4.5 -0.0 l 0.0 -0.0 l 0.0 3.5 a 0.5 0.5 180 0,0 0.5 0.5 l 0.0 -0.0 a 0.5 0.5 90 0,0 0.5 -0.5 l 0.0 -3.5 l 0.0 -0.0 l 7.0 -0.0 l 0.0 -0.0 l 0.0 3.5 a 0.5 0.5 180 0,0 0.5 0.5 l 0.0 -0.0 a 0.5 0.5 90 0,0 0.5 -0.5 l 0.0 -3.5 l 0.0 -0.0 l 7.0 -0.0 l 0.0 -0.0 l 0.0 3.5 a 0.5 0.5 180 0,0 0.5 0.5 l 0.0 -0.0 a 0.5 0.5 90 0,0 0.5 -0.5 l 0.0 -3.5 l 0.0 -0.0 l 7.0 -0.0 l 0.0 -0.0 l 0.0 3.5 a 0.5 0.5 180 0,0 0.5 0.5 l 0.0 -0.0 a 0.5 0.5 90 0,0 0.5 -0.5 l 0.0 -3.5 l 0.0 -0.0 l 4.5 -0.0 c 0.0 7.5 -0.6619625 7.5017475000000005 -0.5 15 l 3.7584064978637994 174.0000365431719 c 0.8638 39.99068 54.74150675842184 40.0 54.74150675842184 100 l 0.0 109.0 a 15 15 180.0 0,1 -15.0 15.0 l -0.0 -0.0 l -0.0 0.0 l -0.0 -4.0 l -25.0 0.0 l 0.0 4.0 l -0.0 0.0 l 0.0 0.0 a 5 5 270.0 0,1 -5.0 -5.0 l -0.0 -27.41640786499874 l -60.0 0.0 l 0.0 27.41640786499874 a 5 5 180.0 0,1 -5.0 5.0 l -25.0 0.0 a 15 15 270.0 0,1 -15.0 -15.0 l -0.0 -109.0 c -0.0 -60.0 53.877706758421844 -60.00932 54.74150675842184 -100 l 3.7584064978637994 -174.0000365431719 c 0.1619625 -7.4982524999999995 -0.5 -7.5 -0.5 -15 z" fill="none" stroke="red" stroke-width="0.5" /><rect fill="none" height="80" rx="20.0" ry="20.0" stroke="red" stroke-width="0.5" transform="rotate(1.4814571708870745) translate(-33.5,293)" width="40" x="-20.0" y="-40.0" /><rect fill="none" height="80" rx="20.0" ry="20.0" stroke="red" stroke-width="0.5" transform="rotate(-1.4814571708870745) translate(33.5,293)" width="40" x="-20.0" y="-40.0" /><circle cx="0" cy="204.0" fill="none" r="2" stroke="red" stroke-width="0.5" /><circle cx="0" cy="134.0" fill="none" r="2" stroke="red" stroke-width="0.5" /></g><g transform="translate(825,0)"><path d="M -17.0 0 l 4.5 -0.0 l 0.0 -0.0 l 0.0 3.5 a 0.5 0.5 180 0,0 0.5 0.5 l 0.0 -0.0 a 0.5 0.5 90 0,0 0.5 -0.5 l 0.0 -3.5 l 0.0 -0.0 l 7.0 -0.0 l 0.0 -0.0 l 0.0 3.5 a 0.5 0.5 180 0,0 0.5 0.5 l 0.0 -0.0 a 0.5 0.5 90 0,0 0.5 -0.5 l 0.0 -3.5 l 0.0 -0.0 l 7.0 -0.0 l 0.0 -0.0 l 0.0 3.5 a 0.5 0.5 180 0,0 0.5 0.5 l 0.0 -0.0 a 0.5 0.5 90 0,0 0.5 -0.5 l 0.0 -3.5 l 0.0 -0.0 l 7.0 -0.0 l 0.0 -0.0 l 0.0 3.5 a 0.5 0.5 180 0,0 0.5 0.5 l 0.0 -0.0 a 0.5 0.5 90 0,0 0.5 -0.5 l 0.0 -3.5 l 0.0 -0.0 l 4.5 -0.0 c 0.0 7.5 -3.1619625 7.5017475000000005 -3.0 15 l 3.7584064978637994 174.0000365431719 c 0.8638 39.99068 57.24150675842184 40.0 57.24150675842184 100 l 0.0 109.0 a 15 15 180.0 0,1 -15.0 15.0 l -0.0 -4.0 l -4.0 0.0 l -0.0 -36.0 a 5 5 360.0 0,0 -5.0 -5.0 l -7.0 0.0 a 5 5 270.0 0,0 -5.0 5.0 l 0.0 36.0 l -4.0 0.0 l 0.0 4.0 a 5 5 270.0 0,1 -5.0 -5.0 l -0.0 -28.0 l -60.0 0.0 l 0.0 28.0 a 5 5 180.0 0,1 -5.0 5.0 l -25.0 0.0 a 15 15 270.0 0,1 -15.0 -15.0 l -0.0 -109.0 c -0.0 -60.0 56.377706758421844 -60.00932 57.24150675842184 -100 l 3.7584064978637994 -174.0000365431719 c 0.1619625 -7.4982524999999995 -3.0 -7.5 -3.0 -15 z" fill="none" stroke="red" stroke-width="0.5" /><rect fill="none" height="80" rx="20.0" ry="20.0" stroke="red" stroke-width="0.5" transform="rotate(1.4814571708870745) translate(-33.5,293)" width="40" x="-20.0" y="-40.0" /><rect fill="none" height="80" rx="20.0" ry="20.0" stroke="red" stroke-width="0.5" transform="rotate(-1.4814571708870745) translate(33.5,293)" width="40" x="-20.0" y="-40.0" /><circle cx="0" cy="204.0" fill="none" r="2" stroke="red" stroke-width="0.5" /><circle cx="0" cy="134.0" fill="none" r="2" stroke="red" stroke-width="0.5" /></g><g transform="translate(975,0)"><path d="M -17.0 0 l 3.5 -0.0 l 0.0 -0.0 l 0.0 3.5 a 1.5 1.5 180 0,0 1.5 1.5 l 0.0 -0.0 a 1.5 1.5 90 0,0 1.5 -1.5 l 0.0 -3.5 l 0.0 -0.0 l 5.0 -0.0 l 0.0 -0.0 l 0.0 3.5 a 1.5 1.5 180 0,0 1.5 1.5 l 0.0 -0.0 a 1.5 1.5 90 0,0 1.5 -1.5 l 0.0 -3.5 l 0.0 -0.0 l 5.0 -0.0 l 0.0 -0.0 l 0.0 3.5 a 1.5 1.5 180 0,0 1.5 1.5 l 0.0 -0.0 a 1.5 1.5 90 0,0 1.5 -1.5 l 0.0 -3.5 l 0.0 -0.0 l 5.0 -0.0 l 0.0 -0.0 l 0.0 3.5 a 1.5 1.5 180 0,0 1.5 1.5 l 0.0 -0.0 a 1.5 1.5 90 0,0 1.5 -1.5 l 0.0 -3.5 l 0.0 -0.0 l 3.5 -0.0 c 0.0 7.5 -9.8237075 7.50699 -9.5 15 l 7.517018825166269 173.9999759880729 c 1.72644 39.96272 59.983013516843684 40.0 59.983013516843684 100 l 0.0 109.0 a 15 15 180.0 0,1 -15.0 15.0 l -0.0 -0.0 l -0.0 0.0 l -0.0 -40.0 a 5 5 360.0 0,0 -5.0 -5.0 l -15.0 0.0 a 5 5 270.0 0,0 -5.0 5.0 l 0.0 40.0 l -0.0 0.0 l 0.0 0.0 a 5 5 270.0 0,1 -5.0 -5.0 l -0.0 -28.0 l -60.0 0.0 l 0.0 28.0 a 5 5 180.0 0,1 -5.0 5.0 l -25.0 0.0 a 15 15 270.0 0,1 -15.0 -15.0 l -0.0 -109.0 c -0.0 -60.0 58.25657351684369 -60.03728 59.983013516843684 -100 l 7.517018825166269 -173.9999759880729 c 0.3237075 -7.49301 -9.5 -7.5 -9.5 -15 z" fill="none" stroke="red" stroke-width="0.5" /><rect fill="none" height="80" rx="20.0" ry="20.0" stroke="red" stroke-width="0.5" transform="rotate(1.4814571708870745) translate(-33.5,293)" width="40" x="-20.0" y="-40.0" /><rect fill="none" height="80" rx="20.0" ry="20.0" stroke="red" stroke-width="0.5" transform="rotate(-1.4814571708870745) translate(33.5,293)" width="40" x="-20.0" y="-40.0" /><circle cx="0" cy="204.0" fill="none" r="2" stroke="red" stroke-width="0.5" /><circle cx="0" cy="134.0" fill="none" r="2" stroke="red" stroke-width="0.5" /></g><g transform="translate(1125,0)"><path d="M -13.75 189.0 c 1.189238 -45.984636 7.75 -46.0 13.75 -46.0 c 6.0 -0.0 12.560762 0.015363999999998157 13.75 46.0 c 1.0341200000000002 39.98664 61.25 40.0 61.25 100 l 0.0 109.0 a 15 15 180.0 0,1 -15.0 15.0 l -0.0 -0.0 l -0.0 0.0 l -0.0 -40.0 a 5 5 360.0 0,0 -5.0 -5.0 l -15.0 0.0 a 5 5 270.0 0,0 -5.0 5.0 l 0.0 40.0 l -0.0 0.0 l 0.0 0.0 a 5 5 270.0 0,1 -5.0 -5.0 l -0.0 -27.41640786499874 l -60.0 0.0 l 0.0 27.41640786499874 a 5 5 180.0 0,1 -5.0 5.0 l -25.0 0.0 a 15 15 270.0 0,1 -15.0 -15.0 l -0.0 -109.0 c -0.0 -60.0 60.21588 -60.01336 61.25 -100 z" fill="none" stroke="red" stroke-width="0.5" /><rect fill="none" height="80" rx="20.0" ry="20.0" stroke="red" stroke-width="0.5" transform="rotate(1.4814571708870745) translate(-33.5,293)" width="40" x="-20.0" y="-40.0" /><rect fill="none" height="80" rx="20.0" ry="20.0" stroke="red" stroke-width="0.5" transform="rotate(-1.4814571708870745) translate(33.5,293)" width="40" x="-20.0" y="-40.0" /></g><g transform="translate(1275,0)"><path d="M -12.2 189.0 c 0.8696773457769794 -33.628084692046954 6.199999999999999 -33.6393202250021 12.2 -33.6393202250021 c 6.0 -0.0 11.33032265422302 0.011235532955147676 12.2 33.6393202250021 c 1.0341200000000002 39.98664 62.8 40.0 62.8 100 l 0.0 109.0 a 15 15 180.0 0,1 -15.0 15.0 l -0.0 -0.0 l -0.0 0.0 l -0.0 -40.0 a 5 5 360.0 0,0 -5.0 -5.0 l -15.0 0.0 a 5 5 270.0 0,0 -5.0 5.0 l 0.0 40.0 l -0.0 0.0 l 0.0 0.0 a 5 5 270.0 0,1 -5.0 -5.0 l -0.0 -21.21110255092798 l -60.0 0.0 l 0.0 21.21110255092798 a 5 5 180.0 0,1 -5.0 5.0 l -25.0 0.0 a 15 15 270.0 0,1 -15.0 -15.0 l -0.0 -109.0 c -0.0 -60.0 61.765879999999996 -60.01336 62.8 -100 z" fill="none" stroke="red" stroke-width="0.5" /><path d="M -20.0 -40.0 l 0.0 -10.0 l 16.0 -0.0 l 0.0 10.0 l 4.0 -0.0 a 20.0 20.0 90 0,1 20.0 20.0 l 0.0 40.0 a 20.0 20.0 180 0,1 -20.0 20.0 l -4.0 0.0 l 0.0 10.0 l -16.0 0.0 z" fill="none" stroke="red" stroke-width="0.5" transform="rotate(181.48145717088707) translate(33.5,-293)" /><path d="M -20.0 -40.0 l 0.0 -10.0 l 16.0 -0.0 l 0.0 10.0 l 4.0 -0.0 a 20.0 20.0 90 0,1 20.0 20.0 l 0.0 40.0 a 20.0 20.0 180 0,1 -20.0 20.0 l -4.0 0.0 l 0.0 10.0 l -16.0 0.0 z" fill="none" stroke="red" stroke-width="0.5" transform="rotate(-1.4814571708870745) translate(33.5,293)" /></g><g transform="translate(1425,0)"><path d="M -10.65 189.0 c 0.5813975148993077 -22.4810787192717 4.65 -22.488589908301073 10.65 -22.488589908301073 c 6.0 -0.0 10.068602485100692 0.007511189029372645 10.65 22.488589908301073 c 1.0341200000000002 39.98664 64.35 40.0 64.35 100 l 0.0 109.0 a 15 15 180.0 0,1 -15.0 15.0 l -0.0 -0.0 l -0.0 0.0 l -0.0 -40.0 a 5 5 360.0 0,0 -5.0 -5.0 l -15.0 0.0 a 5 5 270.0 0,0 -5.0 5.0 l 0.0 40.0 l -0.0 0.0 l 0.0 0.0 a 5 5 270.0 0,1 -5.0 -5.0 c -0.0 -45.0 -7.112205 -50.00501 -7.5 -65 l -1.8097100000000002 -69.97662 l -41.38052058076775 0.0 l -1.8097100000000002 69.97662 c -0.387795 14.994990000000001 -7.5 20.0 -7.5 65 a 5 5 180.0 0,1 -5.0 5.0 l -25.0 0.0 a 15 15 270.0 0,1 -15.0 -15.0 l -0.0 -109.0 c -0.0 -60.0 63.31587999999999 -60.01336 64.35 -100 z" fill="none" stroke="red" stroke-width="0.5" /><path d="M -20.0 -40.0 l 0.0 -10.0 l 16.0 -0.0 l 0.0 10.0 l 4.0 -0.0 a 20.0 20.0 90 0,1 20.0 20.0 l 0.0 40.0 a 20.0 20.0 180 0,1 -20.0 20.0 l -4.0 0.0 l 0.0 10.0 l -16.0 0.0 z" fill="none" stroke="red" stroke-width="0.5" transform="rotate(181.48145717088707) translate(33.5,-293)" /><path d="M -20.0 -40.0 l 0.0 -10.0 l 16.0 -0.0 l 0.0 10.0 l 4.0 -0.0 a 20.0 20.0 90 0,1 20.0 20.0 l 0.0 40.0 a 20.0 20.0 180 0,1 -20.0 20.0 l -4.0 0.0 l 0.0 10.0 l -16.0 0.0 z" fill="none" stroke="red" stroke-width="0.5" transform="rotate(-1.4814571708870745) translate(33.5,293)" /></g><g transform="translate(1575,0)"><path d="M -9.1 189.0 c 0.35261734577697934 -13.634764692046952 3.0999999999999996 -13.639320225002102 9.1 -13.639320225002102 c 6.0 -0.0 8.74738265422302 0.004555532955150099 9.1 13.639320225002102 c 1.0341200000000002 39.98664 65.9 40.0 65.9 100 l 0.0 109.0 a 15 15 180.0 0,1 -15.0 15.0 l -0.0 -4.0 l -4.0 0.0 l -0.0 -36.0 a 5 5 360.0 0,0 -5.0 -5.0 l -7.0 0.0 a 5 5 270.0 0,0 -5.0 5.0 l 0.0 36.0 l -4.0 0.0 l 0.0 4.0 a 5 5 270.0 0,1 -5.0 -5.0 c -0.0 -45.0 -7.112205 -50.00501 -7.5 -65 l -1.8097100000000002 -69.97662 l -41.38052058076775 0.0 l -1.8097100000000002 69.97662 c -0.387795 14.994990000000001 -7.5 20.0 -7.5 65 a 5 5 180.0 0,1 -5.0 5.0 l -25.0 0.0 a 15 15 270.0 0,1 -15.0 -15.0 l -0.0 -109.0 c -0.0 -60.0 64.86588 -60.01336 65.9 -100 z" fill="none" stroke="red" stroke-width="0.5" /><path d="M -20.0 -40.0 l 0.0 -10.0 l 16.0 -0.0 l 0.0 10.0 l 4.0 -0.0 a 20.0 20.0 90 0,1 20.0 20.0 l 0.0 40.0 a 20.0 20.0 180 0,1 -20.0 20.0 l -4.0 0.0 l 0.0 10.0 l -16.0 0.0 z" fill="none" stroke="red" stroke-width="0.5" transform="rotate(181.48145717088707) translate(33.5,-293)" /><path d="M -20.0 -40.0 l 0.0 -10.0 l 16.0 -0.0 l 0.0 10.0 l 4.0 -0.0 a 20.0 20.0 90 0,1 20.0 20.0 l 0.0 40.0 a 20.0 20.0 180 0,1 -20.0 20.0 l -4.0 0.0 l 0.0 10.0 l -16.0 0.0 z" fill="none" stroke="red" stroke-width="0.5" transform="rotate(-1.4814571708870745) translate(33.5,293)" /></g><g transform="translate(1725,0)"><path d="M -7.550000000000001 189.0 c 0.20573143536885583 -7.955081463251562 1.5500000000000007 -7.957739348193859 7.550000000000001 -7.957739348193859 c 6.0 -0.0 7.344268564631145 0.0026578849422964623 7.550000000000001 7.957739348193859 c 1.0341200000000002 39.98664 67.45 40.0 67.45 100 l 0.0 109.0 a 15 15 180.0 0,1 -15.0 15.0 l -0.0 -0.0 l -0.0 0.0 l -0.0 -4.0 l -25.0 0.0 l 0.0 4.0 l -0.0 0.0 l 0.0 0.0 a 5 5 270.0 0,1 -5.0 -5.0 c -0.0 -45.0 -7.112205 -50.00501 -7.5 -65 l -1.8097100000000002 -69.97662 l -41.38052058076775 0.0 l -1.8097100000000002 69.97662 c -0.387795 14.994990000000001 -7.5 20.0 -7.5 65 a 5 5 180.0 0,1 -5.0 5.0 l -25.0 0.0 a 15 15 270.0 0,1 -15.0 -15.0 l -0.0 -109.0 c -0.0 -60.0 66.41588 -60.01336 67.45 -100 z" fill="none" stroke="red" stroke-width="0.5" /><path d="M -20.0 -40.0 l 0.0 -10.0 l 16.0 -0.0 l 0.0 10.0 l 4.0 -0.0 a 20.0 20.0 90 0,1 20.0 20.0 l 0.0 40.0 a 20.0 20.0 180 0,1 -20.0 20.0 l -4.0 0.0 l 0.0 10.0 l -16.0 0.0 z" fill="none" stroke="red" stroke-width="0.5" transform="rotate(181.48145717088707) translate(33.5,-293)" /><path d="M -20.0 -40.0 l 0.0 -10.0 l 16.0 -0.0 l 0.0 10.0 l 4.0 -0.0 a 20.0 20.0 90 0,1 20.0 20.0 l 0.0 40.0 a 20.0 20.0 180 0,1 -20.0 20.0 l -4.0 0.0 l 0.0 10.0 l -16.0 0.0 z" fill="none" stroke="red" stroke-width="0.5" transform="rotate(-1.4814571708870745) translate(33.5,293)" /></g><g transform="translate(1875,0)"><path d="M -6.0 189.0 c 0.155118 -5.9979960000000005 0.0 -6.0 6.0 -6.0 c 6.0 -0.0 5.844882 0.0020039999999994507 6.0 6.0 c 1.0341200000000002 39.98664 69.0 40.0 69.0 100 l 0.0 109.0 a 15 15 180.0 0,1 -15.0 15.0 l -0.0 -0.0 l -0.0 0.0 l -0.0 -0.0 l -25.0 0.0 l 0.0 0.0 l -0.0 0.0 l 0.0 0.0 a 5 5 270.0 0,1 -5.0 -5.0 c -0.0 -45.0 -7.112205 -50.00501 -7.5 -65 l -1.8097100000000002 -69.97662 l -41.38052058076775 0.0 l -1.8097100000000002 69.97662 c -0.387795 14.994990000000001 -7.5 20.0 -7.5 65 a 5 5 180.0 0,1 -5.0 5.0 l -25.0 0.0 a 15 15 270.0 0,1 -15.0 -15.0 l -0.0 -109.0 c -0.0 -60.0 67.96588 -60.01336 69.0 -100 z" fill="none" stroke="red" stroke-width="0.5" /><path d="M -20.0 -40.0 l 0.0 -10.0 l 16.0 -0.0 l 0.0 10.0 l 4.0 -0.0 a 20.0 20.0 90 0,1 20.0 20.0 l 0.0 40.0 a 20.0 20.0 180 0,1 -20.0 20.0 l -4.0 0.0 l 0.0 10.0 l -16.0 0.0 z" fill="none" stroke="red" stroke-width="0.5" transform="rotate(181.48145717088707) translate(33.5,-293)" /><path d="M -20.0 -40.0 l 0.0 -10.0 l 16.0 -0.0 l 0.0 10.0 l 4.0 -0.0 a 20.0 20.0 90 0,1 20.0 20.0 l 0.0 40.0 a 20.0 20.0 180 0,1 -20.0 20.0 l -4.0 0.0 l 0.0 10.0 l -16.0 0.0 z" fill="none" stroke="red" stroke-width="0.5" transform="rotate(-1.4814571708870745) translate(33.5,293)" /></g></svg>