<?xml version="1.0" encoding="UTF-8" standalone="no"?>
<svg
   xmlns:dc="http://purl.org/dc/elements/1.1/"
   xmlns:cc="http://creativecommons.org/ns#"
   xmlns:rdf="http://www.w3.org/1999/02/22-rdf-syntax-ns#"
   xmlns:svg="http://www.w3.org/2000/svg"
   xmlns="http://www.w3.org/2000/svg"
   xmlns:sodipodi="http://sodipodi.sourceforge.net/DTD/sodipodi-0.dtd"
   xmlns:inkscape="http://www.inkscape.org/namespaces/inkscape"
   height="64.5mm"
   version="1.1"
   viewBox="0 0 95.5 64.5"
   width="95.5mm"
   id="svg50"
   sodipodi:docname="96boards_ce_top.svg"
   inkscape:version="0.92.1 r">
  <metadata
     id="metadata54">
    <rdf:RDF>
      <cc:Work
         rdf:about="">
        <dc:format>image/svg+xml</dc:format>
        <dc:type
           rdf:resource="http://purl.org/dc/dcmitype/StillImage" />
        <dc:title />
      </cc:Work>
    </rdf:RDF>
  </metadata>
  <sodipodi:namedview
     pagecolor="#ffffff"
     bordercolor="#666666"
     borderopacity="1"
     objecttolerance="10"
     gridtolerance="10"
     guidetolerance="10"
     inkscape:pageopacity="0"
     inkscape:pageshadow="2"
     inkscape:window-width="3200"
     inkscape:window-height="1671"
     id="namedview52"
     showgrid="false"
     fit-margin-top="0"
     fit-margin-left="0"
     fit-margin-right="0"
     fit-margin-bottom="0"
     inkscape:zoom="2.4976667"
     inkscape:cx="192.78018"
     inkscape:cy="125.6693"
     inkscape:window-x="0"
     inkscape:window-y="55"
     inkscape:window-maximized="1"
     inkscape:current-layer="svg50" />
  <defs
     id="defs2" />
  <g
     transform="matrix(0.07181848,0,0,0.07181848,29.796098,6.6907148)"
     id="g979">
    <path
       inkscape:connector-curvature="0"
       id="path945"
       d="m 195.27,396.07 a 104,104 0 0 1 18.1,-1.42 c 9.2,0 14.86,1.11 19.51,4.35 a 14.37,14.37 0 0 1 7.12,12.74 c 0,6.27 -3.94,12 -11.32,14.76 v 0.2 c 7.18,1.82 13.75,7.48 13.75,16.89 a 17.68,17.68 0 0 1 -6.57,14.05 C 231,461.89 223,464 210.53,464 a 120.49,120.49 0 0 1 -15.27,-0.91 v -67 z M 207.6,423 h 6.4 c 8.59,0 13.45,-4 13.45,-9.81 0,-6.37 -4.85,-9.3 -12.74,-9.3 a 33.81,33.81 0 0 0 -7.08,0.51 V 423 Z m 0,31.34 a 54.93,54.93 0 0 0 6.57,0.3 c 8,0 15.07,-3 15.07,-11.43 0,-7.89 -6.88,-11.12 -15.47,-11.12 h -6.17 v 22.24 z" />
    <path
       inkscape:connector-curvature="0"
       id="path947"
       d="m 298,438.23 c 0,18.1 -12.74,26.19 -25.28,26.19 -14,0 -24.67,-9.61 -24.67,-25.38 0,-16.18 10.62,-26.09 25.48,-26.09 14.65,0.05 24.47,10.32 24.47,25.28 z m -37.11,0.51 c 0,9.5 4.65,16.68 12.23,16.68 7.08,0 12,-7 12,-16.89 0,-7.68 -3.44,-16.48 -11.93,-16.48 -8.77,0.01 -12.31,8.5 -12.31,16.69 z" />
    <path
       inkscape:connector-curvature="0"
       id="path949"
       d="m 334,463.31 -0.81,-5.46 h -0.3 a 18.29,18.29 0 0 1 -14.56,6.57 c -9.91,0 -15.47,-7.18 -15.47,-14.66 0,-12.44 11,-18.71 29.22,-18.6 v -0.81 c 0,-3.24 -1.31,-8.59 -10,-8.59 a 26.08,26.08 0 0 0 -13.25,3.64 l -2.43,-8.09 c 3.64,-2.22 10,-4.35 17.8,-4.35 15.77,0 20.32,10 20.32,20.73 v 17.8 a 79,79 0 0 0 0.71,11.83 H 334 Z m -1.62,-24.06 c -8.8,-0.2 -17.19,1.72 -17.19,9.2 0,4.85 3.13,7.08 7.08,7.08 a 10.08,10.08 0 0 0 9.71,-6.77 9,9 0 0 0 0.4,-2.73 v -6.77 z" />
    <path
       inkscape:connector-curvature="0"
       id="path951"
       d="m 355.2,429.94 c 0,-6.67 -0.1,-11.43 -0.4,-15.87 h 10.82 l 0.4,9.4 h 0.4 c 2.43,-7 8.19,-10.52 13.45,-10.52 a 13.07,13.07 0 0 1 2.93,0.3 V 425 a 17.29,17.29 0 0 0 -3.64,-0.4 c -6,0 -10,3.84 -11.12,9.4 a 21.39,21.39 0 0 0 -0.4,3.84 v 25.48 H 355.2 Z" />
    <path
       inkscape:connector-curvature="0"
       id="path953"
       d="m 434.52,391.52 v 57.94 c 0,5.06 0.2,10.52 0.4,13.85 H 423.8 l -0.51,-7.79 h -0.2 c -2.93,5.46 -8.9,8.9 -16.08,8.9 -11.73,0 -21,-10 -21,-25.18 C 385.89,422.76 396.2,413 408,413 c 6.77,0 11.63,2.83 13.85,6.47 h 0.2 v -27.95 h 12.44 z m -12.44,43.07 a 17.56,17.56 0 0 0 -0.3,-3.24 10.89,10.89 0 0 0 -10.72,-8.8 c -8,0 -12.44,7.08 -12.44,16.28 0,9 4.45,15.57 12.34,15.57 a 11,11 0 0 0 10.72,-8.8 13.88,13.88 0 0 0 0.4,-3.64 v -7.38 z" />
    <path
       inkscape:connector-curvature="0"
       id="path955"
       d="m 445,451.88 a 27.74,27.74 0 0 0 12.64,3.54 c 5.46,0 7.89,-2.22 7.89,-5.46 0,-3.24 -2,-5.06 -8.09,-7.18 -9.61,-3.34 -13.65,-8.59 -13.55,-14.36 0,-8.7 7.18,-15.47 18.6,-15.47 a 28.92,28.92 0 0 1 13,2.93 l -2.43,8.8 a 22.11,22.11 0 0 0 -10.41,-2.83 c -4.45,0 -6.88,2.12 -6.88,5.16 0,3.04 2.33,4.65 8.59,6.88 8.9,3.24 13,7.79 13.14,15.07 0,8.9 -7,15.37 -20,15.37 a 31.77,31.77 0 0 1 -15,-3.44 z" />
    <path
       inkscape:connector-curvature="0"
       id="path957"
       d="m 331.76,164.24 c -17.37,-15 -40.23,-24.39 -67.93,-27.95 l -9,-3.41 L 337,30 h -77 l -66,83.52 c -5.36,6.6 -10.3,14 -14.83,20.06 16.35,5.62 30.92,15.26 43.57,27.78 a 118,118 0 0 1 23.5,34.12 c 1.32,-0.11 2.65,0 4,0 12.67,0 23.8,4.71 33.08,13.86 a 45.35,45.35 0 0 1 14,33.34 c 0,12.7 -4.71,23.8 -14,33 a 45.72,45.72 0 0 1 -29.11,13.61 146.39,146.39 0 0 1 -10.56,29.1 c -4.83,9.8 -11.81,21.16 -20.85,33.95 a 127.49,127.49 0 0 0 26.05,2.61 c 32.44,0 59.58,-10.27 80.67,-30.51 22.06,-21.76 33.28,-51.37 33.28,-88 -0.02,-30.44 -10.16,-54.07 -31.04,-72.2 z" />
    <path
       inkscape:connector-curvature="0"
       id="path959"
       d="m 172.11,250.34 c 0,-10 -3.61,-18.48 -11,-25.88 -6.4,-6.38 -13.61,-9.92 -21.92,-10.78 A 130.47,130.47 0 0 0 137,237.3 c 0,17.9 2.74,34.12 8.18,48.56 a 36.49,36.49 0 0 0 15.91,-9.62 c 7.4,-7.42 11.02,-15.88 11.02,-25.9 z" />
    <path
       inkscape:connector-curvature="0"
       id="path961"
       d="m 215.63,169 c -20.83,-20.58 -47.49,-31 -79.21,-31 -32.43,0 -59.56,10.36 -80.65,30.8 -22.09,21.53 -33.29,51 -33.29,87.48 0,30.61 10.14,54.17 31,72 17.39,15 40.25,24.38 68,27.93 l 8.94,1.11 -4.07,10.88 L 48.29,470 h 77 l 66,-87.1 c 20.65,-25.44 35.24,-49.6 43.34,-66 A 138.55,138.55 0 0 0 248.3,257 c 0,-35.62 -10.99,-66.19 -32.67,-88 z m -47.49,114.3 c -9.28,9.24 -20.41,13.93 -33.1,13.93 -12.69,0 -23.82,-4.69 -33.1,-13.93 -9.28,-9.24 -14,-20.35 -14,-33 0,-12.65 4.71,-23.74 14,-33 9.29,-9.26 20.42,-13.93 33.1,-13.93 12.68,0 23.82,4.69 33.1,13.93 9.28,9.24 14,20.35 14,33 0,12.65 -4.71,23.78 -14,33.03 z" />
  </g>
  <g
     transform="translate(0.25,0.25)"
     id="g4719">
    <path
       style="fill:none;stroke:#ff0000;stroke-width:0.5"
       inkscape:connector-curvature="0"
       d="M 0,5 A 5,5 0 0 1 5,0 h 44.5 a 5,5 90 0 1 5,5 h 21 a 5,5 0 0 1 5,-5 H 90 a 5,5 90 0 1 5,5 v 54 a 5,5 -180 0 1 -5,5 H 82 V 44 H 40 V 64 H 5 A 5,5 -90 0 1 0,59 Z"
       id="path4707" />
    <g
       id="g4717">
      <circle
         style="fill:none;stroke:#ff0000;stroke-width:0.5"
         cx="9"
         cy="23.5"
         r="1.25"
         id="circle4709" />
      <circle
         style="fill:none;stroke:#ff0000;stroke-width:0.5"
         cx="9"
         cy="55"
         r="1.25"
         id="circle4711" />
      <circle
         style="fill:none;stroke:#ff0000;stroke-width:0.5"
         cx="86"
         cy="23.5"
         r="1.25"
         id="circle4713" />
      <circle
         style="fill:none;stroke:#ff0000;stroke-width:0.5"
         cx="86"
         cy="55"
         r="1.25"
         id="circle4715" />
    </g>
  </g>
</svg>
