<?xml version="1.0" encoding="UTF-8" standalone="no"?>
<svg
   xmlns:dc="http://purl.org/dc/elements/1.1/"
   xmlns:cc="http://creativecommons.org/ns#"
   xmlns:rdf="http://www.w3.org/1999/02/22-rdf-syntax-ns#"
   xmlns:svg="http://www.w3.org/2000/svg"
   xmlns="http://www.w3.org/2000/svg"
   xmlns:sodipodi="http://sodipodi.sourceforge.net/DTD/sodipodi-0.dtd"
   xmlns:inkscape="http://www.inkscape.org/namespaces/inkscape"
   height="110.5mm"
   version="1.1"
   viewBox="0 0 192.5 110.5"
   width="192.5mm"
   id="svg42"
   sodipodi:docname="ce96-db820c-dragon.svg"
   inkscape:version="0.92+devel unknown">
  <metadata
     id="metadata46">
    <rdf:RDF>
      <cc:Work
         rdf:about="">
        <dc:format>image/svg+xml</dc:format>
        <dc:type
           rdf:resource="http://purl.org/dc/dcmitype/StillImage" />
        <dc:title></dc:title>
      </cc:Work>
    </rdf:RDF>
  </metadata>
  <sodipodi:namedview
     pagecolor="#ffffff"
     bordercolor="#666666"
     inkscape:document-rotation="0"
     borderopacity="1"
     objecttolerance="10"
     gridtolerance="10"
     guidetolerance="10"
     inkscape:pageopacity="0"
     inkscape:pageshadow="2"
     inkscape:window-width="1920"
     inkscape:window-height="1016"
     id="namedview44"
     showgrid="false"
     inkscape:zoom="1.1868437"
     inkscape:cx="416.30746"
     inkscape:cy="256.10839"
     inkscape:window-x="0"
     inkscape:window-y="0"
     inkscape:window-maximized="1"
     inkscape:current-layer="svg42"
     fit-margin-top="0"
     fit-margin-left="0"
     fit-margin-right="0"
     fit-margin-bottom="0" />
  <defs
     id="defs2">
    <style
       id="style915">.cls-1,.cls-3{fill:#c1272d;}.cls-2{fill:#e02f3d;}.cls-3{font-size:51.77px;font-family:Myriad Pro;}</style>
  </defs>
  <rect
     id="rect4"
     y="-110.25"
     x="-192.25"
     width="95"
     stroke-width="0.5"
     stroke="red"
     ry="5"
     rx="5"
     height="110"
     fill="none"
     transform="scale(-1)"
     style="stroke:#ff0000;stroke-opacity:1" />
  <circle
     cx="-183.25"
     cy="-86.75"
     fill="none"
     r="1.25"
     stroke="red"
     stroke-width="0.5"
     id="circle6"
     transform="scale(-1)"
     style="stroke:#ff0000;stroke-opacity:1" />
  <circle
     cx="-106.25"
     cy="-86.75"
     fill="none"
     r="1.25"
     stroke="red"
     stroke-width="0.5"
     id="circle8"
     transform="scale(-1)"
     style="stroke:#ff0000;stroke-opacity:1" />
  <circle
     cx="-183.25"
     cy="-55.25"
     fill="none"
     r="1.25"
     stroke="red"
     stroke-width="0.5"
     id="circle10"
     transform="scale(-1)"
     style="stroke:#ff0000;stroke-opacity:1" />
  <circle
     cx="-106.25"
     cy="-55.25"
     fill="none"
     r="1.25"
     stroke="red"
     stroke-width="0.5"
     id="circle12"
     transform="scale(-1)"
     style="stroke:#ff0000;stroke-opacity:1" />
  <circle
     cx="-183.25"
     cy="-9.25"
     fill="none"
     r="1.25"
     stroke="red"
     stroke-width="0.5"
     id="circle14"
     transform="scale(-1)"
     style="stroke:#ff0000;stroke-opacity:1" />
  <circle
     cx="-106.25"
     cy="-9.25"
     fill="none"
     r="1.25"
     stroke="red"
     stroke-width="0.5"
     id="circle16"
     transform="scale(-1)"
     style="stroke:#ff0000;stroke-opacity:1" />
  <path
     inkscape:connector-curvature="0"
     id="path22"
     stroke-width="0.5"
     stroke="red"
     fill="none"
     d="m 95.25,105.25 a 5,5 0 0 1 -5,5 h -44.5 a 5,5 0 0 1 -5,-5 h -21 a 5,5 0 0 1 -5,5 h -9.5 a 5,5 0 0 1 -5,-5 v -100 a 5,5 0 0 1 5,-5 h 4 a 5,5 0 0 1 5,5 v 17 h 19 v -17 a 5,5 0 0 1 5,-5 h 52 a 5,5 0 0 1 5,5 z"
     style="stroke:#ff0000;stroke-opacity:1" />
  <circle
     cx="-86.25"
     cy="-86.75"
     fill="none"
     r="1.25"
     stroke="red"
     stroke-width="0.5"
     id="circle24"
     transform="scale(-1)"
     style="stroke:#ff0000;stroke-opacity:1" />
  <circle
     cx="-9.25"
     cy="-86.75"
     fill="none"
     r="1.25"
     stroke="red"
     stroke-width="0.5"
     id="circle26"
     transform="scale(-1)"
     style="stroke:#ff0000;stroke-opacity:1" />
  <circle
     cx="-86.25"
     cy="-55.25"
     fill="none"
     r="1.25"
     stroke="red"
     stroke-width="0.5"
     id="circle28"
     transform="scale(-1)"
     style="stroke:#ff0000;stroke-opacity:1" />
  <circle
     cx="-9.25"
     cy="-55.25"
     fill="none"
     r="1.25"
     stroke="red"
     stroke-width="0.5"
     id="circle30"
     transform="scale(-1)"
     style="stroke:#ff0000;stroke-opacity:1" />
  <circle
     cx="-86.25"
     cy="-9.25"
     fill="none"
     r="1.25"
     stroke="red"
     stroke-width="0.5"
     id="circle32"
     transform="scale(-1)"
     style="stroke:#ff0000;stroke-opacity:1" />
  <circle
     cx="-9.25"
     cy="-9.25"
     fill="none"
     r="1.25"
     stroke="red"
     stroke-width="0.5"
     id="circle34"
     transform="scale(-1)"
     style="stroke:#ff0000;stroke-opacity:1" />
  <rect
     id="rect38"
     y="-58.5"
     x="-55.75"
     width="43"
     stroke-width="0.5"
     stroke="red"
     height="6.5"
     fill="none"
     transform="scale(-1)"
     style="stroke:#ff0000;stroke-opacity:1" />
  <polygon
     style="stroke:#ff0000;stroke-width:7.58420706;stroke-opacity:1"
     points="226.1371,105.3779 226.1219,104.2674 226.296,107.0113 "
     id="polygon4389"
     transform="matrix(-0.03488691,0,0,0.03488529,94.570489,18.384918)" />
  <path
     style="stroke:#ff0000;stroke-width:0.26458341;stroke-opacity:1"
     inkscape:connector-curvature="0"
     d="m 93.796994,31.918251 c -0.01599,0.02493 -0.03197,0.04986 -0.04796,0.0748 0.01293,-0.01459 0.02585,-0.02917 0.03878,-0.04376 0,4e-6 0.0092,-0.03103 0.0092,-0.03103 z"
     id="path4391" />
  <g
     id="g4993">
    <path
       id="path4385"
       d="m 86.681264,22.061057 c -0.778738,-1.331 -2.163121,-1.807847 -3.449938,-2.393379 -1.419088,-0.64572 -2.977441,-0.571718 -4.487078,-0.682314 -1.167916,-0.08556 -2.349169,0.02441 -3.520236,-0.03562 -1.125514,-0.0577 -2.158341,0.238322 -3.156906,0.673554 -1.353612,0.58998 -2.697864,1.206383 -4.017151,1.869126 -2.678104,1.345348 -5.497503,2.373557 -8.184898,3.706601 -1.059777,0.525686 -2.282696,0.829199 -3.451742,1.126163 -3.202437,0.813487 -6.140365,2.418761 -9.315011,2.966617 -1.368418,1.826315 -1.448267,3.231966 -0.333013,4.623606 -0.05141,-2.124671 -0.02508,-2.19642 1.097975,-2.992028 0.233439,-0.02642 0.4227,0.05429 0.574535,0.231635 0.106492,0.124384 0.165612,0.316434 0.431952,0.273934 0.04407,-0.08035 0.138009,-0.179293 0.152027,-0.288491 0.129082,-1.005684 0.796374,-1.364036 1.704752,-1.480249 0.83191,-0.106436 1.655349,-0.07224 2.463229,0.124767 1.910508,0.465875 3.879313,0.37338 5.811793,0.632013 0.929778,0.124436 1.740117,0.475204 2.471748,0.900993 0.220007,0.413502 0.262294,0.833155 -0.03558,1.034544 -0.93955,0.635212 -1.473884,1.720061 -2.522421,2.218855 -1.782083,0.847747 -2.22747,2.303465 -1.858349,4.116575 0.241473,1.18609 0.209266,2.29944 -0.463298,3.384829 -0.705459,1.138475 -1.711217,1.486421 -3.086804,1.519223 0.481163,-1.069642 1.690839,-1.389376 1.946155,-2.558187 -0.878128,0.180361 -1.606395,0.553982 -2.286823,0.980762 -1.22093,0.765809 -2.425543,0.856015 -3.736088,0.08328 -1.255712,0.689082 -2.266522,-0.251827 -3.377534,-0.647178 -0.805124,0.2364 -1.040331,0.839588 -1.1481,1.620641 1.626703,0.397647 3.317302,0.540171 4.629392,1.837656 -0.67643,1.21119 -1.743666,1.819505 -3.247441,1.883684 0.138452,0.939398 0.892187,1.396476 1.469056,2.12591 0.55406,-0.641994 1.04907,-1.215561 1.415756,-1.640446 1.726138,-0.291603 2.57381,0.72298 3.472535,1.515947 0.450442,0.05991 0.263832,-0.40086 0.545844,-0.549046 1.05482,0.301413 1.629686,1.289692 2.541606,2.013115 0.186564,-1.102134 -0.969644,-1.594568 -0.93311,-2.631219 1.425186,0.475284 2.629391,1.151539 3.741837,2.05878 -0.413417,-1.555546 -1.960864,-2.164629 -2.793091,-3.322336 0.166233,-0.371413 0.519138,-0.08504 0.698478,-0.306247 0.207598,-0.230062 -0.204008,-0.451182 -0.01774,-0.705828 0.06132,-0.03471 0.136502,-0.11524 0.208041,-0.112128 1.282725,0.05587 2.026102,-0.711688 2.497044,-1.750798 0.446874,-0.985998 0.732786,-2.029302 0.531471,-3.150557 -0.166759,-0.928821 0.134922,-1.689906 0.970585,-2.297734 0.77398,0.910482 2.0351,1.108756 2.769201,2.280187 -0.187367,1.166253 -1.616652,1.288687 -2.247683,2.158244 -0.171382,1.167998 -0.09609,1.366461 0.838688,2.125107 0.403917,-0.257397 0.875421,-0.369592 1.327771,-0.173407 0.242785,-0.618646 -0.433539,-0.868086 -0.262213,-1.350553 0.374012,-0.93195 1.281023,-1.218058 2.029752,-1.608501 0.372745,-0.422273 0.412813,-0.913747 0.574807,-1.40166 -0.342398,-0.795723 -0.793998,-1.500329 -1.683733,-1.841252 -0.456865,-0.175055 -0.631983,-0.556271 -0.557392,-1.150817 0.89763,0.135609 1.776487,0.813654 2.865782,0.08229 0.197882,-0.11538 0.161209,-0.588721 0.492303,-0.948054 1.089026,0.262763 2.068745,-0.747274 3.214606,-0.418511 0.865851,0.248421 1.487905,0.848916 1.913233,1.702813 -0.121229,0.308358 -0.246333,0.626579 -0.343322,0.87328 -0.06031,0.437762 0.500585,0.588222 0.270261,1.089349 -1.461109,0.20237 -3.058887,0.286852 -4.000199,1.838399 0.547072,1.203595 1.662623,1.541232 2.707901,1.892011 0.802546,0.269321 1.492996,0.679572 2.160693,1.164551 0.146305,0.106268 0.243308,0.242153 0.223674,0.59844 -0.744553,0.509301 -1.683384,0.514698 -2.600599,0.47159 -1.083473,-0.05092 -2.071801,0.0704 -2.89104,0.875328 -0.815963,0.801702 -0.870394,1.417888 -0.157141,2.481422 0.359614,-0.02772 0.140723,-0.494911 0.163228,-0.499875 0.619264,-0.165144 0.700414,0.127725 0.853847,0.324102 0.13174,0.168604 0.278541,0.325451 0.330522,0.385552 0.438986,0.287482 0.541675,-0.165813 0.787342,-0.14791 0.208836,0.01522 0.413574,0.08678 0.59396,0.127498 0.325572,-0.260471 -0.0038,-0.619643 0.254584,-0.917402 0.182905,-0.185322 0.449057,0.06336 0.690914,-0.0058 1.299576,-1.17628 1.299576,-1.17628 4.173633,-1.111156 0.647061,-0.32354 0.771318,-1.088962 1.239242,-1.482377 -0.445286,-1.519342 -2.088512,-1.683038 -3.008982,-2.873749 0.960126,-0.141551 1.805241,0.16695 2.450296,-0.364754 4.057233,3.094269 3.680423,7.378574 0.753837,10.399127 -1.338367,1.381335 -3.320854,1.807644 -5.27368,1.948591 -2.294627,0.165632 -4.594645,0.045 -6.894568,0.24373 -2.632165,0.227431 -4.70609,1.468803 -6.165016,3.47185 -1.419562,1.949017 -1.22813,4.971988 0.526315,6.592099 1.772708,1.636957 3.771062,2.771978 6.133422,3.231198 1.11755,0.217234 2.251193,0.04455 3.368098,-0.07441 1.301526,-0.138617 2.573757,-0.250215 3.765497,0.473177 0.33968,0.206182 0.763179,0.123619 1.10063,0.136394 0.401799,0.271153 0.570547,0.599577 0.574891,1.010791 -0.05733,0.07861 -0.105571,0.204414 -0.156213,0.205394 -1.086975,0.02094 -1.61943,0.68319 -1.934626,1.62487 -0.254008,0.75887 -0.71171,1.355928 -1.586095,1.282387 -0.883682,-0.07433 -1.451972,-0.697933 -1.916355,-1.402375 -0.10942,-0.165981 0.0039,-0.445007 -0.308327,-0.561099 -0.670959,0.714898 -0.389851,1.462734 0.08854,2.061372 0.709139,0.887391 1.64437,1.527945 2.77854,1.80148 1.757372,0.423839 2.907848,-0.563066 3.916596,-1.768464 0.633365,-0.756844 1.003131,-1.719545 1.848521,-2.322537 0.243916,-0.17398 0.293623,-0.523011 0.344774,-0.927014 -0.285208,-1.069559 -1.470857,-1.754493 -1.51532,-2.993608 -1.618386,-0.97152 -3.303271,-1.062714 -4.989495,-0.847796 -2.04798,0.261018 -4.074609,0.317693 -6.093546,-0.13021 -1.01905,-0.226074 -1.983216,-0.588326 -2.900526,-1.12939 -1.794335,-1.058371 -2.245541,-2.690566 -2.02582,-4.573141 0.176814,-1.514865 1.741492,-2.790886 3.553235,-3.211128 1.738973,-0.403347 3.472385,-0.147313 5.195886,-0.02319 1.872534,0.134856 3.753856,0.251823 5.598271,10e-4 3.333256,-0.453275 7.17158,-2.708058 7.812208,-7.078878 0.416225,-2.83976 -0.05893,-5.433119 -1.741474,-7.785029 -1.137017,-1.589357 -2.212298,-3.218569 -3.779198,-4.454569 -0.713901,-0.563143 -1.213238,-1.356134 -1.745085,-2.10531 -1.19511,-0.262683 -2.034898,-1.120791 -2.998596,-1.765262 -1.009313,-0.674974 -1.984703,-1.400452 -2.987436,-2.08554 -0.939665,-0.641994 -1.948905,-0.934853 -3.080971,-0.543464 -0.244244,0.08444 -0.510745,0.114779 -0.76552,-5.58e-4 -0.868887,-1.274664 -0.846936,-1.473339 0.347592,-2.541345 2.724298,-0.01804 5.4689,0.218483 8.108953,1.266629 1.206211,0.478888 2.453275,0.840226 3.646809,1.374889 1.60956,0.721026 3.01636,1.717312 4.337238,2.847002 0.658798,0.563446 1.273344,1.178645 1.976776,1.691836 0.993715,0.724975 1.811925,1.591023 2.336495,2.730436 0.562049,1.220815 1.55058,2.194132 2.042922,3.467291 0.155152,0.401216 0.34575,0.787414 0.430253,1.307606 0.32793,-0.642239 0.389118,-1.216681 0.173894,-1.808604 -0.992149,-2.728647 -1.903709,-5.56974 -4.136646,-7.535955 -1.387229,-1.221533 -2.551014,-2.595968 -3.743417,-3.965659 -0.647055,-0.743262 -1.270631,-1.55596 -1.007695,-2.698555 0.933745,-0.494865 1.911206,-0.315802 2.817641,-0.139806 2.817471,0.547036 5.605106,1.223068 7.889808,3.131621 0.514864,0.430097 1.147845,0.32826 1.667891,0.389491 0.962271,0.42911 1.599407,1.270532 2.598443,1.486406 l -0.0092,0.03104 C 92.076972,29.797065 89.867078,28.35437 87.360858,27.273585 86.0176,26.694315 84.745187,25.941152 83.472813,25.210706 82.696206,24.764872 81.877009,24.576223 81.005694,24.481754 78.975255,24.261607 76.984852,23.839858 75.048908,23.184349 74.489803,22.995037 73.83619,22.879616 73.77757,22.050514 c 0.352239,-0.755057 1.004362,-1.128309 1.802345,-1.295071 2.530047,-0.528728 5.008162,-0.667097 7.552123,0.186633 1.158451,0.388765 2.378355,0.675222 3.54976,1.080244 z"
       inkscape:connector-curvature="0"
       style="stroke:#0000ff;stroke-width:0.26458341;stroke-opacity:1" />
    <path
       id="path4387"
       d="m 17.735639,43.269726 c 2.009772,1.596654 4.383802,1.976332 6.848555,2.03571 0.865551,0.02085 1.732131,0.0034 2.598202,-0.0029 0.806432,-0.0059 1.529191,0.148364 2.127191,0.775273 0.479615,0.502802 1.134059,0.435567 1.712428,0.200336 1.733269,-0.704959 3.436783,-0.576623 5.167958,0.01349 0.653048,0.22261 1.349764,0.129954 2.008412,-0.168727 0.07335,1.175544 -0.487552,1.574886 -2.619533,1.948518 0.143413,0.32084 0.469407,0.331693 0.73483,0.433262 0.282863,0.108238 0.575324,0.191412 0.848883,0.280732 0.636825,-0.120937 1.192528,-0.40303 1.626494,-0.820997 0.982178,-0.945978 2.281464,-1.362937 3.390571,-2.09871 0.815618,-0.541071 1.867496,-0.731855 2.87885,-0.393998 0.413006,0.137971 0.747582,0.204358 1.020069,-0.179621 0.06676,-0.268833 -0.06361,-0.53642 -0.253125,-0.540446 -1.100288,-0.02337 -1.930084,-0.662817 -2.841766,-1.137187 -0.553997,-0.288254 -1.161113,-0.496404 -1.856451,-0.340561 0.323458,0.306439 0.99104,0.183828 0.922445,0.984571 -0.430435,0.810319 -1.167396,0.373792 -1.822279,0.251621 -1.126181,-0.92048 -1.801281,-2.522378 -3.619898,-2.301721 -0.05726,0.431621 0.1988,0.449762 0.378108,0.547399 0.148957,0.08111 0.288557,0.179411 0.427438,0.267026 -0.398269,0.924366 -0.769807,1.188346 -1.640187,0.940741 -0.668018,-0.190041 -1.268321,-0.191133 -1.897014,0.07141 -1.421241,0.593521 -2.564481,0.193938 -3.604906,-0.900033 -1.146573,-1.205587 -2.461495,-2.138786 -4.2904,-1.772075 1.463684,0.216812 2.362259,1.177598 3.247651,2.315713 -0.573858,0.351065 -1.00422,0.102647 -1.426561,-0.04644 -0.688074,-0.242889 -1.406937,-0.291658 -2.029762,0.05009 -1.876637,1.02973 -3.787975,0.653827 -5.705301,0.243583 -0.794971,-0.170097 -1.574083,-0.414266 -2.36041,-0.62475 z"
       inkscape:connector-curvature="0"
       style="stroke:#0000ff;stroke-width:0.26458341;stroke-opacity:1" />
    <polygon
       transform="matrix(-0.03488691,0,0,0.03488529,94.570489,18.384918)"
       id="polygon4393"
       points="2239.9995,673.559 2239.5403,674.5261 2241.3867,673.6813 "
       style="stroke:#0000ff;stroke-width:7.58420706;stroke-opacity:1" />
    <path
       id="path4395"
       d="m 16.423828,41.882219 c 0.01496,0.0234 0.04656,0.06345 0.04236,0.06766 -0.05505,0.05501 -0.06594,0.04158 -0.02634,-0.03393 0,0 -0.01602,-0.03374 -0.01602,-0.03374 z"
       inkscape:connector-curvature="0"
       style="stroke:#0000ff;stroke-width:0.26458341;stroke-opacity:1" />
    <polygon
       transform="matrix(-0.03488691,0,0,0.03488529,94.570489,18.384918)"
       id="polygon4397"
       points="2209.7158,703.8293 2210.6809,704.9216 2211.3552,703.5109 "
       style="stroke:#0000ff;stroke-width:7.58420706;stroke-opacity:1" />
    <path
       id="path4399"
       d="m 17.706135,43.301028 c -0.08649,-0.108238 -0.172987,-0.216477 -0.259472,-0.324716 l 0.03367,-0.0381 c 0.03637,0.148035 0.107762,0.269101 0.255306,0.331518 0,-3e-6 -0.0295,0.0313 -0.0295,0.0313 z"
       inkscape:connector-curvature="0"
       style="stroke:#0000ff;stroke-width:0.26458341;stroke-opacity:1" />
  </g>
  <g
     id="g4985">
    <path
       style="fill:#000002;fill-opacity:1;stroke:#0000ff;stroke-width:0.26458335;stroke-opacity:1"
       id="path921"
       d="m 27.71999,92.412481 a 4.6809769,4.6793085 0 0 1 0.812494,-0.06345 c 0.414371,0 0.668783,0.05076 0.878508,0.195437 a 0.64694777,0.64671718 0 0 1 0.318396,0.573111 c 0,0.282241 -0.177733,0.541638 -0.507808,0.663977 v 0.0091 c 0.322966,0.08173 0.619018,0.336557 0.619018,0.761441 A 0.79573561,0.79545198 0 0 1 29.544546,95.1846 c -0.218358,0.190868 -0.577886,0.28681 -1.137999,0.28681 a 5.4233926,5.4214596 0 0 1 -0.687064,-0.04112 v -3.017844 z m 0.555035,1.210183 h 0.286912 c 0.38695,0 0.605307,-0.18173 0.605307,-0.441128 0,-0.286809 -0.218357,-0.418792 -0.573315,-0.418792 a 1.5234249,1.5228819 0 0 0 -0.318396,0.02284 v 0.837077 z m 0,1.410189 a 2.4725186,2.4716373 0 0 0 0.296052,0.01371 c 0.359528,0 0.677924,-0.136552 0.677924,-0.514227 0,-0.355339 -0.309255,-0.50052 -0.696205,-0.50052 h -0.277771 z"
       class="cls-1"
       inkscape:connector-curvature="0" />
    <path
       style="fill:#000002;fill-opacity:1;stroke:#0000ff;stroke-width:0.26458335;stroke-opacity:1"
       id="path923"
       d="m 32.343077,94.309484 c 0,0.812204 -0.573315,1.178203 -1.137998,1.178203 -0.628159,0 -1.110577,-0.431991 -1.110577,-1.141654 0,-0.727937 0.477848,-1.173634 1.146631,-1.173634 0.660659,0 1.101944,0.463971 1.101944,1.137085 z m -1.670181,0.02284 c 0,0.427422 0.209217,0.750781 0.550464,0.750781 0.318396,0 0.541831,-0.313714 0.541831,-0.761441 0,-0.345694 -0.152342,-0.741643 -0.537261,-0.741643 -0.395582,0.0025 -0.555034,0.383766 -0.555034,0.752303 z"
       class="cls-1"
       inkscape:connector-curvature="0" />
    <path
       style="fill:#000002;fill-opacity:1;stroke:#0000ff;stroke-width:0.26458335;stroke-opacity:1"
       id="path925"
       d="m 33.964001,95.437939 -0.03656,-0.245691 h -0.01371 a 0.82315725,0.82286385 0 0 1 -0.65558,0.295947 c -0.445856,0 -0.696205,-0.322851 -0.696205,-0.659916 0,-0.55839 0.496128,-0.841646 1.315223,-0.837077 v -0.03655 c 0,-0.145689 -0.05941,-0.386812 -0.450426,-0.386812 a 1.1740528,1.1736343 0 0 0 -0.596167,0.163964 L 32.72241,93.367835 c 0.164022,-0.101525 0.450426,-0.195436 0.800814,-0.195436 0.710931,0 0.914055,0.450265 0.914055,0.932511 v 0.800528 a 3.5546581,3.5533911 0 0 0 0.03199,0.532501 z m -0.07363,-1.082769 c -0.39609,-0.0091 -0.7739,0.07716 -0.7739,0.414224 0,0.21828 0.141171,0.318283 0.318396,0.318283 a 0.45347281,0.45331118 0 0 0 0.436715,-0.304577 0.40319979,0.40305608 0 0 0 0.01828,-0.122846 v -0.304576 z"
       class="cls-1"
       inkscape:connector-curvature="0" />
    <path
       style="fill:#000002;fill-opacity:1;stroke:#0000ff;stroke-width:0.26458335;stroke-opacity:1"
       id="path927"
       d="m 34.918681,93.937901 c 0,-0.300516 -0.0046,-0.514227 -0.01828,-0.714232 h 0.486988 l 0.01828,0.422854 h 0.01828 c 0.109179,-0.313714 0.368669,-0.473109 0.605308,-0.473109 a 0.58804201,0.58783241 0 0 1 0.13203,0.01371 v 0.527932 a 0.77847012,0.77819265 0 0 0 -0.164022,-0.01827 c -0.268631,0 -0.450426,0.173101 -0.500699,0.423361 a 0.96483577,0.96449187 0 0 0 -0.01828,0.173101 v 1.146222 h -0.558589 v -1.501561 z"
       class="cls-1"
       inkscape:connector-curvature="0" />
    <path
       style="fill:#000002;fill-opacity:1;stroke:#0000ff;stroke-width:0.26458335;stroke-opacity:1"
       id="path929"
       d="m 38.488573,92.207907 v 2.606666 c 0,0.227417 0.0091,0.473109 0.01828,0.623366 h -0.500699 l -0.02285,-0.350262 h -0.0091 c -0.13203,0.245691 -0.40066,0.400518 -0.723626,0.400518 -0.528121,0 -0.946555,-0.450266 -0.946555,-1.133025 -0.0046,-0.741643 0.459566,-1.182771 0.992257,-1.182771 0.304685,0 0.523551,0.127414 0.623589,0.291378 h 0.0091 v -1.25587 h 0.55859 z m -0.558589,1.938121 a 0.79014971,0.78986808 0 0 0 -0.01371,-0.145689 0.49054282,0.49036797 0 0 0 -0.482418,-0.395949 c -0.359528,0 -0.558589,0.318282 -0.558589,0.732506 0,0.406102 0.200077,0.700526 0.555035,0.700526 a 0.49358967,0.49341374 0 0 0 0.482418,-0.39595 0.62460421,0.62438158 0 0 0 0.01828,-0.163963 v -0.331481 z"
       class="cls-1"
       inkscape:connector-curvature="0" />
    <path
       style="fill:#000002;fill-opacity:1;stroke:#0000ff;stroke-width:0.26458335;stroke-opacity:1"
       id="path931"
       d="m 38.958804,94.923713 a 1.2487006,1.2482555 0 0 0 0.568745,0.159395 c 0.245779,0 0.355466,-0.101525 0.355466,-0.245692 0,-0.144166 -0.0909,-0.227417 -0.364099,-0.322851 -0.432145,-0.152288 -0.614448,-0.386812 -0.60937,-0.646209 0,-0.391381 0.322966,-0.695957 0.837376,-0.695957 a 1.3015127,1.3010488 0 0 1 0.587027,0.131983 l -0.109179,0.395949 a 0.99530427,0.99494951 0 0 0 -0.468707,-0.127414 c -0.200077,0 -0.309255,0.09543 -0.309255,0.231985 0,0.136552 0.104608,0.209143 0.386949,0.309145 0.400661,0.145689 0.587027,0.350263 0.591597,0.677683 0,0.400518 -0.313825,0.691388 -0.900852,0.691388 A 1.4299882,1.4294785 0 0 1 38.851148,95.33083 Z"
       class="cls-1"
       inkscape:connector-curvature="0" />
    <path
       style="fill:#000002;fill-opacity:1;stroke:#0000ff;stroke-width:0.26458335;stroke-opacity:1"
       id="path933"
       d="m 33.863455,81.977186 c -0.782025,-0.674129 -1.810844,-1.09749 -3.057514,-1.257392 l -0.403199,-0.163456 3.694305,-4.639206 h -3.466299 l -2.969156,3.768117 c -0.241208,0.296962 -0.463628,0.636565 -0.667767,0.907638 0.735814,0.253813 1.391902,0.689358 1.961155,1.252316 a 5.3187841,5.3168883 0 0 1 1.058273,1.53405 c 0.05941,-0.0046 0.119335,0 0.180272,0 0.570268,0 1.071475,0.212188 1.488894,0.623874 a 2.1134981,2.1127448 0 0 1 -1.310146,3.596539 6.5893205,6.5869718 0 0 1 -0.475308,1.312725 11.689747,11.68558 0 0 1 -0.93843,1.522881 5.7382338,5.7361885 0 0 0 1.174053,0.1198 c 1.459949,0 2.681735,-0.46194 3.630829,-1.370593 0.990226,-0.982767 1.498034,-2.313765 1.498034,-3.959493 0,-1.369579 -0.457027,-2.432043 -1.397996,-3.2478 z"
       class="cls-2"
       inkscape:connector-curvature="0" />
    <path
       style="fill:#000002;fill-opacity:1;stroke:#0000ff;stroke-width:0.26458335;stroke-opacity:1"
       id="path935"
       d="m 26.679491,85.851398 c 0,-0.450773 -0.162498,-0.831494 -0.497144,-1.164497 a 1.5945181,1.5939497 0 0 0 -0.986672,-0.485292 5.872803,5.8707097 0 0 0 -0.09801,1.062464 c 0,0.805605 0.123398,1.535065 0.368161,2.182797 a 1.642252,1.6416667 0 0 0 0.71601,-0.433006 c 0.333122,-0.330973 0.497652,-0.711693 0.497652,-1.162466 z"
       class="cls-2"
       inkscape:connector-curvature="0" />
    <path
       style="fill:#000002;fill-opacity:1;stroke:#0000ff;stroke-width:0.26458335;stroke-opacity:1"
       id="path937"
       d="m 28.636584,82.192928 c -0.937922,-0.927435 -2.137873,-1.398513 -3.565322,-1.398513 -1.459441,0 -2.681227,0.466002 -3.630321,1.385822 -0.994289,0.968553 -1.498542,2.29346 -1.498542,3.936142 0,1.377193 0.457027,2.436611 1.395457,3.241201 0.782532,0.674129 1.81186,1.096982 3.058529,1.256377 l 0.402692,0.05076 -0.183319,0.481231 -3.511494,4.568645 h 3.467823 l 2.970678,-3.90873 c 0.929797,-1.144699 1.585886,-2.226961 1.951,-2.966574 a 6.2252219,6.2230031 0 0 0 0.615463,-2.690425 c -0.0025,-1.602071 -0.497144,-2.976218 -1.472644,-3.955939 z M 26.498711,87.3357 c -0.417926,0.415747 -0.919133,0.62692 -1.489909,0.62692 a 2.0495143,2.0487838 0 0 1 -1.48991,-0.62692 c -0.417926,-0.416254 -0.629682,-0.913729 -0.629682,-1.484302 0,-0.570573 0.211756,-1.066017 0.629682,-1.484302 a 2.082014,2.0812719 0 0 1 2.979819,0 c 0.417927,0.416254 0.630191,0.913729 0.630191,1.484302 0,0.570573 -0.211756,1.068048 -0.630191,1.484302 z"
       class="cls-1"
       inkscape:connector-curvature="0" />
  </g>
</svg>
