<?xml version="1.0" encoding="UTF-8" standalone="no"?>
<svg
   xmlns:dc="http://purl.org/dc/elements/1.1/"
   xmlns:cc="http://creativecommons.org/ns#"
   xmlns:rdf="http://www.w3.org/1999/02/22-rdf-syntax-ns#"
   xmlns:svg="http://www.w3.org/2000/svg"
   xmlns="http://www.w3.org/2000/svg"
   xmlns:sodipodi="http://sodipodi.sourceforge.net/DTD/sodipodi-0.dtd"
   xmlns:inkscape="http://www.inkscape.org/namespaces/inkscape"
   height="130.5mm"
   version="1.1"
   viewBox="0 0 155.5 130.5"
   width="155.5mm"
   id="svg4787"
   sodipodi:docname="ce96-hikey-96boards.svg"
   inkscape:version="0.92+devel unknown">
  <metadata
     id="metadata4791">
    <rdf:RDF>
      <cc:Work
         rdf:about="">
        <dc:format>image/svg+xml</dc:format>
        <dc:type
           rdf:resource="http://purl.org/dc/dcmitype/StillImage" />
        <dc:title></dc:title>
      </cc:Work>
    </rdf:RDF>
  </metadata>
  <sodipodi:namedview
     pagecolor="#ffffff"
     bordercolor="#666666"
     borderopacity="1"
     objecttolerance="10"
     gridtolerance="10"
     guidetolerance="10"
     inkscape:pageopacity="0"
     inkscape:pageshadow="2"
     inkscape:window-width="1920"
     inkscape:window-height="1016"
     id="namedview4789"
     showgrid="false"
     inkscape:zoom="1.1844152"
     inkscape:cx="335.8071"
     inkscape:cy="228.43841"
     inkscape:window-x="0"
     inkscape:window-y="0"
     inkscape:window-maximized="1"
     inkscape:current-layer="svg4787"
     inkscape:document-rotation="0"
     fit-margin-top="0"
     fit-margin-left="0"
     fit-margin-right="0"
     fit-margin-bottom="0" />
  <defs
     id="defs4659" />
  <rect
     style="stroke:#ff0000;stroke-opacity:1"
     id="rect4661"
     y="0.25"
     x="0.25"
     width="95"
     stroke-width="0.5"
     stroke="red"
     ry="5"
     rx="5"
     height="64"
     fill="none" />
  <circle
     cx="9.25"
     cy="23.75"
     fill="none"
     r="1.25"
     stroke="red"
     stroke-width="0.5"
     id="circle4663"
     style="stroke:#ff0000;stroke-opacity:1" />
  <circle
     cx="9.25"
     cy="55.25"
     fill="none"
     r="1.25"
     stroke="red"
     stroke-width="0.5"
     id="circle4665"
     style="stroke:#ff0000;stroke-opacity:1" />
  <circle
     cx="86.25"
     cy="23.75"
     fill="none"
     r="1.25"
     stroke="red"
     stroke-width="0.5"
     id="circle4667"
     style="stroke:#ff0000;stroke-opacity:1" />
  <circle
     cx="86.25"
     cy="55.25"
     fill="none"
     r="1.25"
     stroke="red"
     stroke-width="0.5"
     id="circle4669"
     style="stroke:#ff0000;stroke-opacity:1" />
  <path
     style="stroke:#ff0000;stroke-opacity:1"
     inkscape:connector-curvature="0"
     id="path4675"
     stroke-width="0.5"
     stroke="red"
     fill="none"
     d="m 0.25,71.25 a 5,5 0 0 1 5,-5 h 44.5 a 5,5 0 0 1 5,5 h 21 a 5,5 0 0 1 5,-5 h 9.5 a 5,5 0 0 1 5,5 v 54 a 5,5 0 0 1 -5,5 h -3 a 5,5 0 0 1 -5,-5 v -20 h -42 v 20 a 5,5 0 0 1 -5,5 h -30 a 5,5 0 0 1 -5,-5 z" />
  <circle
     cx="9.25"
     cy="89.75"
     fill="none"
     r="1.25"
     stroke="red"
     stroke-width="0.5"
     id="circle4677"
     style="stroke:#ff0000;stroke-opacity:1" />
  <circle
     cx="9.25"
     cy="121.25"
     fill="none"
     r="1.25"
     stroke="red"
     stroke-width="0.5"
     id="circle4679"
     style="stroke:#ff0000;stroke-opacity:1" />
  <circle
     cx="86.25"
     cy="89.75"
     fill="none"
     r="1.25"
     stroke="red"
     stroke-width="0.5"
     id="circle4681"
     style="stroke:#ff0000;stroke-opacity:1" />
  <circle
     cx="86.25"
     cy="121.25"
     fill="none"
     r="1.25"
     stroke="red"
     stroke-width="0.5"
     id="circle4683"
     style="stroke:#ff0000;stroke-opacity:1" />
  <rect
     style="stroke:#ff0000;stroke-opacity:1"
     id="rect4687"
     y="110.25"
     x="84.25"
     width="6"
     stroke-width="0.5"
     stroke="red"
     height="9"
     fill="none" />
  <path
     style="stroke:#ff0000;stroke-opacity:1"
     inkscape:connector-curvature="0"
     id="path4691"
     stroke-width="0.5"
     stroke="red"
     fill="none"
     d="m 97.25,5.25 a 5,5 0 0 1 5,-5 v 21 h 4 a 2.5,2.5 0 0 1 0,5 h -4 v 26.5 h 4 a 2.5,2.5 0 0 1 0,5 h -4 v 1.5 h 5 a 5,5 0 0 1 -10,0 z" />
  <circle
     style="stroke:#ff0000;stroke-opacity:1"
     id="circle4693"
     stroke-width="0.5"
     stroke="red"
     r="1.25"
     fill="none"
     cy="23.75"
     cx="106.25" />
  <circle
     style="stroke:#ff0000;stroke-opacity:1"
     id="circle4695"
     stroke-width="0.5"
     stroke="red"
     r="1.25"
     fill="none"
     cy="55.25"
     cx="106.25" />
  <path
     style="stroke:#ff0000;stroke-opacity:1"
     inkscape:connector-curvature="0"
     id="path4699"
     stroke-width="0.5"
     stroke="red"
     fill="none"
     d="m 97.25,71.25 a 5,5 0 0 1 5,-5 v 21 h 4 a 2.5,2.5 0 0 1 0,5 h -4 v 26.5 h 4 a 2.5,2.5 0 0 1 0,5 h -4 v 1.5 h 5 a 5,5 0 0 1 -10,0 z" />
  <circle
     style="stroke:#ff0000;stroke-opacity:1"
     id="circle4701"
     stroke-width="0.5"
     stroke="red"
     r="1.25"
     fill="none"
     cy="89.75"
     cx="106.25" />
  <circle
     style="stroke:#ff0000;stroke-opacity:1"
     id="circle4703"
     stroke-width="0.5"
     stroke="red"
     r="1.25"
     fill="none"
     cy="121.25"
     cx="106.25" />
  <path
     style="stroke:#ff0000;stroke-opacity:1"
     inkscape:connector-curvature="0"
     id="path4707"
     stroke-width="0.5"
     stroke="red"
     fill="none"
     d="m 115.25,59.25 a 5,5 0 0 1 -5,5 v -21 h -4 a 2.5,2.5 0 0 1 0,-5 h 4 v -26.5 h -4 a 2.5,2.5 0 0 1 0,-5 h 4 v -1.5 h -5 a 5,5 0 0 1 10,0 z" />
  <circle
     style="stroke:#ff0000;stroke-opacity:1"
     id="circle4709"
     stroke-width="0.5"
     stroke="red"
     r="1.25"
     fill="none"
     cy="-40.75"
     cx="-106.25"
     transform="scale(-1)" />
  <circle
     style="stroke:#ff0000;stroke-opacity:1"
     id="circle4711"
     stroke-width="0.5"
     stroke="red"
     r="1.25"
     fill="none"
     cy="-9.25"
     cx="-106.25"
     transform="scale(-1)" />
  <path
     style="stroke:#ff0000;stroke-opacity:1"
     inkscape:connector-curvature="0"
     id="path4715"
     stroke-width="0.5"
     stroke="red"
     fill="none"
     d="m 115.25,125.25 a 5,5 0 0 1 -5,5 v -21 h -4 a 2.5,2.5 0 0 1 0,-5 h 4 v -26.5 h -4 a 2.5,2.5 0 0 1 0,-5 h 4 v -1.5 h -5 a 5,5 0 0 1 10,0 z" />
  <circle
     style="stroke:#ff0000;stroke-opacity:1"
     id="circle4717"
     stroke-width="0.5"
     stroke="red"
     r="1.25"
     fill="none"
     cy="-106.75"
     cx="-106.25"
     transform="scale(-1)" />
  <circle
     style="stroke:#ff0000;stroke-opacity:1"
     id="circle4719"
     stroke-width="0.5"
     stroke="red"
     r="1.25"
     fill="none"
     cy="-75.25"
     cx="-106.25"
     transform="scale(-1)" />
  <path
     style="stroke:#ff0000;stroke-opacity:1"
     inkscape:connector-curvature="0"
     id="path4723"
     stroke-width="0.5"
     stroke="red"
     fill="none"
     d="m 117.25,5.25 a 5,5 0 0 1 5,-5 v 21 h 4 a 2.5,2.5 0 0 1 0,5 h -4 v 26.5 h 4 a 2.5,2.5 0 0 1 0,5 h -4 v 1.5 h 5 a 5,5 0 0 1 -10,0 z" />
  <circle
     style="stroke:#ff0000;stroke-opacity:1"
     id="circle4725"
     stroke-width="0.5"
     stroke="red"
     r="1.25"
     fill="none"
     cy="23.75"
     cx="126.25" />
  <circle
     style="stroke:#ff0000;stroke-opacity:1"
     id="circle4727"
     stroke-width="0.5"
     stroke="red"
     r="1.25"
     fill="none"
     cy="55.25"
     cx="126.25" />
  <path
     style="stroke:#ff0000;stroke-opacity:1"
     inkscape:connector-curvature="0"
     id="path4731"
     stroke-width="0.5"
     stroke="red"
     fill="none"
     d="m 117.25,71.25 a 5,5 0 0 1 5,-5 v 21 h 4 a 2.5,2.5 0 0 1 0,5 h -4 v 26.5 h 4 a 2.5,2.5 0 0 1 0,5 h -4 v 1.5 h 5 a 5,5 0 0 1 -10,0 z" />
  <circle
     style="stroke:#ff0000;stroke-opacity:1"
     id="circle4733"
     stroke-width="0.5"
     stroke="red"
     r="1.25"
     fill="none"
     cy="89.75"
     cx="126.25" />
  <circle
     style="stroke:#ff0000;stroke-opacity:1"
     id="circle4735"
     stroke-width="0.5"
     stroke="red"
     r="1.25"
     fill="none"
     cy="121.25"
     cx="126.25" />
  <path
     style="stroke:#ff0000;stroke-opacity:1"
     inkscape:connector-curvature="0"
     id="path4739"
     stroke-width="0.5"
     stroke="red"
     fill="none"
     d="m 135.25,59.25 a 5,5 0 0 1 -5,5 v -21 h -4 a 2.5,2.5 0 0 1 0,-5 h 4 v -26.5 h -4 a 2.5,2.5 0 0 1 0,-5 h 4 v -1.5 h -5 a 5,5 0 0 1 10,0 z" />
  <circle
     style="stroke:#ff0000;stroke-opacity:1"
     id="circle4741"
     stroke-width="0.5"
     stroke="red"
     r="1.25"
     fill="none"
     cy="-40.75"
     cx="-126.25"
     transform="scale(-1)" />
  <circle
     style="stroke:#ff0000;stroke-opacity:1"
     id="circle4743"
     stroke-width="0.5"
     stroke="red"
     r="1.25"
     fill="none"
     cy="-9.25"
     cx="-126.25"
     transform="scale(-1)" />
  <path
     style="stroke:#ff0000;stroke-opacity:1"
     inkscape:connector-curvature="0"
     id="path4747"
     stroke-width="0.5"
     stroke="red"
     fill="none"
     d="m 135.25,125.25 a 5,5 0 0 1 -5,5 v -21 h -4 a 2.5,2.5 0 0 1 0,-5 h 4 v -26.5 h -4 a 2.5,2.5 0 0 1 0,-5 h 4 v -1.5 h -5 a 5,5 0 0 1 10,0 z" />
  <circle
     style="stroke:#ff0000;stroke-opacity:1"
     id="circle4749"
     stroke-width="0.5"
     stroke="red"
     r="1.25"
     fill="none"
     cy="-106.75"
     cx="-126.25"
     transform="scale(-1)" />
  <circle
     style="stroke:#ff0000;stroke-opacity:1"
     id="circle4751"
     stroke-width="0.5"
     stroke="red"
     r="1.25"
     fill="none"
     cy="-75.25"
     cx="-126.25"
     transform="scale(-1)" />
  <path
     style="stroke:#ff0000;stroke-opacity:1"
     inkscape:connector-curvature="0"
     id="path4755"
     stroke-width="0.5"
     stroke="red"
     fill="none"
     d="m 137.25,5.25 a 5,5 0 0 1 5,-5 v 21 h 4 a 2.5,2.5 0 0 1 0,5 h -4 v 26.5 h 4 a 2.5,2.5 0 0 1 0,5 h -4 v 1.5 h 5 a 5,5 0 0 1 -10,0 z" />
  <circle
     style="stroke:#ff0000;stroke-opacity:1"
     id="circle4757"
     stroke-width="0.5"
     stroke="red"
     r="1.25"
     fill="none"
     cy="23.75"
     cx="146.25" />
  <circle
     style="stroke:#ff0000;stroke-opacity:1"
     id="circle4759"
     stroke-width="0.5"
     stroke="red"
     r="1.25"
     fill="none"
     cy="55.25"
     cx="146.25" />
  <path
     style="stroke:#ff0000;stroke-opacity:1"
     inkscape:connector-curvature="0"
     id="path4763"
     stroke-width="0.5"
     stroke="red"
     fill="none"
     d="m 137.25,71.25 a 5,5 0 0 1 5,-5 v 21 h 4 a 2.5,2.5 0 0 1 0,5 h -4 v 26.5 h 4 a 2.5,2.5 0 0 1 0,5 h -4 v 1.5 h 5 a 5,5 0 0 1 -10,0 z" />
  <circle
     style="stroke:#ff0000;stroke-opacity:1"
     id="circle4765"
     stroke-width="0.5"
     stroke="red"
     r="1.25"
     fill="none"
     cy="89.75"
     cx="146.25" />
  <circle
     style="stroke:#ff0000;stroke-opacity:1"
     id="circle4767"
     stroke-width="0.5"
     stroke="red"
     r="1.25"
     fill="none"
     cy="121.25"
     cx="146.25" />
  <path
     style="stroke:#ff0000;stroke-opacity:1"
     inkscape:connector-curvature="0"
     id="path4771"
     stroke-width="0.5"
     stroke="red"
     fill="none"
     d="m 155.25,59.25 a 5,5 0 0 1 -5,5 v -21 h -4 a 2.5,2.5 0 0 1 0,-5 h 4 v -26.5 h -4 a 2.5,2.5 0 0 1 0,-5 h 4 v -1.5 h -5 a 5,5 0 0 1 10,0 z" />
  <circle
     style="stroke:#ff0000;stroke-opacity:1"
     id="circle4773"
     stroke-width="0.5"
     stroke="red"
     r="1.25"
     fill="none"
     cy="-40.75"
     cx="-146.25"
     transform="scale(-1)" />
  <circle
     style="stroke:#ff0000;stroke-opacity:1"
     id="circle4775"
     stroke-width="0.5"
     stroke="red"
     r="1.25"
     fill="none"
     cy="-9.25"
     cx="-146.25"
     transform="scale(-1)" />
  <path
     style="stroke:#ff0000;stroke-opacity:1"
     inkscape:connector-curvature="0"
     id="path4779"
     stroke-width="0.5"
     stroke="red"
     fill="none"
     d="m 155.25,125.25 a 5,5 0 0 1 -5,5 v -21 h -4 a 2.5,2.5 0 0 1 0,-5 h 4 v -26.5 h -4 a 2.5,2.5 0 0 1 0,-5 h 4 v -1.5 h -5 a 5,5 0 0 1 10,0 z" />
  <circle
     style="stroke:#ff0000;stroke-opacity:1"
     id="circle4781"
     stroke-width="0.5"
     stroke="red"
     r="1.25"
     fill="none"
     cy="-106.75"
     cx="-146.25"
     transform="scale(-1)" />
  <circle
     style="stroke:#ff0000;stroke-opacity:1"
     id="circle4783"
     stroke-width="0.5"
     stroke="red"
     r="1.25"
     fill="none"
     cy="-75.25"
     cx="-146.25"
     transform="scale(-1)" />
  <path
     style="stroke:#0000ff;stroke-width:0.24999999;stroke-miterlimit:4;stroke-dasharray:none;stroke-opacity:1"
     d="m 25.388176,93.388513 a 6.241611,6.2412927 0 0 1 1.08628,-0.08522 c 0.552143,0 0.89183,0.06661 1.170902,0.261055 a 0.86242259,0.86237862 0 0 1 0.427311,0.764558 c 0,0.376278 -0.236461,0.720149 -0.679376,0.885783 v 0.012 c 0.430911,0.109223 0.825213,0.448893 0.825213,1.01361 a 1.0610739,1.0610198 0 0 1 -0.394302,0.843174 c -0.291675,0.255053 -0.771799,0.38168 -1.520192,0.38168 a 7.2312664,7.2308977 0 0 1 -0.916436,-0.05461 V 93.38971 Z m 0.739991,1.616135 h 0.384099 c 0.515533,0 0.807208,-0.24005 0.807208,-0.588722 0,-0.382279 -0.291075,-0.558116 -0.764597,-0.558116 a 2.0291237,2.0290203 0 0 0 -0.42491,0.03061 v 1.116231 z m 0,1.880789 a 3.2966509,3.2964828 0 0 0 0.394301,0.018 c 0.480124,0 0.904434,-0.180037 0.904434,-0.685942 0,-0.473498 -0.412907,-0.667338 -0.92844,-0.667338 h -0.370295 v 1.334676 z"
     id="path945"
     inkscape:connector-curvature="0" />
  <path
     style="stroke:#0000ff;stroke-width:0.24999999;stroke-miterlimit:4;stroke-dasharray:none;stroke-opacity:1"
     d="m 31.553567,95.918637 c 0,1.086225 -0.764597,1.571726 -1.517192,1.571726 -0.840216,0 -1.480582,-0.57672 -1.480582,-1.523116 0,-0.971001 0.637365,-1.565724 1.529195,-1.565724 0.879227,0.003 1.468579,0.619328 1.468579,1.517114 z m -2.227175,0.03061 c 0,0.570118 0.279072,1.001007 0.73399,1.001007 0.424909,0 0.720186,-0.420087 0.720186,-1.01361 0,-0.460896 -0.206454,-0.989005 -0.715985,-0.989005 -0.526336,6e-4 -0.738791,0.510106 -0.738791,1.001608 z"
     id="path947"
     inkscape:connector-curvature="0" />
  <path
     style="stroke:#0000ff;stroke-width:0.24999999;stroke-miterlimit:4;stroke-dasharray:none;stroke-opacity:1"
     d="m 33.714125,97.423749 -0.04861,-0.327668 h -0.01801 a 1.0976833,1.0976273 0 0 1 -0.873825,0.394282 c -0.594754,0 -0.92844,-0.43089 -0.92844,-0.879782 0,-0.746555 0.660171,-1.122833 1.753653,-1.116232 v -0.04861 c 0,-0.19444 -0.07862,-0.515507 -0.600155,-0.515507 a 1.565204,1.5651242 0 0 0 -0.795205,0.218446 l -0.145838,-0.485501 c 0.218457,-0.133227 0.600155,-0.261054 1.068276,-0.261054 0.946444,0 1.219515,0.600124 1.219515,1.244058 v 1.068221 a 4.7412237,4.740982 0 0 0 0.04261,0.709947 H 33.714125 Z M 33.6169,95.97985 c -0.528137,-0.012 -1.031667,0.103221 -1.031667,0.552114 0,0.291061 0.187849,0.424888 0.42491,0.424888 a 0.60495614,0.60492529 0 0 0 0.58275,-0.406284 0.54013941,0.54011187 0 0 0 0.02401,-0.163834 V 95.98045 Z"
     id="path949"
     inkscape:connector-curvature="0" />
  <path
     style="stroke:#0000ff;stroke-width:0.24999999;stroke-miterlimit:4;stroke-dasharray:none;stroke-opacity:1"
     d="m 34.986453,95.421134 c 0,-0.400283 -0.006,-0.685942 -0.02401,-0.952397 h 0.649367 l 0.02401,0.564117 h 0.02401 c 0.145837,-0.420087 0.491527,-0.631331 0.807208,-0.631331 a 0.78440245,0.78436246 0 0 1 0.175846,0.018 v 0.705146 a 1.0376678,1.0376149 0 0 0 -0.218457,-0.02401 c -0.360093,0 -0.600155,0.230448 -0.667372,0.564117 a 1.2837313,1.2836659 0 0 0 -0.02401,0.230447 v 1.529117 h -0.746593 z"
     id="path951"
     inkscape:connector-curvature="0" />
  <path
     style="stroke:#0000ff;stroke-width:0.24999999;stroke-miterlimit:4;stroke-dasharray:none;stroke-opacity:1"
     d="m 39.746882,93.115457 v 3.47712 c 0,0.303663 0.012,0.631331 0.02401,0.831172 H 39.10352 l -0.03061,-0.467497 h -0.012 c -0.175846,0.327668 -0.534138,0.534111 -0.965049,0.534111 -0.703982,0 -1.260326,-0.600125 -1.260326,-1.511113 -0.0072,-0.989005 0.611558,-1.574726 1.319741,-1.574726 0.406305,0 0.69798,0.169835 0.831214,0.38828 h 0.012 v -1.677347 h 0.746592 z m -0.746593,2.584735 a 1.053872,1.0538183 0 0 0 -0.01801,-0.19444 0.65356869,0.65353536 0 0 0 -0.643366,-0.52811 c -0.480124,0 -0.746592,0.424888 -0.746592,0.977003 0,0.540112 0.267069,0.934393 0.740591,0.934393 a 0.66017039,0.66013673 0 0 0 0.643366,-0.528109 0.833015,0.83297253 0 0 0 0.02401,-0.218445 v -0.442892 z"
     id="path953"
     inkscape:connector-curvature="0" />
  <path
     style="stroke:#0000ff;stroke-width:0.24999999;stroke-miterlimit:4;stroke-dasharray:none;stroke-opacity:1"
     d="m 40.375844,96.737807 a 1.6648297,1.6647448 0 0 0 0.758596,0.212444 c 0.327684,0 0.473522,-0.133228 0.473522,-0.327668 0,-0.19444 -0.120031,-0.303663 -0.485525,-0.430889 -0.576749,-0.200442 -0.819212,-0.515507 -0.81321,-0.861779 0,-0.522108 0.430911,-0.928392 1.116288,-0.928392 a 1.735648,1.7355595 0 0 1 0.780201,0.175836 l -0.145837,0.52811 a 1.3269425,1.3268748 0 0 0 -0.624762,-0.169835 c -0.267068,0 -0.412906,0.127226 -0.412906,0.309664 0,0.182438 0.139836,0.279058 0.515533,0.412885 0.534138,0.194441 0.780201,0.467497 0.788603,0.904388 0,0.53411 -0.420108,0.922391 -1.200309,0.922391 a 1.9066921,1.9065949 0 0 1 -0.900233,-0.206443 z"
     id="path955"
     inkscape:connector-curvature="0" />
  <path
     style="stroke:#0000ff;stroke-width:0.24999999;stroke-miterlimit:4;stroke-dasharray:none;stroke-opacity:1"
     d="m 33.57969,79.475832 c -1.042469,-0.900187 -2.414423,-1.463704 -4.076852,-1.677348 l -0.54014,-0.204642 4.931473,-6.174079 h -4.621193 l -3.961022,5.012238 c -0.321683,0.396082 -0.618159,0.840174 -0.89003,1.203849 0.981254,0.33727 1.855679,0.91579 2.614875,1.667146 a 7.0818278,7.0814667 0 0 1 1.410364,2.047624 c 0.07922,-0.0066 0.159041,0 0.240062,0 0.760396,0 1.428369,0.282658 1.985313,0.831772 a 2.7217025,2.7215637 0 0 1 0.840216,2.000815 c 0,0.762157 -0.282672,1.428295 -0.840216,1.98041 a 2.7439082,2.7437683 0 0 1 -1.747051,0.816769 8.7856676,8.7852196 0 0 1 -0.633764,1.746362 c -0.289875,0.588121 -0.708783,1.269863 -1.251323,2.037422 a 7.6513748,7.6509847 0 0 0 1.563404,0.156632 c 1.946902,0 3.575723,-0.616328 4.841449,-1.830979 1.323942,-1.305871 1.997316,-3.082839 1.997316,-5.281094 -0.0012,-1.826778 -0.609758,-3.244872 -1.862881,-4.332897 z"
     id="path957"
     inkscape:connector-curvature="0" />
  <path
     style="stroke:#0000ff;stroke-width:0.24999999;stroke-miterlimit:4;stroke-dasharray:none;stroke-opacity:1"
     d="m 23.998217,84.642902 c 0,-0.600125 -0.216656,-1.10903 -0.66017,-1.553122 -0.3841,-0.382879 -0.816811,-0.595323 -1.31554,-0.646934 a 7.830221,7.8298217 0 0 0 -0.131434,1.417494 c 0,1.074222 0.164443,2.047624 0.490927,2.914203 a 2.1899652,2.1898536 0 0 0 0.954846,-0.577319 c 0.444115,-0.445293 0.661371,-0.952998 0.661371,-1.554322 z"
     id="path959"
     inkscape:connector-curvature="0" />
  <path
     style="stroke:#0000ff;stroke-width:0.24999999;stroke-miterlimit:4;stroke-dasharray:none;stroke-opacity:1"
     d="m 26.610091,79.761491 c -1.250123,-1.235056 -2.850136,-1.860386 -4.753827,-1.860386 -1.946302,0 -3.574522,0.621729 -4.840249,1.848383 -1.325742,1.292068 -1.997916,3.060634 -1.997916,5.249888 0,1.83698 0.608557,3.250873 1.86048,4.320895 1.04367,0.900186 2.415624,1.463103 4.081054,1.676147 l 0.536538,0.06661 -0.244263,0.652936 -4.684809,6.109265 h 4.621193 l 3.961022,-5.227083 c 1.23932,-1.526716 2.114946,-2.976616 2.601071,-3.96082 a 8.3151461,8.3147222 0 0 0 0.820412,-3.594744 c 0,-2.137643 -0.65957,-3.972223 -1.960706,-5.281094 z m -2.850136,6.85942 c -0.556943,0.554515 -1.224916,0.835974 -1.986512,0.835974 -0.761597,0 -1.429569,-0.281459 -1.986513,-0.835974 -0.556944,-0.554514 -0.840217,-1.221253 -0.840217,-1.98041 0,-0.759157 0.282673,-1.424695 0.840217,-1.98041 0.557544,-0.555715 1.225516,-0.835973 1.986513,-0.835973 0.760996,0 1.429569,0.281458 1.986512,0.835973 0.556944,0.554515 0.840217,1.221253 0.840217,1.98041 0,0.759157 -0.282673,1.427096 -0.840217,1.982211 z"
     id="path961"
     inkscape:connector-curvature="0" />
</svg>
