<?xml version="1.0" encoding="UTF-8" standalone="no"?>
<svg
   xmlns:dc="http://purl.org/dc/elements/1.1/"
   xmlns:cc="http://creativecommons.org/ns#"
   xmlns:rdf="http://www.w3.org/1999/02/22-rdf-syntax-ns#"
   xmlns:svg="http://www.w3.org/2000/svg"
   xmlns="http://www.w3.org/2000/svg"
   xmlns:sodipodi="http://sodipodi.sourceforge.net/DTD/sodipodi-0.dtd"
   xmlns:inkscape="http://www.inkscape.org/namespaces/inkscape"
   height="130.3mm"
   version="1.1"
   viewBox="0 0 170.3 130.3"
   width="170.3mm"
   id="svg10025"
   sodipodi:docname="ee96-poplar-96boards.svg"
   inkscape:version="0.92.2 (5c3e80d, 2017-08-06)">
  <metadata
     id="metadata10029">
    <rdf:RDF>
      <cc:Work
         rdf:about="">
        <dc:format>image/svg+xml</dc:format>
        <dc:type
           rdf:resource="http://purl.org/dc/dcmitype/StillImage" />
        <dc:title />
      </cc:Work>
    </rdf:RDF>
  </metadata>
  <sodipodi:namedview
     pagecolor="#ffffff"
     bordercolor="#666666"
     borderopacity="1"
     objecttolerance="10"
     gridtolerance="10"
     guidetolerance="10"
     inkscape:pageopacity="0"
     inkscape:pageshadow="2"
     inkscape:window-width="3200"
     inkscape:window-height="1671"
     id="namedview10027"
     showgrid="false"
     inkscape:zoom="1.6651111"
     inkscape:cx="392.8262"
     inkscape:cy="273.62378"
     inkscape:window-x="0"
     inkscape:window-y="55"
     inkscape:window-maximized="1"
     inkscape:current-layer="svg10025"
     fit-margin-top="0"
     fit-margin-left="0"
     fit-margin-right="0"
     fit-margin-bottom="0" />
  <defs
     id="defs9981" />
  <rect
     style="fill:none;stroke:#ff0000;stroke-width:0.30000001;stroke-miterlimit:4;stroke-dasharray:none"
     id="rect9983"
     y="-131.85001"
     x="-170.14999"
     width="170"
     ry="5"
     rx="5"
     height="130"
     transform="scale(-1,1)" />
  <circle
     cx="-161.14999"
     cy="-122.85"
     r="1.25"
     id="circle9985"
     style="fill:none;stroke:#ff0000;stroke-width:0.30000001;stroke-miterlimit:4;stroke-dasharray:none"
     transform="scale(-1,1)" />
  <circle
     cx="-9.1499996"
     cy="-122.85"
     r="1.25"
     id="circle9987"
     style="fill:none;stroke:#ff0000;stroke-width:0.30000001;stroke-miterlimit:4;stroke-dasharray:none"
     transform="scale(-1,1)" />
  <circle
     cx="-161.14999"
     cy="-10.85"
     r="1.25"
     id="circle9989"
     style="fill:none;stroke:#ff0000;stroke-width:0.30000001;stroke-miterlimit:4;stroke-dasharray:none"
     transform="scale(-1,1)" />
  <circle
     cx="-9.1499996"
     cy="-10.85"
     r="1.25"
     id="circle9991"
     style="fill:none;stroke:#ff0000;stroke-width:0.30000001;stroke-miterlimit:4;stroke-dasharray:none"
     transform="scale(-1,1)" />
  <circle
     cx="-40.650002"
     cy="-10.85"
     r="1.25"
     id="circle9993"
     style="fill:none;stroke:#ff0000;stroke-width:0.30000001;stroke-miterlimit:4;stroke-dasharray:none"
     transform="scale(-1,1)" />
  <circle
     cx="-9.1499996"
     cy="-87.849998"
     r="1.25"
     id="circle9995"
     style="fill:none;stroke:#ff0000;stroke-width:0.30000001;stroke-miterlimit:4;stroke-dasharray:none"
     transform="scale(-1,1)" />
  <circle
     cx="-40.650002"
     cy="-87.849998"
     r="1.25"
     id="circle9997"
     style="fill:none;stroke:#ff0000;stroke-width:0.30000001;stroke-miterlimit:4;stroke-dasharray:none"
     transform="scale(-1,1)" />
  <path
     style="fill:none;stroke:#ff0000;stroke-width:0.30000001;stroke-miterlimit:4;stroke-dasharray:none"
     inkscape:connector-curvature="0"
     id="path10003"
     d="M 0.15000001,5.15 A 5,5 0 0 1 5.15,0.15000001 h 68 22 70 A 5,5 0 0 1 170.15,5.15 v 120 a 5,5 0 0 1 -5,5 h -117 a 5,5 0 0 1 -5,-5 v -16 h -16 v 16 a 5,5 0 0 1 -5,5 h -17 a 5,5 0 0 1 -4.99999999,-5 z" />
  <rect
     style="fill:none;stroke:#ff0000;stroke-width:0.30000001;stroke-miterlimit:4;stroke-dasharray:none"
     id="rect10005"
     y="4.6500001"
     x="76.650002"
     width="12"
     height="9.5" />
  <circle
     cx="9.1499996"
     cy="9.1499996"
     r="1.25"
     id="circle10007"
     style="fill:none;stroke:#ff0000;stroke-width:0.30000001;stroke-miterlimit:4;stroke-dasharray:none" />
  <circle
     cx="161.14999"
     cy="9.1499996"
     r="1.25"
     id="circle10009"
     style="fill:none;stroke:#ff0000;stroke-width:0.30000001;stroke-miterlimit:4;stroke-dasharray:none" />
  <circle
     cx="161.14999"
     cy="121.15"
     r="1.25"
     id="circle10011"
     style="fill:none;stroke:#ff0000;stroke-width:0.30000001;stroke-miterlimit:4;stroke-dasharray:none" />
  <circle
     cx="129.64999"
     cy="121.15"
     r="1.25"
     id="circle10013"
     style="fill:none;stroke:#ff0000;stroke-width:0.30000001;stroke-miterlimit:4;stroke-dasharray:none" />
  <circle
     cx="161.14999"
     cy="44.150002"
     r="1.25"
     id="circle10015"
     style="fill:none;stroke:#ff0000;stroke-width:0.30000001;stroke-miterlimit:4;stroke-dasharray:none" />
  <path
     id="path5615"
     sodipodi:nodetypes="ccccccc"
     style="fill:#000000;fill-opacity:1;stroke:#0000ff;stroke-width:0.30000001;stroke-linecap:round;stroke-linejoin:round;stroke-miterlimit:4;stroke-dasharray:none;stroke-opacity:1"
     inkscape:connector-curvature="0"
     d="m 23.56118,20.27796 0.74635,74.5314 0.2341,6.52811 c 39.3204,4.16741 83.42521,2.95043 122.62414,-1.30497 L 145.19421,20.78924 C 104.7018,20.034 62.38739,20.64554 23.55519,20.27822 Z" />
  <path
     id="path5617"
     sodipodi:nodetypes="ccccc"
     style="fill:#ffffff;fill-opacity:1;stroke:#0000ff;stroke-width:0.30000001;stroke-linecap:round;stroke-linejoin:round;stroke-miterlimit:4;stroke-dasharray:none;stroke-opacity:1"
     inkscape:connector-curvature="0"
     d="m 27.32734,24.21867 0.92914,69.64692 114.89959,0.18775 -1.46927,-70.01441 z" />
  <path
     id="path5619"
     sodipodi:nodetypes="ccccccc"
     style="fill:#ffffff;fill-opacity:1;stroke:#0000ff;stroke-width:0.30000001;stroke-miterlimit:4;stroke-dasharray:none;stroke-opacity:1"
     inkscape:connector-curvature="0"
     d="m 77.81275,96.45983 0.3112,3.30445 h 17.92028 l -0.0657,-3.30445 H 83.28438 l -2.4289,0.0649 z" />
  <ellipse
     ry="1.380522"
     rx="1.2384956"
     cy="97.405022"
     cx="137.64711"
     id="path5648"
     style="fill:#ffffff;fill-opacity:1;stroke:#0000ff;stroke-width:0.30001336;stroke-linecap:round;stroke-linejoin:round;stroke-miterlimit:4;stroke-dasharray:none;stroke-opacity:1"
     transform="matrix(1,0,0.01334349,0.99991097,0,0)" />
  <ellipse
     ry="0.95577961"
     rx="0.85740602"
     cy="97.627541"
     cx="134.2155"
     id="path5650"
     style="fill:#ffffff;fill-opacity:1;stroke:#0000ff;stroke-width:0.30001336;stroke-linecap:round;stroke-linejoin:round;stroke-miterlimit:4;stroke-dasharray:none;stroke-opacity:1"
     transform="matrix(1,0,0.01334349,0.99991097,0,0)" />
  <ellipse
     ry="0.95577961"
     rx="0.85740602"
     cy="97.627541"
     cx="131.21513"
     id="path8737"
     style="fill:#ffffff;fill-opacity:1;stroke:#0000ff;stroke-width:0.30001336;stroke-linecap:round;stroke-linejoin:round;stroke-miterlimit:4;stroke-dasharray:none;stroke-opacity:1"
     transform="matrix(1,0,0.01334349,0.99991097,0,0)" />
  <path
     style="fill:none;stroke:#0000ff;stroke-width:0.30000001;stroke-linecap:round;stroke-linejoin:round;stroke-miterlimit:4;stroke-dasharray:none;stroke-opacity:1"
     d="m 69.42763,18.50028 c -15.09815,0.0182 -30.21414,0.11856 -45.3482,0.29719 -1.71516,-0.17698 -2.20607,0.94276 -2.16436,1.85323 l 0.91528,81.09085 c 5.1e-4,0.41457 -0.0778,1.48734 1.57455,1.62639 19.40184,1.84859 37.7499,2.62039 55.88696,2.48485 l 5.3e-4,6.36157 -28.37299,0.15067 c -3.14075,1.58469 -2.8994,5.31751 -2.83967,7.54686 28.14537,0.61093 46.72146,0.40565 74.18729,-0.36152 -0.0581,-3.10601 -0.4674,-6.81732 -3.22819,-7.54685 l -26.3351,0.1397 -0.18287,-6.54696 c 17.66433,-0.5561 35.32266,-1.94227 53.75955,-4.00707 1.06258,-0.13126 1.18017,-0.72485 1.07382,-1.62552 l -1.70696,-79.11314 c -0.11753,-1.41368 -0.13008,-1.73558 -1.88513,-1.75422 C 119.70382,18.66513 94.5912,18.46972 69.42763,18.50028 Z"
     id="path5627"
     inkscape:connector-curvature="0" />
  <path
     inkscape:connector-curvature="0"
     style="fill:none;stroke:#0000ff;stroke-width:0.30000001;stroke-linecap:round;stroke-linejoin:round;stroke-miterlimit:4;stroke-dasharray:none;stroke-opacity:1"
     d="m 80.29246,112.21436 5.3e-4,2.59997 c 0.69948,0.33239 1.38779,0.61072 2.063,0.83985 0.67526,0.22914 1.337,0.4092 1.98328,0.54441 0.64629,0.1352 1.27737,0.22544 1.89004,0.27599 0.61266,0.0505 1.20741,0.0612 1.78176,0.0364 1.14875,-0.0496 2.21601,-0.24075 3.18355,-0.53595 0.9675,-0.29515 1.83491,-0.69438 2.58382,-1.16071 l -0.0747,-2.67111"
     id="path5627-3"
     sodipodi:nodetypes="cccsscccc" />
  <g
     id="g6363"
     transform="translate(35.538314,-44.02651)"
     style="stroke-width:0.30000001;stroke-miterlimit:4;stroke-dasharray:none;stroke:#0000ff;stroke-opacity:1">
    <path
       style="fill:#000002;fill-opacity:1;stroke:#0000ff;stroke-width:0.30000001;stroke-miterlimit:4;stroke-dasharray:none;stroke-opacity:1"
       id="path921"
       d="m 43.601635,119.41484 a 11.592332,11.592332 0 0 1 2.012121,-0.1572 c 1.026182,0 1.656227,0.12576 2.175606,0.48417 a 1.6021512,1.6021512 0 0 1 0.788499,1.4198 c 0,0.69921 -0.440151,1.34183 -1.257575,1.64491 v 0.0227 c 0.799818,0.20247 1.532984,0.83376 1.532984,1.88636 a 1.9706209,1.9706209 0 0 1 -0.733166,1.56693 c -0.540758,0.47285 -1.431121,0.71053 -2.818227,0.71053 a 13.430906,13.430906 0 0 1 -1.7015,-0.10186 v -7.47629 z m 1.37453,2.99806 h 0.71053 c 0.958273,0 1.499031,-0.45021 1.499031,-1.09284 0,-0.71052 -0.540758,-1.0375 -1.419804,-1.0375 a 3.7727267,3.7727267 0 0 0 -0.7885,0.0566 v 2.07374 z m 0,3.49355 a 6.1231353,6.1231353 0 0 0 0.733167,0.034 c 0.890363,0 1.678863,-0.33829 1.678863,-1.27393 0,-0.8803 -0.765864,-1.23997 -1.724136,-1.23997 h -0.687894 z"
       class="cls-1"
       inkscape:connector-curvature="0" />
    <path
       style="fill:#000002;fill-opacity:1;stroke:#0000ff;stroke-width:0.30000001;stroke-miterlimit:4;stroke-dasharray:none;stroke-opacity:1"
       id="path923"
       d="m 55.050605,124.1144 c 0,2.01212 -1.419805,2.91883 -2.818229,2.91883 -1.555621,0 -2.750318,-1.0702 -2.750318,-2.82828 0,-1.80337 1.183378,-2.90752 2.839606,-2.90752 1.636106,0 2.728941,1.14942 2.728941,2.81697 z m -4.136168,0.0566 c 0,1.05888 0.518121,1.85995 1.363212,1.85995 0.788499,0 1.341833,-0.77718 1.341833,-1.88636 0,-0.85641 -0.377273,-1.83732 -1.330515,-1.83732 -0.979652,0.006 -1.37453,0.95073 -1.37453,1.86373 z"
       class="cls-1"
       inkscape:connector-curvature="0" />
    <path
       style="fill:#000002;fill-opacity:1;stroke:#0000ff;stroke-width:0.30000001;stroke-miterlimit:4;stroke-dasharray:none;stroke-opacity:1"
       id="path925"
       d="m 59.064786,126.90999 -0.09054,-0.60867 h -0.03393 a 2.0385299,2.0385299 0 0 1 -1.623534,0.73316 c -1.10415,0 -1.724132,-0.79981 -1.724132,-1.63484 0,-1.38333 1.228652,-2.08506 3.257122,-2.07374 v -0.0906 c 0,-0.36092 -0.147141,-0.95827 -1.115473,-0.95827 a 2.9075147,2.9075147 0 0 0 -1.476394,0.4062 l -0.267863,-0.90168 c 0.406195,-0.25151 1.115468,-0.48417 1.983197,-0.48417 1.760607,0 2.263636,1.11547 2.263636,2.31017 v 1.98319 a 8.8030291,8.8030291 0 0 0 0.07923,1.3192 z m -0.182351,-2.68241 c -0.980909,-0.0226 -1.916545,0.19115 -1.916545,1.02618 0,0.54076 0.349606,0.7885 0.788501,0.7885 a 1.123015,1.123015 0 0 0 1.081512,-0.75454 0.99851504,0.99851504 0 0 0 0.0453,-0.30434 v -0.75454 z"
       class="cls-1"
       inkscape:connector-curvature="0" />
    <path
       style="fill:#000002;fill-opacity:1;stroke:#0000ff;stroke-width:0.30000001;stroke-miterlimit:4;stroke-dasharray:none;stroke-opacity:1"
       id="path927"
       d="m 61.429024,123.19386 c 0,-0.74449 -0.01131,-1.27393 -0.0453,-1.76941 h 1.206018 l 0.04525,1.04755 h 0.0453 c 0.270376,-0.77718 0.912997,-1.17205 1.499028,-1.17205 a 1.4562725,1.4562725 0 0 1 0.326971,0.034 v 1.30787 a 1.9278633,1.9278633 0 0 0 -0.406199,-0.0452 c -0.665255,0 -1.115468,0.42884 -1.239969,1.04883 a 2.3893936,2.3893936 0 0 0 -0.0453,0.42883 v 2.8396 h -1.383336 v -3.71991 z"
       class="cls-1"
       inkscape:connector-curvature="0" />
    <path
       style="fill:#000002;fill-opacity:1;stroke:#0000ff;stroke-width:0.30000001;stroke-miterlimit:4;stroke-dasharray:none;stroke-opacity:1"
       id="path929"
       d="m 70.269781,118.90803 v 6.45766 c 0,0.56339 0.02263,1.17206 0.04525,1.5443 h -1.239969 l -0.05659,-0.86773 h -0.02263 c -0.326971,0.60867 -0.99223,0.99222 -1.792049,0.99222 -1.307875,0 -2.344118,-1.11546 -2.344118,-2.8069 -0.01132,-1.83732 1.138106,-2.93015 2.457303,-2.93015 0.754545,0 1.296558,0.31565 1.544301,0.72185 h 0.02263 v -3.11125 h 1.383335 z m -1.383334,4.80143 a 1.9567876,1.9567876 0 0 0 -0.03393,-0.36093 1.214818,1.214818 0 0 0 -1.194696,-0.9809 c -0.890364,0 -1.383329,0.7885 -1.383329,1.81468 0,1.00606 0.49548,1.73546 1.374526,1.73546 a 1.2223634,1.2223634 0 0 0 1.194696,-0.98091 1.5468179,1.5468179 0 0 0 0.0453,-0.40621 v -0.82119 z"
       class="cls-1"
       inkscape:connector-curvature="0" />
    <path
       style="fill:#000002;fill-opacity:1;stroke:#0000ff;stroke-width:0.30000001;stroke-miterlimit:4;stroke-dasharray:none;stroke-opacity:1"
       id="path931"
       d="m 71.434295,125.63607 a 3.0923783,3.0923783 0 0 0 1.408489,0.39487 c 0.608664,0 0.880298,-0.25151 0.880298,-0.60866 0,-0.35716 -0.225101,-0.5634 -0.901679,-0.79982 -1.070199,-0.37728 -1.521666,-0.95828 -1.50909,-1.60089 0,-0.9696 0.799819,-1.72414 2.073739,-1.72414 a 3.2231662,3.2231662 0 0 1 1.453762,0.32697 l -0.270383,0.98091 a 2.4648481,2.4648481 0 0 0 -1.160738,-0.31565 c -0.495492,0 -0.765866,0.23642 -0.765866,0.57471 0,0.33829 0.259058,0.51812 0.958269,0.76586 0.992235,0.36092 1.453762,0.86773 1.465078,1.67887 0,0.99222 -0.777183,1.71282 -2.230937,1.71282 a 3.5413327,3.5413327 0 0 1 -1.667544,-0.37728 z"
       class="cls-1"
       inkscape:connector-curvature="0" />
    <path
       style="fill:#000002;fill-opacity:1;stroke:#0000ff;stroke-width:0.30000001;stroke-miterlimit:4;stroke-dasharray:none;stroke-opacity:1"
       id="path933"
       d="m 58.815784,93.562859 c -1.936665,-1.670064 -4.484514,-2.71888 -7.571863,-3.115016 l -0.998514,-0.404939 9.14886,-11.492984 h -8.584209 l -7.353044,9.334984 c -0.597349,0.735681 -1.148167,1.576999 -1.653712,2.248545 1.822227,0.628787 3.447014,1.707785 4.856757,3.102438 a 13.171846,13.171846 0 0 1 2.620787,3.800396 c 0.147137,-0.01129 0.295531,0 0.44644,0 1.412257,0 2.653484,0.525664 3.687211,1.54556 a 5.2340295,5.2340295 0 0 1 -3.244545,8.909927 16.318301,16.318301 0 0 1 -1.177091,3.25209 28.949389,28.949389 0 0 1 -2.323999,3.77272 14.210604,14.210604 0 0 0 2.907515,0.29679 c 3.615529,0 6.641256,-1.14439 8.991664,-3.39545 2.452275,-2.43467 3.709848,-5.73203 3.709848,-9.80909 0,-3.392945 -1.131818,-6.025049 -3.462105,-8.045971 z"
       class="cls-2"
       inkscape:connector-curvature="0" />
    <path
       style="fill:#000002;fill-opacity:1;stroke:#0000ff;stroke-width:0.30000001;stroke-miterlimit:4;stroke-dasharray:none;stroke-opacity:1"
       id="path935"
       d="m 41.024863,103.16067 c 0,-1.11673 -0.402425,-2.0599 -1.231167,-2.88488 a 3.9487872,3.9487872 0 0 0 -2.443469,-1.20224 14.543861,14.543861 0 0 0 -0.242712,2.63211 c 0,1.99577 0.30559,3.80291 0.911742,5.40758 a 4.0669994,4.0669994 0 0 0 1.773182,-1.07272 c 0.824969,-0.81994 1.232424,-1.76312 1.232424,-2.87985 z"
       class="cls-2"
       inkscape:connector-curvature="0" />
    <path
       style="fill:#000002;fill-opacity:1;stroke:#0000ff;stroke-width:0.30000001;stroke-miterlimit:4;stroke-dasharray:none;stroke-opacity:1"
       id="path937"
       d="m 45.871558,94.097329 c -2.322741,-2.297592 -5.294393,-3.464622 -8.829437,-3.464622 -3.614272,0 -6.639999,1.154455 -8.990408,3.433183 -2.462333,2.399448 -3.711105,5.68172 -3.711105,9.75124 0,3.41181 1.131818,6.03636 3.455818,8.02962 1.937923,1.67006 4.487029,2.71762 7.574377,3.1125 l 0.997257,0.12575 -0.453984,1.19219 -8.696135,11.31818 h 8.587983 l 7.356817,-9.68333 c 2.302621,-2.83583 3.927409,-5.51699 4.831605,-7.34928 a 15.416619,15.416619 0 0 0 1.524182,-6.66515 c -0.0063,-3.968905 -1.231166,-7.373164 -3.64697,-9.800281 z m -5.294393,12.740501 c -1.034983,1.02995 -2.276211,1.5531 -3.689726,1.5531 a 5.075575,5.075575 0 0 1 -3.689726,-1.5531 c -1.034985,-1.03122 -1.559394,-2.26364 -1.559394,-3.67716 0,-1.41351 0.524409,-2.64091 1.559394,-3.677147 a 5.1560597,5.1560597 0 0 1 7.379452,0 c 1.034985,1.031217 1.560652,2.263637 1.560652,3.677147 0,1.41352 -0.524409,2.64594 -1.560652,3.67716 z"
       class="cls-1"
       inkscape:connector-curvature="0" />
  </g>
  <circle
     cx="-9.1515493"
     cy="121.14672"
     r="1.25"
     id="circle9989-0"
     style="fill:none;stroke:#ff0000;stroke-width:0.30000001;stroke-miterlimit:4;stroke-dasharray:none"
     transform="scale(-1,1)" />
  <path
     inkscape:connector-curvature="0"
     d="m 139.29751,39.90802 a 0.46850463,0.45242324 44.816549 0 1 -0.44368,0.46101 h -1.38144 l -11.6661,0.014 h -1.38143 a 0.46876813,0.45267769 44.816496 1 1 -0.0322,-0.92148 h 0.92113 l -0.23196,-6.38461 -0.58823,0.42889 a 0.46850463,0.45242324 44.816549 0 1 -0.73799,-0.37502 l -0.0429,-1.228649 a 0.47008564,0.45394998 44.816496 0 1 0.1805,-0.376051 l 6.97385,-5.089129 a 0.46903164,0.45293216 44.816532 0 1 0.53279,0 l 7.34731,5.07202 a 0.46903164,0.45293216 44.816532 0 1 0.2078,0.375529 l 0.0429,1.22865 a 0.46903164,0.45293216 44.816532 0 1 -0.71174,0.37658 l -0.61867,-0.42785 0.23004,6.38719 h 0.92113 a 0.46850463,0.45242324 44.816549 0 1 0.47944,0.45892 z m -2.31906,-0.45789 -0.25015,-6.93418 a 0.45743759,0.44173607 44.816532 0 1 0.007,-0.0963 l -5.52118,-3.813349 -5.24515,3.823709 a 0.46270761,0.4468252 44.816514 0 1 0.0138,0.0964 l 0.25021,6.93624 z m -7.71209,-2.88462 h 1.0832 l 0.0378,1.08361 h -1.0832 z m 2.12781,-1.0603 h 1.05731 l -0.0378,-1.08361 h -1.0832 l 0.0369,1.05771 h -1.0573 l 0.0378,1.08361 h 1.08319 z m -1.18678,-2.16567 h 1.08319 l 0.0378,1.08361 h -1.08319 z m -2.06304,2.14392 h 1.0832 l 0.0378,1.08361 h -1.0832 z m 3.27582,1.092411 h 1.08319 l 0.0378,1.083609 h -1.08319 z m 2.19599,0.832909 h 1.08319 l 0.0378,1.08361 h -1.08319 z m -1.15475,-1.93051 h 1.08319 l 0.0378,1.08361 h -1.08319 z m 1.31957,-1.37109 h 1.0832 l 0.0378,1.08362 h -1.0832 z m -1.1348,-1.99681 h 1.0832 l 0.0378,1.08362 h -1.0832 z"
     id="path8121"
     style="fill:#00000a;fill-opacity:1;stroke:#0000ff;stroke-width:0.2;stroke-miterlimit:4;stroke-dasharray:none;stroke-opacity:1" />
</svg>
