<?xml version="1.0" encoding="UTF-8" standalone="no"?>
<svg
   xmlns:dc="http://purl.org/dc/elements/1.1/"
   xmlns:cc="http://creativecommons.org/ns#"
   xmlns:rdf="http://www.w3.org/1999/02/22-rdf-syntax-ns#"
   xmlns:svg="http://www.w3.org/2000/svg"
   xmlns="http://www.w3.org/2000/svg"
   xmlns:sodipodi="http://sodipodi.sourceforge.net/DTD/sodipodi-0.dtd"
   xmlns:inkscape="http://www.inkscape.org/namespaces/inkscape"
   height="130.5mm"
   version="1.1"
   viewBox="0 0 170.5 130.5"
   width="170.5mm"
   id="svg5680"
   sodipodi:docname="ee96-generic-96boards.svg"
   inkscape:version="0.92.1 r">
  <metadata
     id="metadata5684">
    <rdf:RDF>
      <cc:Work
         rdf:about="">
        <dc:format>image/svg+xml</dc:format>
        <dc:type
           rdf:resource="http://purl.org/dc/dcmitype/StillImage" />
        <dc:title></dc:title>
      </cc:Work>
    </rdf:RDF>
  </metadata>
  <sodipodi:namedview
     pagecolor="#ffffff"
     bordercolor="#666666"
     borderopacity="1"
     objecttolerance="10"
     gridtolerance="10"
     guidetolerance="10"
     inkscape:pageopacity="0"
     inkscape:pageshadow="2"
     inkscape:window-width="1920"
     inkscape:window-height="1009"
     id="namedview5682"
     showgrid="false"
     inkscape:zoom="0.47665395"
     inkscape:cx="-574.79832"
     inkscape:cy="-159.52619"
     inkscape:window-x="0"
     inkscape:window-y="34"
     inkscape:window-maximized="1"
     inkscape:current-layer="svg5680"
     fit-margin-top="0"
     fit-margin-left="0"
     fit-margin-right="0"
     fit-margin-bottom="0" />
  <defs
     id="defs5638" />
  <g
     id="g5658"
     transform="translate(0.25,0.25)">
    <rect
       height="130"
       rx="5"
       ry="5"
       width="170"
       x="0"
       y="0"
       id="rect5640"
       style="fill:none;stroke:#ff0000;stroke-width:0.5" />
    <g
       id="g5656">
      <circle
         cx="9"
         cy="9"
         r="1.25"
         id="circle5642"
         style="fill:none;stroke:#ff0000;stroke-width:0.5" />
      <circle
         cx="161"
         cy="9"
         r="1.25"
         id="circle5644"
         style="fill:none;stroke:#ff0000;stroke-width:0.5" />
      <circle
         cx="9"
         cy="121"
         r="1.25"
         id="circle5646"
         style="fill:none;stroke:#ff0000;stroke-width:0.5" />
      <circle
         cx="161"
         cy="121"
         r="1.25"
         id="circle5648"
         style="fill:none;stroke:#ff0000;stroke-width:0.5" />
      <circle
         cx="129.5"
         cy="121"
         r="1.25"
         id="circle5650"
         style="fill:none;stroke:#ff0000;stroke-width:0.5" />
      <circle
         cx="161"
         cy="44"
         r="1.25"
         id="circle5652"
         style="fill:none;stroke:#ff0000;stroke-width:0.5" />
      <circle
         cx="129.5"
         cy="44"
         r="1.25"
         id="circle5654"
         style="fill:none;stroke:#ff0000;stroke-width:0.5" />
    </g>
  </g>
  <g
     transform="matrix(-1,0,0,1,170.25,132.25)"
     id="g5678">
    <rect
       height="130"
       rx="5"
       ry="5"
       width="170"
       x="0"
       y="0"
       id="rect5660"
       style="fill:none;stroke:#ff0000;stroke-width:0.5" />
    <g
       id="g5676">
      <circle
         cx="9"
         cy="9"
         r="1.25"
         id="circle5662"
         style="fill:none;stroke:#ff0000;stroke-width:0.5" />
      <circle
         cx="161"
         cy="9"
         r="1.25"
         id="circle5664"
         style="fill:none;stroke:#ff0000;stroke-width:0.5" />
      <circle
         cx="9"
         cy="121"
         r="1.25"
         id="circle5666"
         style="fill:none;stroke:#ff0000;stroke-width:0.5" />
      <circle
         cx="161"
         cy="121"
         r="1.25"
         id="circle5668"
         style="fill:none;stroke:#ff0000;stroke-width:0.5" />
      <circle
         cx="129.5"
         cy="121"
         r="1.25"
         id="circle5670"
         style="fill:none;stroke:#ff0000;stroke-width:0.5" />
      <circle
         cx="161"
         cy="44"
         r="1.25"
         id="circle5672"
         style="fill:none;stroke:#ff0000;stroke-width:0.5" />
      <circle
         cx="129.5"
         cy="44"
         r="1.25"
         id="circle5674"
         style="fill:none;stroke:#ff0000;stroke-width:0.5" />
    </g>
  </g>
  <g
     id="g6363"
     transform="translate(19.508697,-42.05598)">
    <path
       style="fill:#000002;fill-opacity:1;stroke:#0000ff;stroke-width:0.12575756;stroke-opacity:1"
       id="path921"
       d="m 43.601635,119.41484 a 11.592332,11.592332 0 0 1 2.012121,-0.1572 c 1.026182,0 1.656227,0.12576 2.175606,0.48417 a 1.6021512,1.6021512 0 0 1 0.788499,1.4198 c 0,0.69921 -0.440151,1.34183 -1.257575,1.64491 v 0.0227 c 0.799818,0.20247 1.532984,0.83376 1.532984,1.88636 a 1.9706209,1.9706209 0 0 1 -0.733166,1.56693 c -0.540758,0.47285 -1.431121,0.71053 -2.818227,0.71053 a 13.430906,13.430906 0 0 1 -1.7015,-0.10186 v -7.47629 z m 1.37453,2.99806 h 0.71053 c 0.958273,0 1.499031,-0.45021 1.499031,-1.09284 0,-0.71052 -0.540758,-1.0375 -1.419804,-1.0375 a 3.7727267,3.7727267 0 0 0 -0.7885,0.0566 v 2.07374 z m 0,3.49355 a 6.1231353,6.1231353 0 0 0 0.733167,0.034 c 0.890363,0 1.678863,-0.33829 1.678863,-1.27393 0,-0.8803 -0.765864,-1.23997 -1.724136,-1.23997 h -0.687894 z"
       class="cls-1"
       inkscape:connector-curvature="0" />
    <path
       style="fill:#000002;fill-opacity:1;stroke:#0000ff;stroke-width:0.12575756;stroke-opacity:1"
       id="path923"
       d="m 55.050605,124.1144 c 0,2.01212 -1.419805,2.91883 -2.818229,2.91883 -1.555621,0 -2.750318,-1.0702 -2.750318,-2.82828 0,-1.80337 1.183378,-2.90752 2.839606,-2.90752 1.636106,0 2.728941,1.14942 2.728941,2.81697 z m -4.136168,0.0566 c 0,1.05888 0.518121,1.85995 1.363212,1.85995 0.788499,0 1.341833,-0.77718 1.341833,-1.88636 0,-0.85641 -0.377273,-1.83732 -1.330515,-1.83732 -0.979652,0.006 -1.37453,0.95073 -1.37453,1.86373 z"
       class="cls-1"
       inkscape:connector-curvature="0" />
    <path
       style="fill:#000002;fill-opacity:1;stroke:#0000ff;stroke-width:0.12575756;stroke-opacity:1"
       id="path925"
       d="m 59.064786,126.90999 -0.09054,-0.60867 h -0.03393 a 2.0385299,2.0385299 0 0 1 -1.623534,0.73316 c -1.10415,0 -1.724132,-0.79981 -1.724132,-1.63484 0,-1.38333 1.228652,-2.08506 3.257122,-2.07374 v -0.0906 c 0,-0.36092 -0.147141,-0.95827 -1.115473,-0.95827 a 2.9075147,2.9075147 0 0 0 -1.476394,0.4062 l -0.267863,-0.90168 c 0.406195,-0.25151 1.115468,-0.48417 1.983197,-0.48417 1.760607,0 2.263636,1.11547 2.263636,2.31017 v 1.98319 a 8.8030291,8.8030291 0 0 0 0.07923,1.3192 z m -0.182351,-2.68241 c -0.980909,-0.0226 -1.916545,0.19115 -1.916545,1.02618 0,0.54076 0.349606,0.7885 0.788501,0.7885 a 1.123015,1.123015 0 0 0 1.081512,-0.75454 0.99851504,0.99851504 0 0 0 0.0453,-0.30434 v -0.75454 z"
       class="cls-1"
       inkscape:connector-curvature="0" />
    <path
       style="fill:#000002;fill-opacity:1;stroke:#0000ff;stroke-width:0.12575756;stroke-opacity:1"
       id="path927"
       d="m 61.429024,123.19386 c 0,-0.74449 -0.01131,-1.27393 -0.0453,-1.76941 h 1.206018 l 0.04525,1.04755 h 0.0453 c 0.270376,-0.77718 0.912997,-1.17205 1.499028,-1.17205 a 1.4562725,1.4562725 0 0 1 0.326971,0.034 v 1.30787 a 1.9278633,1.9278633 0 0 0 -0.406199,-0.0452 c -0.665255,0 -1.115468,0.42884 -1.239969,1.04883 a 2.3893936,2.3893936 0 0 0 -0.0453,0.42883 v 2.8396 h -1.383336 v -3.71991 z"
       class="cls-1"
       inkscape:connector-curvature="0" />
    <path
       style="fill:#000002;fill-opacity:1;stroke:#0000ff;stroke-width:0.12575756;stroke-opacity:1"
       id="path929"
       d="m 70.269781,118.90803 v 6.45766 c 0,0.56339 0.02263,1.17206 0.04525,1.5443 h -1.239969 l -0.05659,-0.86773 h -0.02263 c -0.326971,0.60867 -0.99223,0.99222 -1.792049,0.99222 -1.307875,0 -2.344118,-1.11546 -2.344118,-2.8069 -0.01132,-1.83732 1.138106,-2.93015 2.457303,-2.93015 0.754545,0 1.296558,0.31565 1.544301,0.72185 h 0.02263 v -3.11125 h 1.383335 z m -1.383334,4.80143 a 1.9567876,1.9567876 0 0 0 -0.03393,-0.36093 1.214818,1.214818 0 0 0 -1.194696,-0.9809 c -0.890364,0 -1.383329,0.7885 -1.383329,1.81468 0,1.00606 0.49548,1.73546 1.374526,1.73546 a 1.2223634,1.2223634 0 0 0 1.194696,-0.98091 1.5468179,1.5468179 0 0 0 0.0453,-0.40621 v -0.82119 z"
       class="cls-1"
       inkscape:connector-curvature="0" />
    <path
       style="fill:#000002;fill-opacity:1;stroke:#0000ff;stroke-width:0.12575756;stroke-opacity:1"
       id="path931"
       d="m 71.434295,125.63607 a 3.0923783,3.0923783 0 0 0 1.408489,0.39487 c 0.608664,0 0.880298,-0.25151 0.880298,-0.60866 0,-0.35716 -0.225101,-0.5634 -0.901679,-0.79982 -1.070199,-0.37728 -1.521666,-0.95828 -1.50909,-1.60089 0,-0.9696 0.799819,-1.72414 2.073739,-1.72414 a 3.2231662,3.2231662 0 0 1 1.453762,0.32697 l -0.270383,0.98091 a 2.4648481,2.4648481 0 0 0 -1.160738,-0.31565 c -0.495492,0 -0.765866,0.23642 -0.765866,0.57471 0,0.33829 0.259058,0.51812 0.958269,0.76586 0.992235,0.36092 1.453762,0.86773 1.465078,1.67887 0,0.99222 -0.777183,1.71282 -2.230937,1.71282 a 3.5413327,3.5413327 0 0 1 -1.667544,-0.37728 z"
       class="cls-1"
       inkscape:connector-curvature="0" />
    <path
       style="fill:#000002;fill-opacity:1;stroke:#0000ff;stroke-width:0.12575756;stroke-opacity:1"
       id="path933"
       d="m 58.815784,93.562859 c -1.936665,-1.670064 -4.484514,-2.71888 -7.571863,-3.115016 l -0.998514,-0.404939 9.14886,-11.492984 h -8.584209 l -7.353044,9.334984 c -0.597349,0.735681 -1.148167,1.576999 -1.653712,2.248545 1.822227,0.628787 3.447014,1.707785 4.856757,3.102438 a 13.171846,13.171846 0 0 1 2.620787,3.800396 c 0.147137,-0.01129 0.295531,0 0.44644,0 1.412257,0 2.653484,0.525664 3.687211,1.54556 a 5.2340295,5.2340295 0 0 1 -3.244545,8.909927 16.318301,16.318301 0 0 1 -1.177091,3.25209 28.949389,28.949389 0 0 1 -2.323999,3.77272 14.210604,14.210604 0 0 0 2.907515,0.29679 c 3.615529,0 6.641256,-1.14439 8.991664,-3.39545 2.452275,-2.43467 3.709848,-5.73203 3.709848,-9.80909 0,-3.392945 -1.131818,-6.025049 -3.462105,-8.045971 z"
       class="cls-2"
       inkscape:connector-curvature="0" />
    <path
       style="fill:#000002;fill-opacity:1;stroke:#0000ff;stroke-width:0.12575756;stroke-opacity:1"
       id="path935"
       d="m 41.024863,103.16067 c 0,-1.11673 -0.402425,-2.0599 -1.231167,-2.88488 a 3.9487872,3.9487872 0 0 0 -2.443469,-1.20224 14.543861,14.543861 0 0 0 -0.242712,2.63211 c 0,1.99577 0.30559,3.80291 0.911742,5.40758 a 4.0669994,4.0669994 0 0 0 1.773182,-1.07272 c 0.824969,-0.81994 1.232424,-1.76312 1.232424,-2.87985 z"
       class="cls-2"
       inkscape:connector-curvature="0" />
    <path
       style="fill:#000002;fill-opacity:1;stroke:#0000ff;stroke-width:0.12575756;stroke-opacity:1"
       id="path937"
       d="m 45.871558,94.097329 c -2.322741,-2.297592 -5.294393,-3.464622 -8.829437,-3.464622 -3.614272,0 -6.639999,1.154455 -8.990408,3.433183 -2.462333,2.399448 -3.711105,5.68172 -3.711105,9.75124 0,3.41181 1.131818,6.03636 3.455818,8.02962 1.937923,1.67006 4.487029,2.71762 7.574377,3.1125 l 0.997257,0.12575 -0.453984,1.19219 -8.696135,11.31818 h 8.587983 l 7.356817,-9.68333 c 2.302621,-2.83583 3.927409,-5.51699 4.831605,-7.34928 a 15.416619,15.416619 0 0 0 1.524182,-6.66515 c -0.0063,-3.968905 -1.231166,-7.373164 -3.64697,-9.800281 z m -5.294393,12.740501 c -1.034983,1.02995 -2.276211,1.5531 -3.689726,1.5531 a 5.075575,5.075575 0 0 1 -3.689726,-1.5531 c -1.034985,-1.03122 -1.559394,-2.26364 -1.559394,-3.67716 0,-1.41351 0.524409,-2.64091 1.559394,-3.677147 a 5.1560597,5.1560597 0 0 1 7.379452,0 c 1.034985,1.031217 1.560652,2.263637 1.560652,3.677147 0,1.41352 -0.524409,2.64594 -1.560652,3.67716 z"
       class="cls-1"
       inkscape:connector-curvature="0" />
  </g>
  <path
     inkscape:connector-curvature="0"
     id="DZone"
     class="cls-3"
     d="m 116.14974,110.6152 a 1.6256199,1.6262479 0 0 0 -1.57366,1.23808 l -7.19341,-2.38214 a 0.9197775,0.92013281 0 1 0 -1.83953,0.009 0.93966475,0.94002774 0 0 0 0.24873,0.62926 l -7.598566,8.69526 a 1.0596101,1.0600195 0 0 0 -0.28908,-0.0553 0.86559702,0.8659314 0 0 0 0,1.7313 0.8545421,0.8548722 0 0 0 0.76499,-0.48162 l 6.901566,1.65887 a 1.560949,1.5615519 0 0 0 -0.031,0.31961 1.5219805,1.5225685 0 1 0 3.04396,0 1.6648648,1.6655079 0 0 0 -0.0613,-0.45619 l 5.28146,-2.18584 a 0.78655461,0.78685845 0 0 0 0.58591,0.25381 0.8291159,0.82943619 0 0 0 0.81585,-0.84326 0.84348725,0.84381309 0 0 0 -0.33164,-0.66853 l 0.8667,-4.23233 a 1.4559276,1.45649 0 0 0 0.40737,0.0553 1.642755,1.6433896 0 0 0 0.002,-3.28512 z m -9.14183,-0.38706 3.23797,3.96137 -3.29048,1.33484 -0.2012,-5.16185 a 1.0789562,1.079373 0 0 0 0.25371,-0.13326 z m -0.54666,0.18303 0.20285,5.23318 -1.50014,0.60825 a 1.0231291,1.0235243 0 0 0 -0.2703,-0.31352 l 1.26634,-5.58487 a 1.1447327,1.1451749 0 0 0 0.3018,0.058 z m -1.19172,6.28435 a 0.97117112,0.97154628 0 0 0 -0.0127,-0.17474 l 1.41889,-0.57451 0.17854,4.4972 a 1.7234556,1.7241214 0 0 0 -0.36426,0.0995 l -1.50567,-3.17785 a 0.93082083,0.9311804 0 0 0 0.28521,-0.66963 z m 2.72724,4.05429 a 1.5476831,1.548281 0 0 0 -0.84791,-0.32293 l -0.17909,-4.59895 3.46349,-1.40783 1.5709,1.91545 z m 2.65317,-6.41818 3.94659,-1.60358 a 1.6814471,1.6820966 0 0 0 0.241,0.48771 l -2.6891,2.95777 z m 3.888,-1.88337 -4.08588,1.65555 -3.28441,-4.02663 a 0.92308241,0.92343899 0 0 0 0.18904,-0.38431 l 7.17959,2.37772 c 0,0.0614 -0.005,0.12331 -0.005,0.1858 0,0.0625 5.5e-4,0.13104 0.004,0.19242 z m -8.58301,-2.19635 a 0.01216037,0.01216507 0 0 0 0.009,0 l -1.26578,5.57768 a 0.91976591,0.92012121 0 0 0 -1.23207,1.11034 l -4.995136,2.02659 a 0.61299303,0.61322983 0 0 0 -0.0801,-0.0614 z m -7.212196,9.54239 a 1.0386059,1.0390071 0 0 0 0.0188,-0.17971 0.8291159,0.82943619 0 0 0 -0.11055,-0.41085 l 4.927156,-2.00171 a 0.93966475,0.94002774 0 0 0 0.76832,0.42412 0.96509088,0.96546369 0 0 0 0.45601,-0.12497 l 1.48743,3.1419 a 1.5692401,1.5698463 0 0 0 -0.65887,0.79626 z m 9.698996,1.52173 a 1.9976166,1.9983883 0 0 0 -0.28467,-0.41361 l 3.98639,-4.39158 1.51452,1.8524 a 0.86062235,0.8609548 0 0 0 -0.0973,0.38707 0.87831012,0.87864941 0 0 0 0.10281,0.41638 z m 6.23329,-3.34152 a 0.76278667,0.76308133 0 0 0 -0.28577,-0.0553 0.8291159,0.82943619 0 0 0 -0.60194,0.26265 l -1.49793,-1.83415 2.68744,-2.95502 a 1.5863751,1.586988 0 0 0 0.55274,0.39206 z"
     style="fill:none;stroke:#0000ff;stroke-width:0.07445378;stroke-miterlimit:4;stroke-dasharray:none;stroke-opacity:1" />
  <path
     inkscape:connector-curvature="0"
     d="m 33.836566,110.12839 h 2.583073 a 0.95786276,0.95823278 0 0 0 0.956936,-0.9573 v -2.01953 a 0.95786276,0.95823278 0 0 0 -0.957863,-0.95731 H 23.511696 a 0.95786276,0.95823278 0 0 0 -0.956935,0.95824 v 2.0186 a 0.95786276,0.95823278 0 0 0 0.956935,0.9573 h 5.504926 v 0.47726 h -5.504926 a 0.95786276,0.95823278 0 0 0 -0.956935,0.95824 v 2.0186 a 0.95786276,0.95823278 0 0 0 0.956935,0.9573 h 5.504926 v 0.47726 h -5.503998 a 0.95786276,0.95823278 0 0 0 -0.956934,0.95731 v 2.0186 a 0.95786276,0.95823278 0 0 0 0.956934,0.95731 h 5.504927 v 1.02137 a 1.9407859,1.9415356 0 0 0 -0.945797,0.82917 h -5.072403 a 0.43530779,0.43547595 0 0 0 -0.435308,0.43547 v 1.03994 a 0.43530779,0.43547595 0 0 0 0.435308,0.43548 h 5.072403 a 1.9268636,1.9276079 0 0 0 3.346951,0 h 5.518849 a 0.43530779,0.43547595 0 0 0 0.435308,-0.43548 v -1.04087 a 0.43530779,0.43547595 0 0 0 -0.435308,-0.43547 h -5.514208 a 1.9407859,1.9415356 0 0 0 -0.88361,-0.80224 v -1.04923 h 5.879903 a 0.95786276,0.95823278 0 0 0 0.956936,-0.95731 v -2.0186 a 0.95786276,0.95823278 0 0 0 -0.956936,-0.9573 h -5.879903 v -0.47726 h 5.879903 a 0.95786276,0.95823278 0 0 0 0.956936,-0.95731 v -2.0186 a 0.95786276,0.95823278 0 0 0 -0.956936,-0.9573 h -5.879903 v -0.47634 z m 2.669393,-2.9759 v 2.01767 a 0.08724719,0.08728089 0 0 1 -0.08725,0.0873 h -2.146835 v -2.19223 h 2.147765 a 0.08724719,0.08728089 0 0 1 0.08632,0.0864 z m 0,8.82094 v 2.0186 a 0.08724719,0.08728089 0 0 1 -0.08725,0.0873 h -2.146835 v -2.19316 h 2.147765 a 0.08724719,0.08728089 0 0 1 0.08725,0.0873 z m 0,-4.41047 v 2.0186 a 0.08724719,0.08728089 0 0 1 -0.08725,0.0873 h -2.146835 v -2.19316 h 2.147765 a 0.08724719,0.08728089 0 0 1 0.08632,0.0873 z"
     id="path7468"
     style="fill:#000000;fill-opacity:1;stroke:#0000ff;stroke-width:0.11026243;stroke-opacity:1" />
  <path
     inkscape:connector-curvature="0"
     d="m 76.358341,122.43985 a 0.46030486,0.46048267 0 0 1 -0.459787,0.46101 h -1.381432 l -11.666581,0.014 H 61.46911 a 0.46056374,0.46074166 0 1 1 0,-0.92148 h 0.921127 l -0.0093,-6.38461 -0.603211,0.42889 a 0.46030486,0.46048267 0 0 1 -0.72489,-0.37502 v -1.22865 a 0.46185819,0.4620366 0 0 1 0.193649,-0.37605 l 7.151553,-5.08913 a 0.46082263,0.46100064 0 0 1 0.532795,0 l 7.17019,5.07202 a 0.46082263,0.46100064 0 0 1 0.194685,0.37553 v 1.22865 a 0.46082263,0.46100064 0 0 1 -0.72489,0.37658 l -0.603729,-0.42785 0.0068,6.38719 h 0.921128 a 0.46030486,0.46048267 0 0 1 0.463411,0.45892 z m -2.303077,-0.45789 -0.0083,-6.93418 a 0.44943151,0.44960513 0 0 1 0.01035,-0.0963 l -5.388001,-3.81335 -5.378681,3.82371 a 0.45460929,0.4547849 0 0 1 0.01035,0.0964 l 0.0083,6.93624 z m -7.611341,-2.88462 h 1.083193 v 1.08361 h -1.083193 z m 2.164831,-1.0603 h 1.057303 v -1.08361 h -1.083192 v 1.05771 h -1.057303 v 1.08361 h 1.083192 z m -1.111152,-2.16567 h 1.083192 v 1.08361 h -1.083192 z m -2.137907,2.14392 h 1.083192 v 1.08361 h -1.083192 z m 3.237668,1.09241 h 1.083192 v 1.08361 h -1.083192 z m 2.166901,0.83291 h 1.083193 v 1.08361 H 70.764264 Z M 69.67693,118.0101 h 1.083193 v 1.08361 H 69.67693 Z m 1.367453,-1.37109 h 1.083192 v 1.08362 h -1.083192 z m -1.06507,-1.99681 h 1.083192 v 1.08362 h -1.083192 z"
     id="path8121"
     style="fill:#000000;fill-opacity:1;stroke:#0000ff;stroke-width:0.06151029;stroke-opacity:1" />
</svg>
