<?xml version="1.0" encoding="UTF-8" standalone="no"?>
<svg
   xmlns:dc="http://purl.org/dc/elements/1.1/"
   xmlns:cc="http://creativecommons.org/ns#"
   xmlns:rdf="http://www.w3.org/1999/02/22-rdf-syntax-ns#"
   xmlns:svg="http://www.w3.org/2000/svg"
   xmlns="http://www.w3.org/2000/svg"
   xmlns:sodipodi="http://sodipodi.sourceforge.net/DTD/sodipodi-0.dtd"
   xmlns:inkscape="http://www.inkscape.org/namespaces/inkscape"
   height="136.26454mm"
   version="1.1"
   viewBox="0 0 90.319465 136.26454"
   width="90.319466mm"
   id="svg78"
   sodipodi:docname="iot96_carbon-stag.svg"
   inkscape:version="0.92.1 r">
  <metadata
     id="metadata82">
    <rdf:RDF>
      <cc:Work
         rdf:about="">
        <dc:format>image/svg+xml</dc:format>
        <dc:type
           rdf:resource="http://purl.org/dc/dcmitype/StillImage" />
        <dc:title />
      </cc:Work>
    </rdf:RDF>
  </metadata>
  <sodipodi:namedview
     pagecolor="#ffffff"
     bordercolor="#666666"
     borderopacity="1"
     objecttolerance="10"
     gridtolerance="10"
     guidetolerance="10"
     inkscape:pageopacity="0"
     inkscape:pageshadow="2"
     inkscape:window-width="3200"
     inkscape:window-height="1671"
     id="namedview80"
     showgrid="false"
     inkscape:zoom="9.9906664"
     inkscape:cx="111.51761"
     inkscape:cy="206.33266"
     inkscape:window-x="0"
     inkscape:window-y="55"
     inkscape:window-maximized="1"
     inkscape:current-layer="svg78"
     fit-margin-top="0"
     fit-margin-left="0"
     fit-margin-right="0"
     fit-margin-bottom="0" />
  <defs
     id="defs2" />
  <circle
     id="circle8"
     r="1.25"
     cy="-107.16454"
     cx="10.922371"
     style="fill:none;stroke:#ff0000;stroke-width:0.2;stroke-miterlimit:4;stroke-dasharray:none"
     transform="scale(1,-1)" />
  <path
     id="path4"
     d="m 3.9223671,133.16455 a 3,3 0 0 0 3,3 H 66.922368 a 3,3 0 0 0 3,-3 v -30 a 3,3 0 0 0 -3,-3 h -24 a 16,16 0 0 1 -20,0 H 6.9223671 a 3,3 0 0 0 -3,3 z"
     inkscape:connector-curvature="0"
     style="fill:none;stroke:#ff0000;stroke-width:0.2;stroke-miterlimit:4;stroke-dasharray:none" />
  <circle
     id="circle6"
     r="1.25"
     cy="-129.16455"
     cx="10.922371"
     style="fill:none;stroke:#ff0000;stroke-width:0.2;stroke-miterlimit:4;stroke-dasharray:none"
     transform="scale(1,-1)" />
  <circle
     id="circle10"
     r="1.25"
     cy="-129.16455"
     cx="62.922367"
     style="fill:none;stroke:#ff0000;stroke-width:0.2;stroke-miterlimit:4;stroke-dasharray:none"
     transform="scale(1,-1)" />
  <circle
     id="circle12"
     r="1.25"
     cy="-107.16454"
     cx="62.922367"
     style="fill:none;stroke:#ff0000;stroke-width:0.2;stroke-miterlimit:4;stroke-dasharray:none"
     transform="scale(1,-1)" />
  <path
     id="path16"
     d="m 69.922368,95.164547 a 3,3 0 0 1 -3,3 H 6.9223671 a 3,3 0 0 1 -3,-3 v -30 a 3,3 0 0 1 3,-3 H 30.922368 a 16,16 0 0 0 20,0 h 16 a 3,3 0 0 1 3,3 z"
     inkscape:connector-curvature="0"
     style="fill:none;stroke:#ff0000;stroke-width:0.2;stroke-miterlimit:4;stroke-dasharray:none" />
  <circle
     id="circle18"
     r="1.25"
     cy="-91.164543"
     cx="-62.922363"
     style="fill:none;stroke:#ff0000;stroke-width:0.2;stroke-miterlimit:4;stroke-dasharray:none"
     transform="scale(-1)" />
  <circle
     id="circle20"
     r="1.25"
     cy="-69.164543"
     cx="-62.922363"
     style="fill:none;stroke:#ff0000;stroke-width:0.2;stroke-miterlimit:4;stroke-dasharray:none"
     transform="scale(-1)" />
  <circle
     id="circle22"
     r="1.25"
     cy="-91.164543"
     cx="-10.922366"
     style="fill:none;stroke:#ff0000;stroke-width:0.2;stroke-miterlimit:4;stroke-dasharray:none"
     transform="scale(-1)" />
  <circle
     id="circle24"
     r="1.25"
     cy="-69.164543"
     cx="-10.922366"
     style="fill:none;stroke:#ff0000;stroke-width:0.2;stroke-miterlimit:4;stroke-dasharray:none"
     transform="scale(-1)" />
  <rect
     id="rect26"
     y="-94.81514"
     x="-59.422962"
     width="40.99802"
     ry="0"
     rx="0"
     height="7.3011971"
     style="fill:none;stroke:#ff0000;stroke-width:0.19880302;stroke-miterlimit:4;stroke-dasharray:none"
     transform="scale(-1)" />
  <path
     id="path30"
     d="m 66.219472,57.100001 a 3,3 0 0 1 -3,3 H 3.2194718 a 3,3 0 0 1 -2.99999995,-3 v -30 a 3,3 0 0 1 2.99999995,-3 h 4 a 3,3 0 0 1 3.0000002,3 v 4 a 3,3 0 0 1 -3.0000002,3 h -4 v 16 h 4 a 3,3 0 0 1 3.0000002,3 v 4 h 46 v -4 a 3,3 0 0 1 3,-3 h 4 a 3,3 0 0 1 3,3 z"
     inkscape:connector-curvature="0"
     style="fill:none;stroke:#ff0000;stroke-width:0.2;stroke-miterlimit:4;stroke-dasharray:none" />
  <circle
     id="circle32"
     r="1.25"
     cy="-53.099998"
     cx="-59.219471"
     style="fill:none;stroke:#ff0000;stroke-width:0.2;stroke-miterlimit:4;stroke-dasharray:none"
     transform="scale(-1)" />
  <circle
     id="circle34"
     r="1.25"
     cy="-53.099998"
     cx="-7.2194705"
     style="fill:none;stroke:#ff0000;stroke-width:0.2;stroke-miterlimit:4;stroke-dasharray:none"
     transform="scale(-1)" />
  <circle
     id="circle36"
     r="1.25"
     cy="-31.1"
     cx="-7.2194705"
     style="fill:none;stroke:#ff0000;stroke-width:0.2;stroke-miterlimit:4;stroke-dasharray:none"
     transform="scale(-1)" />
  <path
     id="path40"
     d="m 78.219472,45.100001 a 3,3 0 0 1 -3,3 h -60 a 3,3 0 0 1 -3,-3 v -30 a 3,3 0 0 1 3,-3 h 4 a 3,3 0 0 1 3,3 v 4 a 3,3 0 0 1 -3,3 h -4 v 16 h 4 a 3,3 0 0 1 3,3 v 4 h 46 v -4 a 3,3 0 0 1 3,-3 h 4 a 3,3 0 0 1 3,3 z"
     inkscape:connector-curvature="0"
     style="fill:none;stroke:#ff0000;stroke-width:0.2;stroke-miterlimit:4;stroke-dasharray:none" />
  <circle
     id="circle42"
     r="1.25"
     cy="-41.100002"
     cx="-71.219475"
     style="fill:none;stroke:#ff0000;stroke-width:0.2;stroke-miterlimit:4;stroke-dasharray:none"
     transform="scale(-1)" />
  <circle
     id="circle44"
     r="1.25"
     cy="-41.100002"
     cx="-19.219469"
     style="fill:none;stroke:#ff0000;stroke-width:0.2;stroke-miterlimit:4;stroke-dasharray:none"
     transform="scale(-1)" />
  <circle
     id="circle46"
     r="1.25"
     cy="-19.100002"
     cx="-19.219469"
     style="fill:none;stroke:#ff0000;stroke-width:0.2;stroke-miterlimit:4;stroke-dasharray:none"
     transform="scale(-1)" />
  <path
     id="path50"
     d="m 90.219472,33.100001 a 3,3 0 0 1 -3,3 h -60 a 3,3 0 0 1 -3,-3 V 3.1000005 a 3,3 0 0 1 3,-3.0000005 h 4 a 3,3 0 0 1 3,3.0000005 v 4 a 3,3 0 0 1 -3,3.0000005 h -4 v 16 h 4 a 3,3 0 0 1 3,3 v 4 h 46 v -4 a 3,3 0 0 1 3,-3 h 4 a 3,3 0 0 1 3,3 z"
     inkscape:connector-curvature="0"
     style="fill:none;stroke:#ff0000;stroke-width:0.2;stroke-miterlimit:4;stroke-dasharray:none" />
  <circle
     id="circle52"
     r="1.25"
     cy="-29.100002"
     cx="-83.219475"
     style="fill:none;stroke:#ff0000;stroke-width:0.2;stroke-miterlimit:4;stroke-dasharray:none"
     transform="scale(-1)" />
  <circle
     id="circle54"
     r="1.25"
     cy="-29.100002"
     cx="-31.219469"
     style="fill:none;stroke:#ff0000;stroke-width:0.2;stroke-miterlimit:4;stroke-dasharray:none"
     transform="scale(-1)" />
  <circle
     id="circle56"
     r="1.25"
     cy="-7.0999985"
     cx="-31.219469"
     style="fill:none;stroke:#ff0000;stroke-width:0.2;stroke-miterlimit:4;stroke-dasharray:none"
     transform="scale(-1)" />
  <path
     id="path60"
     d="m 43.219472,31.100007 a 3,3 0 0 0 3,-3 v -4 a 3,3 0 0 0 -3,-3 h -4 a 3,3 0 0 0 -3,3 v 4 a 3,3 0 0 0 3,3 z"
     inkscape:connector-curvature="0"
     style="fill:none;stroke:#ff0000;stroke-width:0.2;stroke-miterlimit:4;stroke-dasharray:none" />
  <circle
     id="circle62"
     r="1.25"
     cy="23.600006"
     cx="-39.219471"
     style="fill:none;stroke:#ff0000;stroke-width:0.2;stroke-miterlimit:4;stroke-dasharray:none"
     transform="scale(-1,1)" />
  <path
     id="path66"
     d="m 55.219472,31.100007 a 3,3 0 0 0 3,-3 v -4 a 3,3 0 0 0 -3,-3 h -4 a 3,3 0 0 0 -3,3 v 4 a 3,3 0 0 0 3,3 z"
     inkscape:connector-curvature="0"
     style="fill:none;stroke:#ff0000;stroke-width:0.2;stroke-miterlimit:4;stroke-dasharray:none" />
  <circle
     id="circle68"
     r="1.25"
     cy="23.600006"
     cx="-51.219471"
     style="fill:none;stroke:#ff0000;stroke-width:0.2;stroke-miterlimit:4;stroke-dasharray:none"
     transform="scale(-1,1)" />
  <path
     id="path72"
     d="m 67.219472,31.100007 a 3,3 0 0 0 3,-3 v -4 a 3,3 0 0 0 -3,-3 h -4 a 3,3 0 0 0 -3,3 v 4 a 3,3 0 0 0 3,3 z"
     inkscape:connector-curvature="0"
     style="fill:none;stroke:#ff0000;stroke-width:0.2;stroke-miterlimit:4;stroke-dasharray:none" />
  <circle
     id="circle74"
     r="1.25"
     cy="23.600006"
     cx="-63.219471"
     style="fill:none;stroke:#ff0000;stroke-width:0.2;stroke-miterlimit:4;stroke-dasharray:none"
     transform="scale(-1,1)" />
  <path
     style="fill:none;fill-rule:evenodd;stroke:#0000ff;stroke-width:0.2;stroke-linecap:butt;stroke-linejoin:miter;stroke-miterlimit:4;stroke-dasharray:none;stroke-opacity:1"
     d="m 36.934579,87.677257 c 5.452097,-4.77763 8.009789,-5.74773 11.85699,-6.47607 2.31641,-0.43853 2.760791,-1.6111 5.064496,-1.56944 l 2.425734,0.30362"
     id="path5551"
     inkscape:connector-curvature="0"
     sodipodi:nodetypes="cscc" />
  <path
     style="fill:none;fill-rule:evenodd;stroke:#0000ff;stroke-width:0.2;stroke-linecap:butt;stroke-linejoin:miter;stroke-miterlimit:4;stroke-dasharray:none;stroke-opacity:1"
     d="m 44.740119,87.531587 c 3.073268,-1.85208 3.461042,-2.81473 5.703923,-3.49511 1.950341,-1.42876 1.89991,0.0893 3.732051,-2.71528 1.767504,-1.60617 1.664934,-0.92608 3.142467,-1.98442 2.507266,-1.33227 -0.02488,-0.36903 3.711501,-1.93353 2.224203,-0.0179 3.777801,-0.26981 5.255333,0.62977 1.477531,0.89958 0.07927,-0.016 1.434099,0.97584 0.838408,0.74023 1.188081,1.156352 1.60846,1.565352"
     id="path5553"
     inkscape:connector-curvature="0"
     sodipodi:nodetypes="cccccscc" />
  <path
     inkscape:connector-curvature="0"
     style="fill:none;fill-opacity:1;stroke:#0000ff;stroke-width:0.2;stroke-miterlimit:4;stroke-dasharray:none;stroke-opacity:1"
     d="m 61.733724,77.289357 c -0.04856,-0.0142 -0.202989,-0.0896 -0.263721,-0.12931 -0.04422,-0.0288 -0.0513,-0.0405 -0.04734,-0.0776 0.0058,-0.0536 -0.01952,-0.038 -0.03258,0.0204 l -0.0091,0.0407 -0.02575,-0.0644 c -0.02527,-0.0631 -0.02511,-0.0675 0.0078,-0.22823 0.126144,-0.61652 0.164891,-0.86473 0.135508,-0.86786 -0.0076,-8.1e-4 -0.01208,-0.0168 -0.01005,-0.0358 0.0062,-0.0583 0.131755,-0.15281 0.40392,-0.30413 0.06287,-0.0349 0.101032,-0.11482 0.131933,-0.27614 0.03226,-0.16843 0.06316,-0.24721 0.120872,-0.30816 l 0.03907,-0.0413 -0.07008,-0.0889 c -0.123797,-0.15707 -0.157174,-0.28133 -0.14531,-0.54106 0.0069,-0.15104 0.03165,-0.19904 0.124935,-0.24227 0.03403,-0.0158 0.08241,-0.0519 0.107512,-0.0803 0.04272,-0.0483 0.146827,-0.11145 0.247148,-0.14985 0.0841,-0.0321 0.332816,-0.0838 0.491269,-0.10189 0.397061,-0.0453 0.783704,-0.0497 1.131103,-0.0124 0.256754,0.0276 0.397455,0.0564 0.641783,0.13202 l 0.178014,0.055 0.192752,-0.0171 c 0.166996,-0.0149 0.213731,-0.0138 0.349765,0.007 0.08639,0.0132 0.222057,0.0421 0.301563,0.0634 0.177664,0.0475 0.23714,0.0461 0.383367,-0.009 0.267339,-0.10048 0.520562,-0.31526 0.61652,-0.52292 l 0.0303,-0.0655 -0.133877,-0.0673 c -0.165826,-0.0833 -0.223749,-0.13248 -0.277934,-0.23582 -0.05237,-0.0999 -0.05943,-0.1426 -0.02909,-0.17592 0.02005,-0.0219 0.03787,-0.0235 0.137208,-0.0116 0.103359,0.0118 0.179041,0.0384 0.280532,0.0965 0.01723,0.009 0.02068,0.005 0.01827,-0.0237 -0.0038,-0.0466 0.0099,-0.0445 0.144601,0.0214 0.131067,0.0643 0.148074,0.0675 0.112499,0.0201 -0.01769,-0.0233 -0.04977,-0.0419 -0.09054,-0.0523 -0.679358,-0.17295 -1.194454,-0.44342 -1.355454,-0.71184 -0.0708,-0.11806 -0.134958,-0.31721 -0.133408,-0.41412 0.0014,-0.0876 0.0396,-0.18398 0.08473,-0.21381 0.02187,-0.0145 0.02211,-0.006 0.0031,0.0936 -0.01527,0.0798 -0.01688,0.11654 -0.0059,0.13546 0.01401,0.0242 0.01937,0.0236 0.07887,-0.0105 0.03512,-0.0202 0.06575,-0.0342 0.06811,-0.0314 0.0023,0.003 -0.01063,0.0307 -0.02873,0.0619 -0.04046,0.0696 -0.05485,0.17939 -0.02786,0.21282 0.02668,0.033 0.03123,0.032 0.08862,-0.0208 0.04858,-0.0447 0.0497,-0.045 0.02626,-0.008 -0.03666,0.0591 -0.05382,0.12832 -0.04251,0.17141 0.03614,0.13757 0.30243,0.3381 0.657046,0.49478 0.187226,0.0827 0.259883,0.0984 0.120074,0.0258 -0.197573,-0.10249 -0.304819,-0.18911 -0.440113,-0.35569 -0.110059,-0.13548 -0.129593,-0.16859 -0.179706,-0.30466 -0.06406,-0.17392 -0.08603,-0.33413 -0.07622,-0.5556 0.0062,-0.14176 0.02754,-0.22291 0.07087,-0.27049 0.0202,-0.0221 0.02056,-0.0128 0.0031,0.0858 -0.01076,0.0609 -0.01767,0.13431 -0.01543,0.16313 l 0.0042,0.0524 0.07207,-0.001 c 0.03965,-6.6e-4 0.102541,-0.0124 0.139756,-0.0258 0.05519,-0.0199 0.065,-0.0205 0.05318,-0.004 -0.008,0.0116 -0.02497,0.0283 -0.03776,0.0368 -0.0128,0.009 -0.02415,0.0241 -0.02528,0.0346 -0.0016,0.0156 0.02163,0.0202 0.125782,0.0246 0.113592,0.005 0.132442,0.009 0.169423,0.0384 0.05159,0.0409 0.05266,0.067 0.0019,0.0469 -0.102054,-0.0405 -0.295292,-0.0186 -0.362082,0.0411 -0.03515,0.0314 -0.07752,0.21539 -0.06401,0.27802 0.01498,0.0694 0.09169,0.21457 0.15222,0.28792 0.138765,0.16813 0.436107,0.36351 0.665322,0.43716 0.08293,0.0267 0.194274,0.0725 0.247427,0.10172 0.122431,0.0675 0.166185,0.0718 0.270254,0.0268 l 0.08348,-0.0363 0.233334,0.0249 c 0.136289,0.0146 0.275518,0.0375 0.334819,0.0546 0.06915,0.0203 0.11706,0.0272 0.150343,0.0221 0.02687,-0.004 0.0631,-0.002 0.08059,0.003 0.02539,0.009 0.01159,0.0157 -0.07037,0.0328 -0.112862,0.0234 -0.190215,0.014 -0.436171,-0.0536 -0.137399,-0.0378 -0.212377,-0.0374 -0.333293,10e-4 -0.0556,0.0178 -0.06326,0.0248 -0.05779,0.0524 0.0034,0.0176 0.0065,0.0435 0.0068,0.0574 3.49e-4,0.0146 0.02289,0.0384 0.0528,0.0559 0.02872,0.0168 0.07148,0.0508 0.09501,0.076 0.08119,0.0865 0.208365,0.18843 0.319474,0.25613 0.06129,0.0374 0.139684,0.0929 0.174204,0.12361 0.03452,0.0307 0.124202,0.0946 0.199297,0.14211 0.0751,0.0475 0.149967,0.1028 0.166394,0.12281 0.02617,0.0318 0.0274,0.0405 0.01,0.0701 -0.01217,0.0206 -0.04648,0.0422 -0.08827,0.0555 -0.06006,0.0192 -0.106906,0.0189 -0.385138,-0.001 -0.420238,-0.0314 -0.448723,-0.0229 -0.465927,0.13812 -0.0088,0.083 -0.07484,0.24083 -0.163675,0.39153 -0.103144,0.17497 -0.257536,0.2987 -0.405707,0.32513 -0.107795,0.0193 -0.194215,0.0949 -0.22138,0.19393 -0.02479,0.0904 -0.06473,0.15434 -0.151773,0.24315 l -0.06481,0.0661 0.03975,0.0763 c 0.02186,0.042 0.06469,0.0994 0.09516,0.12761 0.112619,0.10405 0.389189,0.32474 0.449826,0.35892 0.08175,0.046 0.116758,0.10812 0.106642,0.18892 -0.0098,0.0771 -0.24865,0.7194 -0.319337,0.85815 -0.06565,0.12888 -0.136698,0.2127 -0.198764,0.23455 -0.08163,0.0288 -0.09652,0.009 -0.07549,-0.10035 0.01898,-0.0985 0.03785,-0.13293 0.120465,-0.21945 0.107712,-0.11278 0.110674,-0.118 0.124265,-0.21909 0.01306,-0.0969 0.02123,-0.11584 0.122678,-0.28365 0.09771,-0.16164 0.08775,-0.28684 -0.02843,-0.35679 -0.04586,-0.0277 -0.302465,-0.19374 -0.64272,-0.4161 -0.122454,-0.08 -0.223819,-0.11713 -0.262742,-0.0964 -0.02512,0.0134 -0.07241,0.17347 -0.125171,0.42359 -0.06368,0.30184 -0.105755,0.43858 -0.161183,0.52371 -0.06915,0.10623 -0.10061,0.19949 -0.131902,0.39096 -0.02473,0.15139 -0.02544,0.17879 -0.0075,0.27278 0.03556,0.18643 0.06503,0.2345 0.16595,0.27072 0.01836,0.006 0.05483,0.0339 0.08098,0.0607 0.04634,0.0476 0.04686,0.0495 0.01989,0.0738 -0.02515,0.0226 -0.03867,0.023 -0.148853,0.003 -0.06664,-0.0121 -0.128889,-0.0295 -0.138282,-0.0392 -0.01535,-0.0158 -0.06615,-0.14933 -0.08457,-0.22237 -0.007,-0.0277 -0.0077,-0.0277 -0.02234,3.9e-4 -0.04291,0.0835 -0.06189,-0.0259 -0.02844,-0.16397 0.02885,-0.1191 0.09339,-0.78274 0.09237,-0.95018 -5.8e-4,-0.0725 -0.0097,-0.19127 -0.02062,-0.26374 -0.02276,-0.15112 -0.01137,-0.3107 0.02898,-0.40645 0.01435,-0.0341 0.02368,-0.0622 0.02076,-0.0624 -0.0029,-3.1e-4 -0.09845,0.008 -0.212286,0.0182 -0.276053,0.0249 -0.500823,0.0278 -0.81693,0.0106 -0.48065,-0.0262 -0.819639,-0.0765 -0.921234,-0.13634 -0.02578,-0.0152 -0.05071,-0.0285 -0.05537,-0.0294 -0.01098,-0.002 -0.322999,0.31608 -0.399272,0.40742 -0.120049,0.14376 -0.188687,0.34502 -0.15768,0.46235 0.02863,0.10836 0.121205,0.19371 0.428339,0.395 0.31922,0.20921 0.358432,0.24894 0.406815,0.41223 0.01784,0.0602 0.03085,0.12424 0.02893,0.14229 -0.005,0.0469 -0.05359,0.1448 -0.08888,0.17912 -0.06435,0.0626 -0.148659,-0.0315 -0.160377,-0.17887 -0.0035,-0.0438 -0.01898,-0.11375 -0.03444,-0.15547 -0.02277,-0.0613 -0.04198,-0.0858 -0.100719,-0.12785 -0.03993,-0.0285 -0.141755,-0.10637 -0.226289,-0.17271 -0.08454,-0.0663 -0.259835,-0.19951 -0.389563,-0.29586 -0.129731,-0.0963 -0.245895,-0.19033 -0.258151,-0.20882 -0.06118,-0.0923 -0.04898,-0.17987 0.03555,-0.25553 0.02905,-0.026 0.06768,-0.073 0.0858,-0.10452 0.03178,-0.0552 0.09712,-0.28815 0.08504,-0.30313 -0.0033,-0.004 -0.02992,0.0263 -0.05927,0.0675 -0.0907,0.12703 -0.230176,0.22617 -0.410253,0.29162 -0.181125,0.0659 -0.304318,0.15399 -0.375368,0.26859 -0.04606,0.0743 -0.132461,0.33842 -0.178914,0.54691 -0.03134,0.1407 -0.02765,0.22302 0.01415,0.31554 0.03578,0.0792 0.07183,0.11811 0.162972,0.176 0.201041,0.12767 0.181458,0.20268 -0.03655,0.13998 z"
     id="path8085"
     inkscape:transform-center-x="-0.84982788"
     inkscape:transform-center-y="-0.38820925" />
  <path
     style="fill:#000000;fill-opacity:1;fill-rule:evenodd;stroke:#0000ff;stroke-width:0.2;stroke-linecap:butt;stroke-linejoin:miter;stroke-miterlimit:4;stroke-dasharray:none;stroke-opacity:1"
     d="m 33.895645,79.033625 -0.187531,-0.03618 c 0.176448,-0.08639 0.356705,-0.163814 0.590103,-0.114575 L 34.07678,78.80829 c 0.228944,-0.111006 0.451053,-0.118882 0.66968,-0.07433 L 34.347761,78.66 l 0.62084,-0.05378 -0.208036,-0.08504 c 0.311741,-0.03987 0.623765,-0.07692 0.948631,0.01538 l -0.272681,-0.184267 c 0.295818,0.07396 0.59369,0.117036 0.882549,0.295926 l 0.334188,0.33079 c 0,0 0.09404,-0.318078 0.217307,-0.412937 0.06534,-0.05021 0.241077,-0.05526 0.241077,-0.05526 l -0.01254,0.189091 0.217437,-0.05686 0.141825,0.0098 -0.184267,0.272679 0.04099,0.09765 c 0.149338,0.220879 0.14317,0.508043 0.11284,0.739384 l -0.100053,-0.216228 -0.03135,0.472748 -0.06283,0.589365 0.01593,0.475886 0.07261,0.337191 -0.147962,0.441267 -0.327657,0.286917 c 0,0 -0.124488,0.122944 -0.196935,0.105592 -0.04918,-0.01231 -0.08671,-0.124458 -0.08671,-0.124458 0,0 -0.246577,-0.02228 -0.301018,-0.114944 -0.05218,-0.08873 0.04402,-0.305722 0.04402,-0.305722 L 35.82029,80.799539 c 0,0 -0.185563,-0.128715 -0.222269,-0.228411 -0.01095,-0.02966 0.0063,-0.09452 0.0063,-0.09452 l -0.146527,0.06153 -0.544966,0.699842 -0.552804,0.818036 -0.225143,0.531119 c 0,0 -0.0049,0.282487 -0.07391,0.398711 -0.07704,0.129699 -0.351298,0.285342 -0.351298,0.285342 l -0.0188,0.283644 0.0098,0.926556 0.09781,0.315124 0.08057,0.575139 0.06634,0.431742 0.101075,0.623972 -0.01254,0.189092 0.137125,0.08036 0.227101,0.513618 -0.406538,0.0443 -0.423907,-0.05181 0.02821,-0.425478 -0.100951,-0.267842 -0.07901,-0.598768 -0.06477,-0.455384 -0.252434,-0.84767 -0.214564,-0.702735 -0.06753,0.66029 0.02546,0.690181 -0.06765,0.304147 -0.08972,0.278955 -0.373366,0.260138 -0.382771,0.401973 -0.300886,0.241198 -0.260012,-0.01723 -0.286782,0.02843 -0.244211,0.102514 -0.108778,-0.149661 -0.0316,-0.239512 0.155927,-0.203331 0.252046,-0.220707 0.135554,0.103991 0.165462,0.01108 0.64905,-0.47927 0.129157,-0.157624 0.02351,-0.354567 -0.230236,-0.466349 -0.168985,-1.032073 c 0,0 -1.395787,0.08861 -2.059587,-0.0891 -0.341554,-0.09144 -0.940921,-0.489719 -0.940921,-0.489719 l -0.22854,-0.133859 -0.149661,0.10879 -0.237681,0.720211 -0.162065,0.654012 -0.12746,0.490113 -0.02507,0.378208 0.285348,0.351294 0.30428,0.423779 0.502914,0.650616 0.389297,0.215736 -0.05981,0.185966 -0.223709,0.15136 -0.611434,-0.08799 -0.08829,-0.100792 -0.05367,-0.264703 -0.495079,-0.76881 -0.417768,-0.502517 -0.378328,-0.381211 0.162068,-0.654001 -0.07745,-0.622409 -0.343329,0.523279 -0.455247,0.4209 -0.39374,0.567435 -0.341633,0.855768 -0.100324,0.142265 c 0.122513,0.138155 0.147221,0.522467 0.144264,0.609352 l -0.473854,0.0037 -0.299452,-0.13856 -8.8e-5,-0.16475 0.190639,-0.202481 0.360439,-1.139424 0.158932,-0.606731 0.09129,-0.302583 0.694626,-0.808634 -0.336013,-1.01941 c 0,0 -0.203623,-0.459259 -0.190928,-0.701159 0.01519,-0.289305 0.314862,-0.810073 0.314862,-0.810073 0,0 -0.01231,-0.07716 -0.04101,-0.09772 -0.03857,-0.02757 -0.141823,-0.0098 -0.141823,-0.0098 0,0 -0.300206,0.271399 -0.385904,0.449243 -0.196859,0.408519 -0.254789,1.336355 -0.254789,1.336355 l -0.02847,-0.286782 -0.155801,0.55946 -0.05537,-0.597205 -0.188837,0.69972 -0.01594,-0.475886 -0.182439,0.961297 c 0,0 -0.08079,0.86997 -0.180743,1.293787 -0.09938,0.421306 -0.413984,1.23085 -0.413984,1.23085 l 0.144702,-0.750127 -0.286525,0.740725 c 0.114144,-0.452147 0.103154,-0.832349 0.07993,-1.205511 l -0.07444,-1.025809 0.09417,-1.062114 -0.06451,0.256877 c 0,0 0.0241,-0.479184 0.09429,-0.705984 0.167357,-0.540828 0.76528,-1.516192 0.76528,-1.516192 0,0 0.346759,-0.360339 0.575003,-0.436702 0.240094,-0.08036 0.759529,0.0025 0.759529,0.0025 l 0.329357,0.04553 0.800405,-0.25556 0.957937,-0.304402 c 0,0 -0.134827,-0.283702 -0.0836,-0.419728 0.03165,-0.08405 0.248836,-0.103376 0.248836,-0.103376 l 0.212744,0.01415 c 0,0 -0.01738,-0.149009 0.0141,-0.212733 0.04453,-0.09009 0.226838,-0.198642 0.226838,-0.198642 l -0.178126,-0.177991 -0.17827,-0.534121 0.06909,-0.68393 0.307014,-0.691868 0.299194,-0.5737 0.140131,-0.323086 -0.08183,-0.280764 c -0.01426,-0.222997 0.0152,-0.507748 0.449099,-0.489756 0.156013,-0.0012 0.176334,-0.0074 0.276938,0.0062 0.353557,0.04689 0.506193,0.05919 0.613003,0.258699 l 2.5e-5,-2.63e-4 c 0.0084,0.09796 0.188898,0.175838 -0.04385,0.467653 l -0.07876,0.113467 0.110452,0.185979 -0.102489,0.05193 0.03946,0.121343 -0.07249,0.01895 -0.0063,0.09452 -0.09768,0.04098 0.110342,0.12602 0.294894,0.565602 0.182953,0.46321 c 0,0 0.227648,0.101467 0.32956,0.169518 0.102133,0.0683 0.180565,0.318523 0.238097,0.427055 0.04678,0.08824 0.09916,0.266512 0.09916,0.266512 0.05412,0.393336 0.633847,1.155408 1.194792,0.779731 0.367656,-0.250917 0.70686,-0.17194 1.096645,-0.425975 z"
     id="path3668"
     inkscape:connector-curvature="0"
     sodipodi:nodetypes="ccccccccccccsccccccccccccccscsccscccccscccccccccccccccccccccccccccccccccccccccsccccccccccccccccccccccccccccccccccccscscscccccccscccccccscscccccccccccccccccccccccccccccccccccc" />
  <path
     style="fill:none;fill-rule:evenodd;stroke:#0000ff;stroke-width:0.2;stroke-linecap:butt;stroke-linejoin:miter;stroke-miterlimit:4;stroke-dasharray:none;stroke-opacity:1"
     d="m 9.0341871,83.793637 c 0,0 0.786176,0.74231 1.4343909,0.8801 0.648219,0.13781 1.088725,0.22599 1.605735,0.24506 0.517013,0.0191 0.786721,0.0589 1.472532,0.18019 0.685813,0.12116 1.312502,0.17428 1.436485,0.15488 0.123985,-0.0194 0.175646,-0.0834 -0.01733,-0.19844 -0.192982,-0.11502 -0.325301,-0.20382 -0.224172,-0.27202 0.101123,-0.0682 0.166653,-0.17368 -0.16461,-0.21587 -0.331259,-0.0421 -0.687358,-0.0793 -0.609525,-0.18433 0.07783,-0.10502 0.08335,-0.25467 -0.101075,-0.26747 -0.184425,-0.0128 -2.319087,0.0463 -2.954113,-0.11496 -0.635029,-0.1613 -0.9871609,-0.30616 -1.0834259,-0.36965 -0.09627,-0.0635 -0.08152,-0.12888 0.2224579,-0.0158 0.303998,0.11311 0.598541,0.14795 0.637901,0.0835 0.03935,-0.0645 0.06574,-0.11146 0.05653,-0.19572 -0.0092,-0.0843 0.0049,-0.1317 0.164222,-0.10784 0.159362,0.0239 0.27258,-0.0379 0.128615,-0.14511 -0.143963,-0.10721 -0.36245,-0.19918 -0.309896,-0.28715 0.05256,-0.088 0.03035,-0.15474 0.27082,0.01 0.240453,0.16471 0.621115,0.53841 1.022472,0.68508 0.401368,0.14667 0.549305,0.14614 0.504488,0.0246 -0.04483,-0.12153 -0.265467,-0.48933 -0.103229,-0.54328 0.16223,-0.054 0.371723,-0.0522 0.589983,0.0458 0.218263,0.098 0.18155,0.0907 0.474557,0.16737 0.293007,0.0768 0.329052,0.102 0.33192,0.0242 0.0029,-0.0778 0.03013,-0.14875 0.187957,-0.0829 0.157823,0.0658 0.451704,0.11856 0.495481,-0.0657 0.04378,-0.1842 0.05719,-0.21368 0.231293,-0.25521 0.174096,-0.0415 0.259389,-0.0144 0.336557,-0.10147 0.07717,-0.0871 -0.116696,-0.17814 0.113882,-0.0798 0.23057,0.0985 0.550627,0.11027 0.370178,-0.0104 -0.180452,-0.12054 -0.576349,-0.0812 -0.216941,-0.13388 0.359411,-0.0527 0.878854,-0.0995 0.835352,-0.2569 -0.0435,-0.15746 0.01937,-0.19111 -0.240011,-0.1767 -0.259389,0.0144 -1.889405,0.42783 -2.982326,0.31559 -1.09292,-0.11226 -1.912813,-0.27435 -2.485855,-0.44535 -0.5730369,-0.17099 -0.7328379,-0.18288 -1.0599049,-0.3388 -0.327064,-0.15592 -0.39916,-0.20653 -0.39916,-0.20653 z"
     id="path4154-5"
     inkscape:connector-curvature="0" />
  <path
     style="fill:none;fill-opacity:1;fill-rule:evenodd;stroke:#0000ff;stroke-width:0.2;stroke-linecap:butt;stroke-linejoin:miter;stroke-miterlimit:4;stroke-dasharray:none;stroke-opacity:1"
     d="m 8.3670791,72.557637 c 0,0 -0.462896,0.57994 -0.805781,0.62343 -0.342885,0.0435 -0.720059,0.0725 -0.720059,0.0725 0,0 -0.03429,0.14498 0.325741,0.24647 0.36003,0.10149 0.428606,0.16673 0.240019,0.16673 -0.188586,0 -0.865786,-0.0652 -1.36297,-0.28272 -0.497184,-0.21747 -0.591477,-0.25372 -0.694342,-0.23922 -0.102866,0.0145 -0.205732,0.087 -0.205732,0.14498 0,0.058 0.377174,0.46395 0.291453,0.52195 -0.08572,0.058 -0.377175,0.19572 -0.377175,0.19572 0,0 0.08572,0.0435 0.188588,0.087 0.102866,0.0435 0.308597,0.12324 0.240019,0.21748 -0.06858,0.0942 -0.240019,0.29722 -0.102865,0.34796 0.137154,0.0507 1.037228,0.0362 1.097233,0.10874 0.06001,0.0725 -0.05143,0.25372 0.08572,0.26097 0.137153,0.007 0.660054,0.14499 1.0458,0.0362 0.385746,-0.10874 0.488612,-0.10149 0.617194,-0.29722 0.128582,-0.19573 0.128582,-0.19573 0.128582,-0.19573 z"
     id="path4152"
     inkscape:connector-curvature="0" />
  <path
     style="fill:none;fill-opacity:1;fill-rule:evenodd;stroke:#0000ff;stroke-width:0.2;stroke-linecap:butt;stroke-linejoin:miter;stroke-miterlimit:4;stroke-dasharray:none;stroke-opacity:1"
     d="m 8.9320891,75.523777 c 0,0 0.558091,0.86764 1.011175,1.00939 0.4530859,0.14176 0.7608999,0.23149 1.1209149,0.23468 0.360016,0.003 0.548275,0.0411 1.027267,0.16134 0.478993,0.12024 0.915833,0.16036 1.001809,0.13213 0.08597,-0.0282 0.120969,-0.10767 -0.01502,-0.23937 -0.135991,-0.13169 -0.229381,-0.23402 -0.160036,-0.3204 0.06935,-0.0864 0.113362,-0.21648 -0.117756,-0.25477 -0.231117,-0.0383 -0.479442,-0.0695 -0.426855,-0.19952 0.05259,-0.13003 0.05419,-0.31125 -0.07432,-0.31964 -0.128515,-0.008 -1.612913,0.14519 -2.057171,-0.0252 -0.4442559,-0.17069 -0.6914249,-0.33236 -0.7593559,-0.40546 -0.06793,-0.0731 -0.05866,-0.15275 0.15455,-0.0276 0.213202,0.12514 0.4186679,0.15596 0.4450899,0.0764 0.02643,-0.0796 0.04408,-0.13736 0.03641,-0.23892 -0.0077,-0.10156 0.0014,-0.15947 0.112654,-0.13673 0.111242,0.0227 0.189095,-0.0563 0.08732,-0.18047 -0.10177,-0.12414 -0.255163,-0.227 -0.219911,-0.33543 0.03525,-0.10843 0.01881,-0.18832 0.188579,0.002 0.169765,0.18999 0.440207,0.62736 0.721662,0.78935 0.281456,0.16198 0.384382,0.15564 0.351382,0.0101 -0.033,-0.14528 -0.19201,-0.58166 -0.07993,-0.65317 0.112077,-0.0715 0.257862,-0.0774 0.41119,0.0326 0.153329,0.1101 0.127676,0.10262 0.332693,0.18419 0.205017,0.0815 0.230475,0.11078 0.231311,0.0166 8.35e-4,-0.0942 0.01875,-0.18107 0.129541,-0.1076 0.110791,0.0735 0.316064,0.12605 0.343771,-0.0984 0.02771,-0.22448 0.0366,-0.26065 0.157121,-0.31758 0.120519,-0.0569 0.180265,-0.0274 0.23266,-0.13568 0.05239,-0.10828 -0.08385,-0.21097 0.07805,-0.1008 0.161901,0.11018 0.384768,0.11216 0.257411,-0.0267 -0.127356,-0.13887 -0.402231,-0.0761 -0.152942,-0.1536 0.249289,-0.0775 0.610011,-0.15408 0.577395,-0.34286 -0.03262,-0.18877 0.01066,-0.23188 -0.169637,-0.20449 -0.180264,0.0274 -1.308248,0.59012 -2.070366,0.49637 -0.76212,-0.0938 -1.335017,-0.25833 -1.7362849,-0.44312 -0.401269,-0.1848 -0.512638,-0.19302 -0.742534,-0.36906 -0.229897,-0.17602 -0.280813,-0.23447 -0.280813,-0.23447 z"
     id="path4154"
     inkscape:connector-curvature="0" />
  <path
     style="fill:none;fill-opacity:1;fill-rule:evenodd;stroke:#0000ff;stroke-width:0.2;stroke-linecap:butt;stroke-linejoin:miter;stroke-miterlimit:4;stroke-dasharray:none;stroke-opacity:1"
     d="m 8.9260601,75.825747 c 0.205731,0.14498 0.969134,0.89122 2.1173189,1.18162 1.082833,0.27386 1.737173,0.518 2.271618,0.57268 0.40486,0.0414 1.397257,0.10874 1.963019,0.0145 0.6691,-0.11145 1.028657,-0.21747 1.328681,-0.21023 0.300026,0.007 0.325742,0.0218 0.222876,0.087 -0.102865,0.0653 -0.574333,0.32622 -0.445751,0.39146 0.128582,0.0652 0.36003,0.0652 0.385746,0.18848 0.02572,0.12324 -0.04286,0.17398 -0.205731,0.21748 -0.162871,0.0435 -0.5229,0.0507 -0.497184,0.16673 0.02572,0.11599 0.05143,0.29722 0.05143,0.29722 0,0 -0.171442,0.0507 -0.368601,-0.029 -0.19716,-0.0797 -0.368602,-0.11599 -0.454323,-0.087 -0.08572,0.029 -0.06858,0.058 0.01714,0.23922 0.08572,0.18123 -0.154298,0.17398 -0.28288,0.11599 -0.128583,-0.058 -0.651483,-0.30447 -0.831498,-0.37696 -0.180014,-0.0725 -0.5229,-0.23197 -0.334313,0.0652 0.188587,0.29722 0.291452,0.4857 0.291452,0.54369 0,0.058 -0.188587,0.12324 -0.44575,-0.0435 -0.257165,-0.16673 -0.531473,-0.4567 -0.702916,-0.46395 -0.171443,-0.007 -0.248592,-0.0435 -0.214304,0.029 0.03429,0.0725 0.265737,0.44945 0.274309,0.47844 0.0086,0.029 0.16287,0.28272 -0.03429,0.24648 -0.19716,-0.0362 -0.497184,-0.21748 -0.625767,-0.37696 -0.128582,-0.15948 -0.342885,-0.30447 -0.351458,-0.22473 -0.0086,0.0797 0.111439,0.22473 0.145727,0.32622 0.03429,0.10149 0.145727,0.27547 -0.06858,0.13773 -0.214303,-0.13773 -0.591478,-0.39145 -0.702916,-0.4712 -0.111437,-0.0797 -0.394318,-0.19572 -0.214303,-0.0507 0.180014,0.14498 0.411463,0.39871 0.325741,0.47845 -0.08572,0.0797 -0.300025,0.10874 -0.497184,-0.087 -0.197159,-0.19573 -0.582905,-0.50745 -0.64291,-0.39146 -0.06001,0.11599 0.128581,0.21023 0.145726,0.4277 0.01714,0.21748 -0.248592,0.007 -0.188587,0.26822 0.06001,0.26098 0.08572,0.46395 -0.137155,0.26098 -0.2228749,-0.20298 -0.3085979,-0.50745 -0.5057559,-0.41321 -0.19716,0.0942 -0.08572,0.18848 -0.317169,0.18848 -0.231449,0 -0.428607,-0.0942 -0.428607,-0.0942 z"
     id="path4156"
     inkscape:connector-curvature="0"
     sodipodi:nodetypes="cssssssssscsssssssscscsscsssssssssssscc" />
  <path
     sodipodi:nodetypes="csssssssssssccssssssssssssssssccc"
     style="fill:none;fill-opacity:1;fill-rule:evenodd;stroke:#0000ff;stroke-width:0.2;stroke-linecap:butt;stroke-linejoin:miter;stroke-miterlimit:4;stroke-dasharray:none;stroke-opacity:1"
     d="m 1.8152532,75.817867 c 0,0 -0.017144,-0.0725 0.1714433,-0.0725 0.1885872,0 0.3600293,0.21748 0.2228749,-0.10149 -0.1371537,-0.31896 -0.4628955,-0.49294 -0.2400197,-0.47844 0.2228758,0.0145 0.4457521,0.18847 0.7200594,0.15948 0.274308,-0.029 0.480039,-0.15948 0.60005,-0.058 0.12001,0.10149 0.274308,0.029 0.531472,0.0145 0.257164,-0.0145 0.634338,0.0435 1.062945,0.11599 0.428607,0.0725 0.72006,0.24647 0.617194,0.0725 -0.102865,-0.17398 -0.428607,-0.34796 -0.274308,-0.37696 0.154298,-0.029 0.531473,0.0435 1.200099,0.15949 0.668628,0.11598 0.754349,0.20297 1.251533,0.058 0.497184,-0.14498 0.634339,-0.40596 0.634339,-0.40596 0.02884,0.73216 0.02271,1.70919 0.01714,2.68221 0,0 5.12e-4,-0.5484 0,0 -3.92e-4,0.41967 -0.617195,0.11599 -0.702916,-0.14498 -0.08572,-0.26098 -0.36003,-0.85541 -0.514329,-0.73942 -0.154298,0.11598 -0.360029,0.44945 -0.377174,0.57993 -0.01714,0.13049 -0.325741,0.34797 -0.411462,0.029 -0.08572,-0.31897 -0.291453,-0.69592 -0.36003,-0.47845 -0.06858,0.21748 -0.12001,0.69593 -0.274309,0.39146 -0.154298,-0.30447 -0.308597,-0.55094 -0.308597,-0.39146 0,0.15948 0.102866,0.34796 -0.137153,0.47845 -0.240021,0.13049 -0.240021,0.23197 -0.291453,0.058 -0.05143,-0.17398 -0.531473,-0.18848 -0.617194,-0.18848 -0.08572,0 -0.154299,0 -0.03429,-0.24647 0.12001,-0.24647 0.05143,-0.62343 -0.531473,-0.26097 -0.582905,0.36246 -0.634338,0.23197 -0.651482,0.0435 -0.01714,-0.18848 -0.08572,-0.11599 -0.24002,-0.20298 -0.154298,-0.087 0.01714,-0.20298 -0.308597,-0.28997 -0.3257411,-0.087 -0.6686267,-0.24647 -0.6857705,-0.30447 -0.017145,-0.058 -0.068577,-0.10149 -0.068577,-0.10149 z"
     id="path4158"
     inkscape:connector-curvature="0" />
  <path
     style="fill:none;fill-opacity:1;fill-rule:evenodd;stroke:#0000ff;stroke-width:0.2;stroke-linecap:butt;stroke-linejoin:miter;stroke-miterlimit:4;stroke-dasharray:none;stroke-opacity:1"
     d="m 8.2771101,77.825037 -0.03637,0.0103 c -0.163659,0.0461 -0.351562,0.10764 -0.442484,0.18453 -0.09092,0.0769 0,0.12815 -0.25458,0.0615 -0.25458,-0.0666 -0.357623,-0.082 -0.436422,-0.0256 -0.0788,0.0564 -0.430361,0.21529 -0.848599,0.0871 -0.418237,-0.12815 -0.503097,-0.23066 -0.866782,-0.25629 -0.363685,-0.0256 -0.424299,-0.0359 -0.424299,0.0102 0,0.0461 0.115167,0.17428 -0.03637,0.22041 -0.151535,0.0461 -0.333378,0.16403 -0.248518,0.19479 0.08486,0.0308 0.284887,0.0359 0.43036,0.0718 0.145475,0.0359 0.230334,0.041 0.248519,0.15378 0.01818,0.11277 0.08486,0.18966 -0.05455,0.21017 -0.139413,0.0205 -0.290948,0.12302 -0.309132,0.22554 -0.01819,0.10252 0.230333,0.10764 0.309132,0.13327 0.0788,0.0256 0.193966,0.082 0.193966,0.082 0,0 -0.16972,0.0871 -0.4243,0.0974 -0.254579,0.0103 -0.272764,0.0666 -1.272897,-0.12302 -1.000135,-0.18966 -1.266837,-0.18966 -1.266837,-0.18966 0,0 0.04243,0.0513 0.04849,0.0871 0.0061,0.0359 -0.1333524,0.0513 -0.3394399,0.0256 -0.2060886,-0.0256 -0.5030977,-0.13327 -0.7455547,-0.27168 -0.2424569,-0.1384 -0.3758078,-0.18453 -0.4909749,-0.19478 l -0.11516702,-0.0102 c 0,0 0.018185,0.005 0.12728992,0.12815 0.1091052,0.12302 0.2242723,0.24604 0.2667025,0.34856 0.042429,0.10252 0.1212281,0.18966 -0.1272899,0.18454 -0.24851792,-0.005 -0.53946612,-0.0205 -0.73949282,-0.0154 -0.2000267,0.005 -0.3697468,0.0564 -0.3091328,0.11277 0.060614,0.0564 0.2788254,0.18453 0.4424837,0.19479 0.1636583,0.0102 0.3515622,-0.0103 0.4121762,0.0461 0.060614,0.0564 0.13335172,0.15378 0.024246,0.19479 -0.1091052,0.041 -0.2788245,0 -0.1151662,0.0513 0.16365742,0.0513 0.33943942,0.0359 0.49703592,0.0154 0.1575964,-0.0205 0.2970091,-0.082 0.3030709,-0.0256 0.00606,0.0564 -0.1575973,0.11277 -0.2182113,0.14866 -0.060614,0.0359 -0.030307,0.0871 0.1212289,0.10764 0.1515355,0.0205 0.3455004,-0.0154 0.2727635,0.0154 -0.072737,0.0308 -0.4000534,0.17941 -0.5030977,0.25117 -0.1030442,0.0718 -0.2000267,0.25117 -0.048491,0.21017 0.1515355,-0.041 0.6243258,-0.20504 0.7698003,-0.32807 0.1454736,-0.12302 0.4303604,-0.1384 0.4303604,-0.0871 0,0.0513 -0.1151674,0.18454 -0.1879044,0.30243 -0.072736,0.1179 0.06061,0.0871 0.2485184,0.0359 0.187905,-0.0513 0.321256,-0.12815 0.266703,-0.0461 -0.05455,0.082 -0.133351,0.26143 -0.284886,0.30244 -0.1515364,0.041 -0.315195,0.22554 -0.3333796,0.28705 -0.018184,0.0615 -0.036368,0.23067 0.2000282,0.0923 0.2363954,-0.1384 0.5394664,-0.28193 0.6000804,-0.29731 0.06061,-0.0154 0.200027,-0.0923 0.193965,-0.0154 -0.0061,0.0769 -0.12729,0.31269 -0.133351,0.3742 -0.0061,0.0615 0.01818,0.17428 0.139413,0.0718 0.121228,-0.10252 0.327316,-0.53822 0.424299,-0.6715 0.09698,-0.13328 0.212149,-0.34344 0.26064,-0.22042 0.04849,0.12303 0.0788,0.2358 -0.07274,0.38958 -0.151536,0.15378 -0.206088,0.26142 -0.260641,0.38957 -0.05455,0.12815 -0.06668,0.28193 0.06668,0.22042 0.133352,-0.0615 0.454606,-0.36395 0.575835,-0.47159 0.121228,-0.10765 0.333379,-0.20504 0.345501,-0.0461 0.01212,0.15891 -0.09698,0.17941 -0.09698,0.36907 0,0.18966 0.103044,0.40495 0.230334,0.23067 0.12729,-0.17428 0.230334,-0.36907 0.290949,-0.52797 0.06061,-0.15891 0.163658,-0.32294 0.206087,-0.35369 0.04243,-0.0308 0.163658,0 0.12729,0.23066 -0.03637,0.23067 -0.218211,0.53823 -0.163658,0.68688 0.05455,0.14866 0.09092,0.18966 0.212149,0.0923 0.121228,-0.0974 0.181843,-0.19479 0.357624,-0.37932 0.175781,-0.18454 0.436422,-0.58949 0.472791,-0.35882 0.03637,0.23067 0.0788,0.51772 0.0788,0.51772 0.203059,0.0362 0.321256,0.0103 0.430362,-0.14865 0.109105,-0.1589 0.254579,-0.38957 0.321255,-0.42033 0.339255,0.007 0.163253,0.43314 0.454606,-0.0154 0.187904,-0.17428 0.284887,-0.32293 0.436422,-0.39469 0.151536,-0.0718 0.121229,-0.19479 0.193966,-0.0923 0.07274,0.10252 0.139413,0.26655 0.139413,0.26655 z"
     id="path4160"
     inkscape:connector-curvature="0"
     sodipodi:nodetypes="csssssssssssssscssccssscsssssssssscssssssssssssscccssssssssssscsssssssccsscc" />
  <path
     style="fill:none;fill-opacity:1;fill-rule:evenodd;stroke:#0000ff;stroke-width:0.2;stroke-linecap:butt;stroke-linejoin:miter;stroke-miterlimit:4;stroke-dasharray:none;stroke-opacity:1"
     d="m 8.9689111,79.428617 c 0,0 0.02425,0.12302 0.545527,0.2563 0.5212839,0.13327 0.5697749,0.15378 1.0425649,0.18453 0.472791,0.0308 0.775862,0.0615 0.715247,0.13328 -0.06061,0.0718 -0.04849,0.14353 1e-6,0.28705 0.270121,0.3557 0.659565,0.32296 1.06681,0.42033 0.303071,0.0102 1.042563,0.10252 1.091055,0.16403 0.04849,0.0615 -0.03637,0.24605 -0.278826,0.2563 -0.242457,0.0102 -0.206088,0.10252 0.145474,0.16403 0.351562,0.0615 0.557651,0.2768 0.121229,0.29731 -0.436423,0.0205 -0.533405,-0.0718 -0.76374,0.0205 -0.230333,0.0923 -0.38793,0.41008 -0.545527,0.22554 -0.157597,-0.18453 -0.606142,-0.58436 -0.545528,-0.38957 0.06061,0.19479 0.351563,0.60486 0.03637,0.46134 -0.315194,-0.14353 -0.860721,-0.77915 -0.836475,-0.5331 0.02424,0.24604 0.278825,0.61511 0.06061,0.52284 -0.218212,-0.0923 -0.303071,-0.52284 -0.630388,-0.56385 -0.3273179,-0.041 -0.4000539,0.22554 -0.5818959,0.16403 -0.181843,-0.0615 -0.472792,-0.31781 -0.581897,-0.42033 -0.109106,-0.10252 -0.06061,-0.15378 -0.06061,-0.15378 z"
     id="path4162"
     inkscape:connector-curvature="0"
     sodipodi:nodetypes="csssccssssssssssssscc" />
  <path
     style="fill:none;fill-opacity:1;fill-rule:evenodd;stroke:#0000ff;stroke-width:0.2;stroke-linecap:butt;stroke-linejoin:miter;stroke-miterlimit:4;stroke-dasharray:none;stroke-opacity:1"
     d="m 8.3149621,80.254657 c 0,0.082 -0.02493,1.17309 -0.02493,1.33712 0,0 -0.03286,-0.41994 -0.01212,2.49121 0,0 0.01212,0.041 -0.193966,0.0205 -0.102258,-0.0102 -0.555788,0.0764 -0.991267,0.0635 -0.442178,-0.013 -0.865746,-0.12522 -0.884069,-0.10456 -0.03637,0.041 -0.06061,0.2563 0.09698,0.26655 0.06755,0.004 0.425514,0.0881 0.828575,0.0874 0.537265,-9.6e-4 1.143744,-0.0874 1.143744,-0.0874 0,0 0.03637,1.13796 -0.01212,1.13796 -0.04849,0 -0.09698,0.041 -0.266703,-0.0307 -0.16972,-0.0718 -0.278825,-0.12302 -0.303071,-0.041 -0.02424,0.082 -0.157597,0.18454 0.121228,0.21529 0.278826,0.0308 0.497037,0.0615 0.497037,0.0615 l -0.03637,0.80991 c 0,0 -1.054688,0.0718 -1.515355,0.0307 -0.460668,-0.041 -0.654634,-0.082 -0.836476,-0.13327 -0.181843,-0.0513 -0.4243,0.0923 -0.157597,0.19478 0.266703,0.10252 0.715247,0.13328 1.139547,0.15378 0.424299,0.0205 1.345635,-0.0513 1.345635,-0.0513 0,0 0.03637,2.78853 0.03637,3.68044 0,0.89192 -0.06062,1.35326 -0.06062,2.29643 0,0.94318 0.02425,2.52198 0.01212,2.74752 -0.01212,0.22554 -0.03637,2.35794 -0.08486,2.55273 -0.04849,0.19479 -0.181842,0.61512 -0.266703,0.840659 -0.08486,0.22554 -0.651682,0.27861 0.228388,0.23298 0.157942,-0.008 0.365631,-0.291359 0.462614,0.006 0.09698,0.2973 0.484914,0.24291 0.521282,0.0686 0.03637,-0.17428 0.0048,-0.425629 0.162435,-0.22059 0.157596,0.20503 0.225496,0.10782 0.334601,0.0361 0.109106,-0.0718 -0.121228,-0.440829 -0.266702,-0.635619 -0.145474,-0.19479 -0.193966,-0.36907 -0.206088,-1.10721 -0.01212,-0.73814 0,-5.32075 0,-5.80259 0,-0.48184 -0.09698,-2.9628 -0.08486,-3.58817 0.01212,-0.62537 -0.157597,-0.66638 0,-0.66638 0.157596,0 0.327317,-0.0205 0.47279,-0.041 0.145475,-0.0205 0.25458,-0.2153 -0.02425,-0.20504 -0.278826,0.0102 -0.472791,-0.0308 -0.472791,-0.0308 0,0 0.01212,-1.26099 0.02425,-1.31225 0.01212,-0.0513 0.09698,-0.0923 0.290948,-0.082 0.193965,0.0102 0.375808,-0.0308 0.55765,-0.0308 0.1818439,0 0.2909489,-0.0102 0.3151949,-0.0513 0.02424,-0.041 0.121229,-0.14352 -0.121228,-0.12302 -0.2424579,0.0205 -0.4485459,0.0308 -0.6788799,0.0513 -0.230334,0.0205 -0.363685,-0.0102 -0.363685,-0.0102 0,0 -0.04849,-1.33275 -0.03637,-1.56855 0.01212,-0.23579 -0.07274,-0.46133 0,-0.50234 0.07274,-0.041 0.13335,0.041 0.533404,-0.0923 0.400053,-0.13327 0.6182659,-0.16403 0.6182659,-0.24604 0,-0.082 0.03637,-0.22555 -0.1575979,-0.15378 -0.193966,0.0718 -0.569773,0.14352 -0.72737,0.18453 -0.157597,0.041 -0.315194,0.041 -0.290948,-0.0102 0.02425,-0.0513 -0.0044,-1.96733 -0.0044,-1.96733 z"
     id="path4168"
     inkscape:connector-curvature="0"
     sodipodi:nodetypes="cccssssscssssccsssscssssssssssssssssscsssssscssssssscc" />
  <path
     style="fill:none;fill-opacity:1;fill-rule:evenodd;stroke:#0000ff;stroke-width:0.2;stroke-linecap:butt;stroke-linejoin:miter;stroke-miterlimit:4;stroke-dasharray:none;stroke-opacity:1"
     d="m 8.9093821,75.036527 -0.122082,-7.667292 c 0,0 0.02142,-2.181445 0.0072,-2.221469 -0.01427,-0.04003 -0.01297,-0.06177 0.01558,-0.181837 0.02855,-0.120079 -0.130905,-0.366082 -0.208288,-0.318494 -0.158042,0.09719 -0.157028,0.370244 -0.157028,0.550363 0,0.180118 -0.08622,9.375079 -0.08622,9.375079 z"
     id="path4166"
     inkscape:connector-curvature="0"
     sodipodi:nodetypes="ccccsscc" />
  <path
     style="fill:none;fill-opacity:1;fill-rule:evenodd;stroke:#0000ff;stroke-width:0.2;stroke-linecap:butt;stroke-linejoin:miter;stroke-miterlimit:4;stroke-dasharray:none;stroke-opacity:1"
     d="m 8.8427401,65.438438 c 0,0 0.02572,0.159483 0.06001,0.217477 0.03429,0.05799 0.171442,0.08699 0.240019,0.17398 0.06858,0.08699 0.184053,0.252769 0.310767,0.268661 0.34297,0.04301 0.421385,0.0028 0.465659,0.0443 0.05592,0.05238 0.0684,0.13041 -0.09672,0.167171 -0.315444,0.07023 -0.662565,-0.03068 -0.662565,-0.03068 0,0 -0.15932,0.136567 -0.142177,0.209059 0.01714,0.07249 0.03395,0.143665 0.185037,0.17515 0.435245,0.12858 0.701187,0.07149 1.1763759,-0.03456 0.171442,-0.05799 0.580913,-0.04518 0.529481,0.04181 -0.05143,0.08699 -0.334313,0.130487 -0.265736,0.231975 0.06858,0.101489 0.540044,0.130485 0.231447,0.173981 -0.308597,0.0435 -0.72006,-0.029 -0.737203,0.0435 -0.01714,0.07249 0.257877,0.304466 0.05143,0.304466 -0.4200349,0 -0.7372049,-0.420453 -0.7372049,-0.318964 0,0.101489 0.287122,0.418053 -0.05143,0.333463 -0.377175,-0.09424 -0.55719,-0.391457 -0.55719,-0.391457 z"
     id="path4149"
     inkscape:connector-curvature="0"
     sodipodi:nodetypes="cssssscsccssssssscc" />
  <path
     style="fill:none;fill-opacity:1;fill-rule:evenodd;stroke:#0000ff;stroke-width:0.2;stroke-linecap:butt;stroke-linejoin:miter;stroke-miterlimit:4;stroke-dasharray:none;stroke-opacity:1"
     d="m 8.3930691,66.079109 -0.0041,1.344833 c 0,0 -0.116979,0.121629 -0.168412,0.128878 -0.05143,0.0072 -0.06008,0.0016 -0.08433,-0.08046 -0.02425,-0.08202 -0.04243,-0.12046 -0.142443,-0.107646 -0.100013,0.01282 -0.209119,0.08201 -0.287917,0.117898 -0.0788,0.03588 -0.154567,0.0692 -0.184874,0.04357 -0.03031,-0.02563 -0.08486,-0.0487 -0.04546,-0.107645 0.0394,-0.05895 0.04546,-0.09227 0.06364,-0.102519 0.01818,-0.01025 0.05455,-0.01794 -0.02121,-0.0205 -0.07577,-0.0026 -0.07577,-0.01538 -0.17275,0.01025 -0.09698,0.02563 -0.260641,0.0897 -0.309133,0.08202 -0.04849,-0.0077 -0.08486,-0.03332 -0.08789,-0.110209 -0.003,-0.07689 0.06365,-0.153779 -0.05758,-0.199913 -0.121228,-0.04613 -0.209119,-0.06664 -0.278826,-0.0897 -0.06971,-0.02307 -0.003,-0.110208 0.04849,-0.117897 0.05152,-0.0077 0.07577,0.01025 0.08183,-0.04357 0.0061,-0.05382 -0.06971,-0.128149 0.0788,-0.107645 0.148505,0.0205 0.203058,0.0077 0.436422,0.128149 0.233365,0.12046 0.318224,0.174283 0.500067,0.158905 0.181842,-0.01538 0.275795,-0.01025 0.300041,-0.09739 0.02425,-0.08714 0.07274,-0.112771 0.04243,-0.192224 -0.03031,-0.07945 -0.124258,-0.143527 -0.206087,-0.194786 -0.08183,-0.05126 -0.145475,-0.07689 -0.157598,-0.17172 -0.01212,-0.09483 -0.01212,-0.176846 0.06668,-0.192224 0.0788,-0.01538 0.106075,-0.05126 0.172751,0.01025 0.06668,0.06151 0.08486,0.133275 0.184872,0.12046 0.100014,-0.01281 0.118198,0.0077 0.163659,-0.0487 0.04546,-0.05639 0.06891,-0.160456 0.06891,-0.160456 z"
     id="path4151"
     inkscape:connector-curvature="0"
     sodipodi:nodetypes="cccssscsccsccssccssssssscscscc" />
  <path
     style="fill:none;fill-opacity:1;fill-rule:evenodd;stroke:#0000ff;stroke-width:0.2;stroke-linecap:butt;stroke-linejoin:miter;stroke-miterlimit:4;stroke-dasharray:none;stroke-opacity:1"
     d="m 7.6744721,69.632482 c -0.07274,0.01538 -0.160628,0.05382 -0.297009,0.05382 -0.136382,0 -0.239427,0 -0.369747,-0.01025 -0.13032,-0.01025 -0.248518,-0.05895 -0.360655,-0.07945 -0.112135,-0.0205 -0.09395,-0.03588 -0.212149,-0.03076 -0.118198,0.0051 -0.25761,0.03588 -0.269733,0.07945 -0.01212,0.04357 -0.0061,0.08458 0.115167,0.133275 0.121228,0.0487 0.242457,0.0589 0.193965,0.0871 -0.04849,0.0282 -0.09395,0.0641 -0.139412,0.0846 -0.04546,0.0205 -0.124259,0.0461 -0.06668,0.082 0.05758,0.0359 0.05758,0.0282 0.200027,0.041 0.142443,0.0128 0.297009,-0.008 0.363685,-0.003 0.06668,0.005 0.103044,-0.0205 0.112136,0.0256 0.0091,0.0461 -0.0061,0.0795 -0.02728,0.11278 -0.02121,0.0333 -0.09698,0.10764 -0.02425,0.13327 0.07274,0.0256 0.103044,0.0384 0.196996,-0.0128 0.09395,-0.0513 0.230334,-0.17941 0.290948,-0.21529 0.06061,-0.0359 0.178812,-0.10765 0.221242,-0.11021 0.04243,-0.003 0.109105,-0.0256 0.09698,0.0256 -0.01212,0.0513 -0.12426,0.18966 -0.115168,0.2281 0.0091,0.0384 -0.01212,0.0871 0.08789,0.0897 0.100013,0.003 0.08486,0.0538 0.103045,0.10508 0.01818,0.0513 0.05455,0.0282 -0.0061,0.0948 -0.06061,0.0666 -0.293979,0.17428 -0.575835,0.19991 -0.281855,0.0256 -0.372777,0.0794 -0.630387,0.0436 -0.25761,-0.0359 -0.518251,-0.12046 -0.606142,-0.16403 -0.08789,-0.0436 -0.303071,-0.19222 -0.618265,-0.25886 -0.315194,-0.0666 -0.460667,-0.0871 -0.484913,-0.0513 -0.02425,0.0359 -0.02425,0.0974 -0.0091,0.12046 0.01515,0.0231 0.05758,0.0641 0.01818,0.0897 -0.0394,0.0256 -0.239427,0.0128 -0.303071,0.0461 -0.06365,0.0333 -0.106075,0.0538 -0.0788,0.11277 0.02728,0.0589 0.0394,0.11277 0.151535,0.12046 0.112137,0.008 0.403084,0.0128 0.463699,0.11533 0.06061,0.10252 0.0788,0.18967 0.0788,0.31013 0,0.12046 -0.06061,0.23579 0.06062,0.23835 0.121228,0.003 0.160627,0.0641 0.366715,-0.0231 0.206089,-0.0871 0.421269,-0.14609 0.527344,-0.14609 0.106074,0 0.178811,0.0282 0.136382,0.0897 -0.04243,0.0615 -0.16669,0.12559 -0.163658,0.19991 0.003,0.0743 0.03031,0.21273 0.200026,0.17429 0.16972,-0.0384 0.333378,-0.15122 0.433392,-0.1871 0.100013,-0.0359 0.151535,-0.0974 0.336408,-0.0974 0.184873,0 0.206088,-0.0487 0.254579,0.0743 0.04849,0.12302 0.0788,0.23579 0.151536,0.23836 0.07274,0.003 0.221242,-0.0205 0.321256,-0.14097 0.100012,-0.12046 0.163658,-0.19478 0.151535,-0.31268 -0.01212,-0.1179 -0.08789,-0.11277 -0.02728,-0.18966 0.06061,-0.0769 0.05758,-0.0897 0.13032,-0.082 0.07274,0.008 0.0394,0.0359 0.145475,0.0154 0.106075,-0.0205 0.148504,-0.0692 0.148504,-0.0692 l 0.01003,-1.495485 c -0.188839,0.0013 -0.258545,0.02947 -0.682844,0.114044 z"
     id="path4159"
     inkscape:connector-curvature="0"
     sodipodi:nodetypes="csssssssssssccssscscscssscssccsscsssssssscsssssscscccc" />
  <path
     style="fill:none;fill-opacity:1;fill-rule:evenodd;stroke:#0000ff;stroke-width:0.2;stroke-linecap:butt;stroke-linejoin:miter;stroke-miterlimit:4;stroke-dasharray:none;stroke-opacity:1"
     d="m 8.3745241,69.080196 0.01934,-1.038025 c 0,0 -0.08789,0.176846 -0.21518,0.269113 -0.12729,0.09227 -0.25761,0.205039 -0.421269,0.194787 -0.163658,-0.01025 -0.336409,-0.07945 -0.487944,-0.174283 -0.151536,-0.09483 -0.284886,-0.105083 -0.293979,-0.07689 -0.0091,0.02819 0.01515,0.05895 0.06365,0.09739 0.04849,0.03845 0.109105,0.08714 0.09395,0.15378 -0.01516,0.06664 -0.06365,0.115333 -0.09698,0.174282 -0.03334,0.05895 -0.0061,0.107645 0.09092,0.14609 0.09698,0.03844 0.315194,0.06151 0.375808,0.07945 0.06061,0.01794 0.145474,0.01282 0.133351,0.0487 -0.01212,0.03588 -0.06061,0.09483 -0.03637,0.169157 0.02425,0.07433 0.283605,-0.01864 0.460668,-0.03332 0.08773,-0.0073 0.314032,-0.01024 0.314032,-0.01024 z"
     id="path4153"
     inkscape:connector-curvature="0"
     sodipodi:nodetypes="ccssscscssssssc" />
  <path
     style="fill:none;fill-opacity:1;fill-rule:evenodd;stroke:#0000ff;stroke-width:0.2;stroke-linecap:butt;stroke-linejoin:miter;stroke-miterlimit:4;stroke-dasharray:none;stroke-opacity:1"
     d="m 8.8922791,69.704259 c 0,0 0.05143,-0.07974 0.102866,0.09424 0.05143,0.173978 0.214303,0.492948 0.497184,0.601688 0.28288,0.10874 0.483427,0.18786 0.5682889,0.28782 0.08486,0.0999 0.166688,0.20503 0.121228,0.28705 -0.04546,0.082 -0.106075,0.1384 -0.2060899,0.13584 -0.100013,-0.003 -0.242456,-0.008 -0.263671,-0.008 -0.02122,0 -0.03031,0.003 -0.03031,0.003 0,0 0.02122,0.14609 -0.04243,0.20504 -0.06365,0.0589 -0.124259,0.12302 -0.09395,0.16403 0.03031,0.041 0.200027,0.17428 0.5637129,0.24605 0.363685,0.0718 0.509158,0.0743 0.624325,0.0743 0.115168,0 0.451576,-0.082 0.706155,-0.19222 0.25458,-0.11021 0.460669,-0.18966 0.642511,-0.18453 0.181843,0.005 0.263672,0.008 0.263672,0.0256 0,0.0179 0.01818,0.041 -0.02122,0.0974 -0.0394,0.0564 -0.02121,0.11277 0.04243,0.11533 0.06364,0.003 0.187904,0.0128 0.230333,0.0589 0.04243,0.0461 0.09092,0.13328 -0.01515,0.17685 -0.106075,0.0436 -0.236395,0 -0.3849,0.0384 -0.148505,0.0385 -0.233365,0.11277 -0.233365,0.17172 0,0.0589 0.05455,0.31012 -0.09395,0.36651 -0.148504,0.0564 -0.206087,0.0564 -0.369746,-0.0308 -0.163658,-0.0871 -0.239426,-0.12815 -0.330348,-0.14865 -0.09092,-0.0205 -0.212149,-0.0513 -0.248518,-0.0282 -0.03637,0.0231 -0.03334,0.0795 0.0061,0.12046 0.0394,0.041 0.118198,0.14096 0.100013,0.2076 -0.01818,0.0666 -0.08183,0.15634 -0.224272,0.10764 -0.142443,-0.0487 -0.269733,-0.17684 -0.403084,-0.23067 -0.133352,-0.0538 -0.175781,-0.0923 -0.321256,-0.0897 -0.1454739,0.003 -0.2394259,0.0487 -0.1394129,0.0692 0.1000139,0.0205 0.1818429,0.0231 0.2727649,0.0436 0.09092,0.0205 0.242456,0.0231 0.254579,0.0897 0.01212,0.0666 0.06062,0.0923 -0.03334,0.12558 -0.09395,0.0333 -0.139412,0.0461 -0.09395,0.0743 0.04546,0.0282 0.181843,0.14865 0.08789,0.15121 -0.09395,0.003 -0.145474,-0.0231 -0.230334,-0.0384 -0.08486,-0.0154 -0.2273039,-0.0436 -0.2454889,0.0102 -0.01818,0.0538 0.1151679,0.11534 0,0.14097 -0.115167,0.0256 0,0.13327 -0.26064,-0.0103 -0.260641,-0.14352 -0.241417,-0.18702 -0.453566,-0.2024 -0.21215,-0.0154 -0.33736,-0.19873 -0.33736,-0.19873 z"
     id="path4170"
     inkscape:connector-curvature="0"
     sodipodi:nodetypes="csssssscscsssssscssssssssccssssssssscsssscc" />
  <path
     style="fill:none;fill-opacity:1;fill-rule:evenodd;stroke:#0000ff;stroke-width:0.2;stroke-linecap:butt;stroke-linejoin:miter;stroke-miterlimit:4;stroke-dasharray:none;stroke-opacity:1"
     d="m 8.3809531,71.534637 c 0,0 -0.163658,0.48696 -0.85466,0.56898 -0.691002,0.082 -0.927397,0.1384 -1.363819,0.005 -0.436422,-0.13328 -0.654634,-0.0871 -0.72737,-0.0308 -0.07274,0.0564 -0.115167,0.11277 -0.04849,0.15891 0.06668,0.0461 0.303071,0.11277 0.351563,0.1384 0.04849,0.0256 0.16972,0.0461 0.09698,0.0769 -0.07274,0.0307 -0.363685,0.11277 -0.327317,0.17941 0.03637,0.0666 0.145475,0.15377 0.472792,0.11277 0.327316,-0.041 0.436421,-0.0256 0.47279,0.0205 0.03637,0.0461 0.01212,0.0974 0,0.13328 -0.01212,0.0359 -0.103044,0.19478 -0.03031,0.21529 0.07274,0.0205 0.115167,0.0615 0.224273,0.0205 0.109105,-0.041 0.412176,-0.29218 0.47279,-0.34344 0.06061,-0.0513 0.16972,-0.14865 0.29701,-0.14865 0.127289,0 0.169719,0.0359 0.115166,0.12815 -0.05455,0.0923 -0.272764,0.22554 -0.181842,0.30755 0.09092,0.082 0.278825,0.0359 0.333377,-0.0461 0.05455,-0.082 0.248519,-0.35882 0.309133,-0.38445 0.06061,-0.0256 0.236395,-0.17941 0.309132,-0.21016 0.07274,-0.0308 0.07274,-0.0308 0.07274,-0.0308 z"
     id="path4172"
     inkscape:connector-curvature="0" />
  <path
     id="path3373"
     sodipodi:nodetypes="cscsscsccccsccccsssssssccsssscsccssccssssscssssssssssssssssssssssssscsssssssssssscscssssccssscssssscssscccsccsssccscsscsscc"
     style="fill:none;fill-opacity:1;stroke:#0000ff;stroke-width:0.2;stroke-miterlimit:4;stroke-dasharray:none;stroke-opacity:1"
     inkscape:connector-curvature="0"
     d="m 7.6780371,84.162007 c -0.0022,-0.004 -0.01947,-0.005 -0.03817,-0.005 -0.02821,0 -0.03794,-0.003 -0.057,-0.0171 -0.01264,-0.009 -0.02747,-0.0171 -0.03298,-0.0171 -0.01593,0 -0.06551,-0.0421 -0.08125,-0.0691 -0.01252,-0.0215 -0.03999,-0.0745 -0.05675,-0.10976 -0.003,-0.006 -0.0076,-0.0203 -0.01005,-0.0312 -0.0026,-0.0109 -0.01057,-0.0234 -0.0178,-0.0276 -0.01541,-0.009 -0.05901,-0.065 -0.05906,-0.0757 -7.52e-4,-0.007 -0.0062,-0.0183 -0.03201,-0.0565 -0.0077,-0.0113 -0.01498,-0.0279 -0.01619,-0.0367 -0.0018,-0.0129 -0.0064,-0.0167 -0.02352,-0.0197 -0.0309,-0.005 -0.03837,6.8e-4 -0.02599,0.0208 0.01205,0.0195 0.01381,0.0831 0.003,0.10918 -0.004,0.01 -0.01308,0.0192 -0.02017,0.0211 -0.0071,0.002 -0.01299,0.008 -0.01311,0.013 -7.52e-4,0.0184 -0.01608,0.0284 -0.0434,0.0277 -0.02396,-5.7e-4 -0.03215,-0.005 -0.09513,-0.0591 -0.08607,-0.073 -0.09381,-0.0744 -0.123881,-0.0217 -0.01613,0.0282 -0.0278,0.0404 -0.05065,0.0525 -0.02097,0.0112 -0.03474,0.0246 -0.04691,0.0455 -0.0095,0.0164 -0.0204,0.0313 -0.02426,0.0333 -0.0039,0.002 -0.01941,-0.007 -0.03452,-0.0195 -0.02557,-0.0216 -0.02771,-0.0259 -0.0303,-0.0602 l -0.0028,-0.037 -0.01907,0.008 c -0.0105,0.004 -0.0283,0.008 -0.03957,0.008 -0.01692,0 -0.02052,0.003 -0.02052,0.013 0,0.007 -0.0036,0.0161 -0.008,0.0199 -0.01144,0.01 -0.05341,0.009 -0.07113,-0.002 -0.01333,-0.008 -0.01494,-0.0137 -0.01494,-0.0543 0,-0.025 0.0032,-0.0507 0.0073,-0.0569 0.004,-0.006 0.0059,-0.0127 0.0042,-0.0141 -0.007,-0.006 -0.05795,0.0226 -0.100193,0.0559 -0.04849,0.0383 -0.06726,0.0498 -0.08149,0.0498 -0.0068,0 -0.0083,0.007 -0.0061,0.0305 0.0017,0.0168 7.52e-4,0.032 -0.0035,0.0339 -0.0035,0.002 -0.01894,0.005 -0.03421,0.007 -0.0255,0.004 -0.02972,0.002 -0.05148,-0.0163 -0.01303,-0.011 -0.0237,-0.0255 -0.0237,-0.0323 0,-0.0114 -0.0022,-0.012 -0.03194,-0.009 -0.04203,0.005 -0.04203,0.005 -0.04203,0.0319 v 0.0231 l -0.03417,-0.003 c -0.05474,-0.004 -0.06101,-0.0134 -0.05404,-0.0772 0.005,-0.0457 0.0081,-0.0549 0.02346,-0.0684 0.0097,-0.009 0.0177,-0.0199 0.0177,-0.0252 0,-0.0189 0.111431,-0.0815 0.174116,-0.0977 0.03202,-0.008 0.141927,-0.0768 0.141927,-0.0885 0,-0.003 -0.0047,-0.008 -0.0103,-0.0131 -0.0056,-0.004 -0.01946,-0.0235 -0.03066,-0.0415 -0.0112,-0.018 -0.04513,-0.0547 -0.07543,-0.0815 -0.03029,-0.0267 -0.06109,-0.0587 -0.06846,-0.071 -0.0074,-0.0123 -0.01492,-0.0237 -0.0168,-0.0252 -0.0031,-0.003 -0.02804,-0.0443 -0.03047,-0.0511 -0.0035,-0.01 -0.01298,-0.0259 -0.01654,-0.0284 -0.0022,-0.002 -0.01918,-0.0182 -0.03747,-0.037 -0.04097,-0.0421 -0.06685,-0.0852 -0.08676,-0.14429 -0.0057,-0.017 -0.01597,-0.0362 -0.02278,-0.0426 -0.03631,-0.0344 -0.07658,-0.17516 -0.07833,-0.27385 -7.52e-4,-0.032 -0.0041,-0.0553 -0.0093,-0.0606 -0.0092,-0.009 0.03402,-0.14631 0.04374,-0.17607 0.0034,-0.0104 0.0026,-0.0176 -0.0022,-0.0202 -0.01374,-0.007 -0.08111,-0.1098 -0.08537,-0.17373 -0.0041,-0.0618 0.0035,-0.23281 0.01929,-0.27556 0.0035,-0.009 0.01209,-0.0324 0.01922,-0.0511 0.0072,-0.0187 0.01819,-0.0494 0.02463,-0.0681 0.02936,-0.0855 0.05661,-0.1174 0.06908,-0.13238 0.0081,-0.01 0.01083,-0.0177 0.0068,-0.0199 -0.0037,-0.002 -0.02047,-0.0196 -0.03739,-0.0391 -0.04446,-0.0513 -0.06329,-0.10446 -0.07663,-0.21648 -0.0038,-0.0309 7.52e-4,-0.0436 0.02604,-0.0754 0.0066,-0.008 0.01201,-0.0191 0.01201,-0.024 0,-0.0219 0.0958,-0.0181 0.132005,0.005 0.01197,0.008 0.02471,0.014 0.02831,0.014 0.0099,0 0.08175,0.0589 0.08175,0.067 0,0.0133 0.05358,0.0564 0.07438,0.0599 0.0112,0.002 0.03007,0.01 0.04192,0.0172 0.01667,0.0106 0.03643,0.0153 0.08723,0.0207 0.03613,0.004 0.06715,0.009 0.06894,0.0113 0.0018,0.003 0.07054,0.004 0.152783,0.002 0.117239,-0.002 0.151835,-0.004 0.160215,-0.0108 0.0059,-0.004 0.01398,-0.008 0.01799,-0.008 0.004,0 0.0083,-0.002 0.0096,-0.004 0.0013,-0.003 0.01117,-0.009 0.0221,-0.0128 0.01517,-0.006 0.02222,-0.0147 0.02983,-0.0363 0.0126,-0.0359 0.101179,-0.15018 0.131562,-0.16974 0.02147,-0.0138 0.02761,-0.0148 0.09653,-0.0148 h 0.0736 c 0.01726,0.0408 0.03406,0.0851 0.03515,0.1282 7.52e-4,0.0244 -0.02348,0.0962 -0.03593,0.10951 -0.0098,0.0105 -0.0056,0.0788 0.0057,0.0938 0.01663,0.0219 0.03705,0.0845 0.03715,0.11367 7.52e-4,0.0296 0.04157,0.061 0.06481,0.10166 0.0072,0.0127 0.01317,0.025 0.01317,0.0275 0,0.003 0.0072,0.0179 0.016,0.0344 0.0088,0.0165 0.02097,0.0417 0.02702,0.056 0.0061,0.0143 -0.004,0.0311 0.003,0.0376 0.03299,0.0299 -0.0091,0.11065 0.0093,0.17155 v 0.0341 l 0.0458,0.0309 c 0.02518,0.017 0.105105,0.0405 0.127079,0.0523 0.04444,0.0237 0.06053,0.0369 0.124,0.10118 0.02404,0.0244 0.0493,0.0498 0.05614,0.0566 0.0172,0.0171 0.04243,0.0549 0.04794,0.0719 0.0026,0.008 0.0099,0.0244 0.01642,0.0369 0.0065,0.0125 0.017,0.0457 0.02336,0.0736 0.0064,0.028 0.0139,0.0536 0.01676,0.0567 0.0029,0.004 0.0091,0.0212 0.0139,0.0399 0.0047,0.0187 0.01152,0.043 0.01502,0.0539 0.022,0.0689 0.03201,0.1925 0.01714,0.21166 -0.01603,0.0207 -0.0018,0.13995 0.02852,0.23949 0.0076,0.0249 0.01676,0.0478 0.0204,0.0508 0.01025,0.009 0.0088,0.3966 -0.0015,0.4053 -0.0044,0.004 -0.0184,0.007 -0.03104,0.007 -0.02073,0 -0.02252,8.7e-4 -0.01831,0.0127 0.01681,0.046 0.03764,0.15889 0.04213,0.2284 0.0052,0.0797 -0.01507,0.13354 -0.05015,0.13354 -0.0074,0 -0.02137,0.005 -0.03104,0.0117 -0.01051,0.007 -0.03057,0.0126 -0.04967,0.0138 -0.01761,8.8e-4 -0.04056,0.004 -0.05097,0.008 -0.02382,0.008 -0.07641,0.008 -0.08193,3.7e-4 z" />
  <path
     sodipodi:nodetypes="cscscssssssssssssssssssscccssscssssssscssscsscsssccsssssssssssssssssssssssscsssssssssssssscsssssscsssscssccsssssssssssssssssssssssssssssssssssssssscsssccccssssssssccssssscccssscsscsssssccscsccccsssssssssssssssssssssssssssssscssscssssssssssscscssssssssssssssscsssssssscsssssssssssscssssssssssssssscsscsscsscssssssscssssscsssscscssscsssscscccssssssssccsscscc"
     inkscape:connector-curvature="0"
     id="path5059"
     d="m 20.333048,63.467952 c 0,0 0.1582,0.158073 0.168096,0.399836 0.01,0.241758 -0.118655,0.530011 0.01,0.678787 0.128551,0.148776 0.207661,0.381238 0.444999,0.381238 0.237321,0 0.464763,0 0.43509,0.06508 -0.02965,0.06508 -0.177992,0.195269 -0.217545,0.158076 -0.03956,-0.03719 0.02967,-0.102284 -0.177993,-0.09299 -0.207672,0.0093 -0.27689,-0.05579 -0.316435,0.03719 -0.03956,0.09299 -0.108783,0.288254 0.06922,0.288254 0.177993,0 0.37577,0.08368 0.494428,0.04649 0.118676,-0.03719 0.237335,-0.03719 0.415322,-0.09299 0.178001,-0.05579 0.355994,-0.102283 0.316436,0.01859 -0.03956,0.12088 -0.01977,0.07439 -0.09888,0.148778 -0.07911,0.07438 0,0.06508 0.02965,0.120877 0.02967,0.05579 -0.01,0.13018 -0.227429,0.148776 -0.217545,0.0186 -0.296655,-0.130176 -0.237334,0.04649 0.05935,0.176669 0,0.260358 -0.187872,0.148776 -0.187884,-0.111582 -0.355989,-0.42773 -0.346109,-0.232462 0.01,0.195268 0.06922,0.437029 -0.05933,0.288253 -0.128551,-0.148777 -0.355976,-0.353342 -0.355976,-0.260358 0,0.09299 0.128547,0.269656 0.266994,0.381236 0.138435,0.111583 0.247206,0.306853 0.5142,0.306853 0.266999,0 0.514205,-0.139477 0.583422,-0.120882 0.06923,0.0186 -0.01,0.176672 0.217558,0.102285 0.22745,-0.07439 0.543873,-0.399836 0.573534,-0.269656 0.02967,0.130178 -0.187885,0.288253 -0.0791,0.316146 0.108771,0.0279 0.138431,0.0093 0.385649,0.0186 0.247218,0.0093 0.494424,-0.04649 0.573538,0.0279 0.07911,0.07438 0.168116,0.223161 0.01979,0.297549 -0.14834,0.0744 -0.266995,0.111581 -0.425219,0.03719 -0.158211,-0.07439 -0.266995,-0.102279 -0.266995,-0.102279 0,0 -0.187884,-0.07439 -0.07911,0.04648 0.108783,0.120881 0.435116,0.241761 0.138448,0.213865 -0.296659,-0.02789 -0.365877,-0.260356 -0.553761,-0.185968 -0.187893,0.07439 -0.296667,0.01859 -0.395533,0.01859 -0.0989,0 -0.266995,-0.130177 -0.07912,0.06508 0.187885,0.195267 0.385662,0.464923 0.08899,0.381238 -0.296659,-0.08369 -0.415314,-0.297553 -0.553757,-0.278955 -0.138447,0.0186 -0.108787,0.02789 -0.138447,0.12088 -0.02966,0.09299 0.01,0.120879 -0.326316,-0.04649 -0.336216,-0.167371 -0.514217,-0.446326 -0.464763,-0.306849 0.04944,0.139478 0.158212,0.390537 0.316431,0.483519 0.158224,0.09299 0.494436,0.344044 0.583422,0.371941 0.08901,0.0279 0.07911,0.04649 0.444995,0.06508 0.365877,0.0186 0.702089,-0.08369 0.632871,0.04649 -0.06922,0.130179 -0.05933,0.288252 -0.227441,0.278955 -0.168104,-0.0093 -0.40543,-0.204568 -0.326328,-0.09299 0.07911,0.111583 0.03956,0.297551 -0.128551,0.167375 -0.168096,-0.13018 0.01,-0.204569 -0.22743,-0.167375 -0.237333,0.03719 -0.573545,0.04649 -0.573545,0.04649 0,0 -0.02966,0.204566 -0.03956,0.278956 -0.01,0.07438 0.316436,0.213862 0.573538,0.232461 0.257098,0.0186 0.464764,-0.0186 0.662541,-0.08369 0.197768,-0.06508 0.543877,-0.213863 0.662532,-0.18597 0.118679,0.02789 0.05935,0.03719 0.187896,0.139478 0.12856,0.102284 0.197777,0.139476 0.237322,0.158074 0.03956,0.01859 0.296667,-0.04649 0.276891,0.05579 -0.01979,0.102284 0.08899,0.371939 -0.06923,0.334746 -0.15822,-0.03719 -0.5142,-0.353343 -0.642752,-0.213866 -0.128563,0.139478 0.04944,0.241759 -0.08901,0.362641 -0.138436,0.12088 -0.08899,0.158073 -0.415326,0.01859 -0.326316,-0.139477 -0.504308,-0.176669 -0.385649,-0.04648 0.118655,0.130179 0.03955,0.353342 -0.168121,0.223163 -0.207636,-0.130179 -0.622962,-0.260358 -0.543848,-0.176673 0.07908,0.08369 0.563641,0.18597 0.425193,0.241763 -0.138443,0.05579 -0.336211,0.07438 -0.197768,0.12088 0.138435,0.04648 0.138435,0.148775 -0.01979,0.102282 -0.158211,-0.04648 -0.247206,-0.111581 -0.227429,-0.0186 0.01979,0.09299 0.07911,0.17667 -0.128551,0.06508 -0.207661,-0.111583 -0.454867,-0.111583 -0.365885,-0.05579 0.08901,0.05579 1.275634,0.548611 1.503088,0.567201 0.22743,0.0186 0.524085,0.0279 0.731746,-0.0186 0.207674,-0.0465 0.385666,-0.093 0.54389,-0.14877 0.158199,-0.05579 0.395545,-0.12088 0.543861,-0.08369 0.148327,0.03719 0.514216,0.08369 0.435102,0.20457 -0.07911,0.12088 -0.375756,0.0651 -0.454879,0.0744 -0.07911,0.009 -0.158224,-0.009 0.108771,0.11157 0.266998,0.12089 0.751538,0.15808 0.336216,0.18598 -0.415327,0.0279 -0.899858,-0.11158 -0.751539,0 0.148328,0.11158 0.217558,0.16737 0.326329,0.20457 0.108786,0.0372 0.494436,0.093 0.326332,0.23245 -0.168109,0.13948 -0.276879,0.13017 -0.583443,0.13948 -0.306543,0.01 -0.415302,0.0743 -0.632859,-0.0465 -0.217557,-0.12089 -0.444999,-0.26966 -0.296668,-0.11159 0.14834,0.15808 0.286772,0.5672 -0.12855,0.30685 -0.415326,-0.26036 -0.55377,-0.34403 -0.524097,-0.26965 0.02967,0.0743 0.296667,0.56719 0.01,0.4742 -0.286776,-0.093 -0.30654,-0.12087 -0.514204,-0.35332 -0.207662,-0.23246 -0.504329,-0.38124 -0.435111,-0.30685 0.06923,0.0744 0.346104,0.30685 0.227449,0.34404 -0.118654,0.0372 -0.177987,0.0743 -0.148328,0.13946 0.02967,0.0651 -0.158223,0.29756 -0.266998,0.20458 -0.10877,-0.093 -0.296654,-0.093 -0.217553,-0.0465 0.07911,0.0465 0.395545,0.29755 0.652656,0.30685 0.257102,0.009 0.90975,0.0279 1.186641,0.0279 0.276879,0 0.524084,-0.0279 0.415326,0.093 -0.108787,0.12088 -0.39555,0.17667 -0.128551,0.28826 0.266995,0.11158 0.553745,0.10228 0.800976,0.093 0.247205,-0.009 0.56364,0.24177 0.336199,0.25106 -0.227429,0.009 -0.761418,-0.12088 -0.702085,-0.0279 0.05933,0.093 0.158224,0.27894 0.444983,0.30685 0.286775,0.0279 0.731761,0.093 0.435102,0.19526 -0.296667,0.10229 -0.662527,-0.009 -0.91963,-0.0186 -0.257122,-0.009 -0.514224,-0.16737 -0.781223,-0.17666 -0.266982,-0.009 -0.5142,-0.12088 -0.711969,-0.23247 -0.197777,-0.11158 -0.435111,-0.12089 -0.316436,0 -0.168925,0.12385 -0.355659,-0.0816 -0.557687,-0.27235 -0.06922,-0.0651 -0.306552,-0.0743 -0.128559,0.11158 0.178,0.18597 0.211591,0.19797 0.51813,0.30954 0.306564,0.11159 0.909762,0.43703 1.443751,0.47423 0.533993,0.0372 1.008629,-0.0837 0.919646,0.0372 -0.08901,0.12088 -0.563666,0.13947 -0.16812,0.15807 0.395546,0.0186 1.058078,0.11158 1.325072,0.093 0.266999,-0.0186 0.94932,-0.18596 1.107544,-0.21386 0.158199,-0.0279 0.583418,-0.0279 0.395546,0.093 -0.187885,0.12089 -0.682322,0.26037 -0.356006,0.30685 0.326333,0.0465 0.791096,0.11158 0.39555,0.26966 -0.39555,0.15808 -0.702089,0.0838 -0.514204,0.21387 0.187884,0.13017 0.514204,0.45562 0.148327,0.39053 -0.365885,-0.0651 -0.840541,-0.41843 -0.850412,-0.23247 -0.01,0.18598 0.316436,0.48352 0.03954,0.42773 -0.276884,-0.0557 -1.147084,-0.45562 -1.048198,-0.23246 0.09889,0.22317 0.237326,0.6044 0.02966,0.41843 -0.207662,-0.18597 -1.018508,-0.76247 -0.899854,-0.56721 0.118659,0.19528 0.622975,0.6695 0.316436,0.64161 -0.30654,-0.0279 -0.731758,-0.64161 -0.830661,-0.54862 -0.09888,0.0929 0.128576,0.17667 -0.01,0.29756 -0.138424,0.12088 -0.820745,-0.53932 -0.682297,-0.34404 0.138431,0.19526 0.08898,0.30684 -0.04947,0.14877 -0.138419,-0.15808 -0.306539,-0.39983 -0.266981,-0.12089 0.03956,0.27896 -0.04944,0.6137 -0.20765,0.26966 -0.158223,-0.34405 -0.227441,-0.66019 -0.435114,-0.69738 -0.207666,-0.0372 -0.53318,-0.14027 -0.572725,-0.0566 -0.03956,0.0837 -0.04946,0.28826 0.07909,0.46493 0.128572,0.17667 0.315643,0.5773 0.533201,0.72606 0.217536,0.14878 0.603199,0.51143 0.939411,0.53933 0.336211,0.0279 0.632883,0.093 0.484543,0.11157 -0.148332,0.0186 -0.553774,0.0557 -0.187884,0.19528 0.365873,0.13947 0.692212,0.15807 1.087758,0.13947 0.39555,-0.0186 1.394294,-0.26966 1.453628,-0.23246 0.05933,0.0372 0.375756,0.42772 0.168091,0.43703 -0.207661,0.009 -0.781199,-0.0743 -0.494411,0.0372 0.28675,0.11158 0.800975,0.45562 0.474647,0.39054 -0.32632,-0.0651 -0.929526,-0.28826 -0.692205,-0.13019 0.237326,0.15807 0.395546,0.42774 0.06922,0.26966 -0.32632,-0.15807 -0.899866,-0.32545 -0.771302,-0.10228 0.128547,0.22317 0.04944,0.27896 -0.266999,0.13947 -0.316444,-0.13947 -0.711994,0 -0.781207,-0.0279 -0.06922,-0.0279 0,-0.10229 -0.365877,-0.0279 -0.365886,0.0743 -0.889982,-0.41842 -1.06797,-0.28825 -0.178001,0.13018 -0.187885,0.30685 -0.365885,0.14878 -0.177993,-0.15807 -0.494423,-0.49282 -0.474659,-0.30685 0.0293,1.48613 -0.01783,2.04379 0.02967,2.43621 -0.01978,0.23246 -0.05394,0.80822 0.01528,0.89191 l 0.03416,0.37267 c -0.05933,0.0837 -0.108758,1.07862 -0.01978,1.09722 0.08901,0.0186 0.375781,-0.0372 0.395558,0.0186 0.01977,0.0557 -0.02967,0.17667 -0.197769,0.19528 -0.168116,0.0186 -0.217553,-0.17669 -0.207661,0.0557 0.01,0.23246 -0.128551,0.36264 -0.01,0.36264 0.118655,0 0.302701,-0.0372 0.362035,-0.0372 0.05932,0 0.04945,0.0837 0.04945,0.1302 0,0.0465 -0.01978,0.0743 -0.158224,0.0743 -0.138443,0 -0.184042,-0.009 -0.184042,-0.009 0,0 -0.05933,0.093 0.01,0.10228 0.06922,0.009 0.118654,-0.009 -0.01978,0.10228 -0.138448,0.11159 -0.187885,0.20457 0.01,0.26966 0.197768,0.0651 0.276879,0.19527 0.108762,0.17668 -0.168095,-0.0186 -0.306543,-0.12089 -0.197768,0.0372 0.108783,0.15808 0.375781,0.35335 0.20766,0.35335 -0.168095,0 -0.217557,-0.25105 -0.187884,0.0186 0.008,0.78098 -0.0022,1.14944 -0.02975,2.13865 0,0 0.09889,0.0186 0.08901,0.0651 -0.01,0.0465 0.03954,0.0557 -0.02967,0.0837 -0.06923,0.0279 -0.0791,-0.0743 -0.118666,0.29756 -0.03955,0.37192 -0.04944,0.79037 -0.04944,0.97634 0,0.18597 0.237322,0.90195 0.227429,1.11581 -0.01,0.21388 -0.12855,0.23247 0,0.57652 0.128572,0.34404 0.296668,0.5486 0.22745,0.61369 -0.06923,0.0651 -0.395546,0.12088 -0.444983,0.009 -0.04945,-0.11159 0.108771,-0.31616 -0.12855,-0.13018 -0.237335,0.18597 -0.52411,0.21384 -0.52411,0.0837 0,-0.13017 -0.03956,-0.28825 -0.138435,-0.23246 -0.09889,0.0557 -0.326328,0.0557 -0.13843,-0.21386 0.187872,-0.26966 0.09395,-1.40408 0.143387,-1.72022 0.04944,-0.31615 0.102922,-2.57568 0.09305,-2.78025 v -2.94273 c -0.01978,-0.11159 0.09638,-0.70873 -0.05194,-0.73662 -0.14834,-0.0279 -0.142188,-0.009 -0.201521,-0.0743 -0.05934,-0.0651 -0.09716,-0.15807 0.169746,-0.16737 0.266994,-0.009 0.196035,-0.0186 0.186156,-0.10228 -0.01,-0.0837 7.7e-5,-0.57562 -0.02691,-0.79321 l -0.01978,-0.42978 c -0.04617,-0.68327 0.05722,-1.79792 0.02976,-2.88569 -0.07911,0 -0.0055,0.0331 -0.193395,0.17259 -0.187892,0.13947 -0.306559,0.17666 -0.32634,0.10227 -0.01976,-0.0743 0,-0.21387 -0.187885,0.0465 -0.187884,0.26036 -0.444983,0.52071 -0.533981,0.37193 -0.08899,-0.14878 -0.09887,-0.6137 -0.316431,-0.27894 -0.217557,0.33474 -0.464763,0.76247 -0.484556,0.50211 -0.01976,-0.26036 -0.02965,-1.15302 -0.128547,-0.82757 -0.09888,0.32546 -0.237326,0.84617 -0.346097,0.76247 -0.108774,-0.0837 0.08899,-0.82756 -0.227441,-0.5486 -0.316423,0.27895 -0.642751,0.65089 -0.524084,0.36264 0.118654,-0.28825 0.316431,-0.53001 0.247205,-0.60441 -0.06922,-0.0743 0.04944,-0.40912 -0.276879,0.0558 -0.326319,0.46492 -0.435102,0.70668 -0.435102,0.52071 0,-0.18597 0.177988,-0.44632 0.02967,-0.37193 -0.14834,0.0743 -0.494424,0.28824 -0.563641,0.32545 -0.06922,0.0372 -0.217546,0.13017 -0.178001,0.009 0.03957,-0.12086 0.07911,-0.10227 0.286771,-0.32544 0.207653,-0.22317 0.375757,-0.44633 0.257102,-0.39053 -0.118667,0.0557 -0.227428,0.13018 -0.385653,0.23245 -0.15822,0.10229 -0.385661,0.21387 -0.326328,0.093 0.05933,-0.12089 0.47466,-0.35336 0.47466,-0.44634 0,-0.093 0.28675,-0.46492 -0.207666,-0.12088 -0.494435,0.34404 -0.68232,0.51142 -0.771314,0.46492 -0.08899,-0.0465 -0.07911,-0.26036 0.158211,-0.40913 0.237327,-0.14878 0.474672,-0.54861 0.108775,-0.30685 -0.365864,0.24177 -0.781186,0.0279 -0.454883,-0.10228 0.326332,-0.13019 0.692217,-0.25108 0.385666,-0.22317 -0.306552,0.0279 -0.731762,0.14878 -0.563654,-0.0743 0.168108,-0.22316 0.405442,-0.29756 0.632871,-0.26037 0.22745,0.0372 0.464751,-0.0186 0.573559,0.0278 0.10875,0.0465 0.06922,0.0743 0.177987,-0.009 0.108788,-0.0837 0.03955,-0.19528 0.415327,-0.0929 0.375745,0.10228 0.652635,0.39984 1.265726,0.33474 0.613095,-0.0651 0.642756,-0.0651 0.425219,-0.16737 -0.217554,-0.10229 -0.207662,-0.29755 -0.0989,-0.28826 0.10877,0.009 0.415322,-0.22315 0.138443,-0.25105 -0.276878,-0.0279 -0.603206,-0.0186 -0.524096,-0.13947 0.07911,-0.12089 -0.07911,-0.0372 0.05933,-0.13949 0.138448,-0.10228 -0.177988,-0.11157 0.177992,-0.19526 0.355989,-0.0837 0.573547,0.0651 0.870205,0.13947 0.296655,0.0743 0.880086,0.093 1.028413,-0.0651 0.14834,-0.15807 0.257103,-0.13017 0.177993,-0.24176 -0.07911,-0.11158 -0.09888,-0.16738 -0.01978,-0.25106 0.07911,-0.0838 0.08901,-0.14877 -0.0791,-0.16737 -0.168108,-0.0186 -0.148327,-0.39984 -0.306551,-0.30685 -0.158212,0.093 -0.118654,0.26036 -0.237326,0.47422 -0.118655,0.21386 -0.316432,0.37193 -0.346105,0.23246 -0.02967,-0.13949 0.06923,-0.25104 -0.168108,-0.13018 -0.237321,0.12088 -0.257102,0.13947 -0.266982,-0.0279 -0.01,-0.16738 -0.108786,-0.37193 -0.326345,-0.14878 -0.217532,0.22316 -0.444973,0.36265 -0.395532,0.20457 0.04945,-0.15809 0.108782,-0.23247 -0.158212,-0.20457 -0.266995,0.0279 -0.444999,0.0557 -0.355993,-0.13948 0.089,-0.19527 0.207653,-0.41842 -0.02967,-0.33473 -0.237321,0.0837 -0.425205,0.19525 -0.5142,0.29755 -0.08899,0.10229 -0.385665,-0.009 -0.266994,-0.14877 0.118654,-0.13949 0.444995,-0.54862 -0.09889,-0.25106 -0.543852,0.29754 -0.751514,0.40912 -0.533968,0.16737 0.217532,-0.24176 0.425194,-0.5858 -0.02967,-0.28826 -0.454883,0.29756 -1.008653,0.34405 -0.662545,0.14878 0.346109,-0.19527 0.761435,-0.5765 0.32632,-0.43703 -0.43509,0.13948 -1.137191,0.16738 -0.662519,-0.0465 0.474655,-0.21386 0.830648,-0.43702 0.494436,-0.33475 -0.336224,0.10229 -0.603219,-0.22316 -0.336224,-0.26035 0.266982,-0.0372 0.73177,-0.0557 0.840532,-0.0279 0.108783,0.0279 0.276878,0.0743 0.622975,0.12089 0.346117,0.0465 0.613103,0.0186 0.464775,-0.0278 -0.14834,-0.0465 -0.395545,-0.0743 0,-0.0837 0.395533,-0.009 0.533981,0.0557 0.81086,0.14877 0.27689,0.093 0.692192,0.22317 0.563641,0.0557 -0.128551,-0.16737 -0.583422,-0.42773 -0.03955,-0.29755 0.543874,0.13018 1.097631,0.36262 1.582174,0.22316 0.484552,-0.13949 0.389402,0.18721 0.389402,-0.11963 0,-0.30684 0.05933,-0.5207 0.01,-0.41842 -0.04944,0.10229 -0.0334,0.20331 -0.458619,0.21261 -0.425207,0.009 -0.711981,0.0186 -0.692193,-0.0837 0.01977,-0.10228 0.04944,-0.16737 -0.257122,-0.17667 -0.30654,-0.01 -0.682296,0.0558 -0.632859,-0.0837 0.04944,-0.13948 0.257102,-0.47422 -0.02967,-0.39983 -0.286763,0.0744 -0.435103,0.21386 -0.603207,0.26965 -0.168108,0.0558 -0.108775,-0.10228 -0.08899,-0.19527 0.01976,-0.093 0.217545,-0.18597 -0.178005,-0.10228 -0.395545,0.0837 -0.721853,0.15807 -0.464763,-0.0186 0.257102,-0.17667 0.484557,-0.16738 0.237338,-0.29755 -0.247218,-0.13018 -0.613082,-0.17668 -0.415313,-0.288257 0.197768,-0.111584 0.177975,-0.130179 0.474646,-0.09299 0.296643,0.03719 0.425207,-0.0093 0.632855,0.0093 0.207666,0.0186 0.247231,0.04649 0.217559,-0.03719 -0.02966,-0.08368 -0.197765,-0.269656 0.158223,-0.130179 0.35598,0.139477 0.998756,0.483516 1.325072,0.492816 0.326333,0.009 0.672428,-0.0186 0.286775,-0.11158 -0.385661,-0.09299 -0.642764,-0.232462 -0.425219,-0.241759 0.217558,-0.0093 0.131556,0.01805 0.444987,-0.03719 0.257264,-0.04535 0.909759,-0.892653 0.563662,-0.632295 -0.346104,0.260356 -0.375769,0.464924 -0.543872,0.502117 -0.168109,0.03719 0.247205,-0.622998 -0.03956,-0.390536 -0.286775,0.232461 -0.642764,0.613697 -0.672424,0.446326 -0.02967,-0.167371 0.168096,-0.437028 -0.07911,-0.399835 -0.247218,0.03719 -0.484552,0.03719 -0.622983,0.05579 -0.138448,0.0186 0.296655,-0.269655 0.04944,-0.25106 -0.247219,0.0186 -0.692205,0.241762 -0.721878,0.139479 -0.02965,-0.102283 0.474659,-0.399834 0.197781,-0.353344 -0.276879,0.04649 -0.583417,-0.0279 -0.583417,-0.0279 0,0 0.28677,-0.251061 0.64275,-0.251061 0.355994,0 0.474648,0.0279 0.781212,0.130182 0.306539,0.102282 1.008636,0.167371 1.058077,0.111581 0.04944,-0.05579 0.326329,0.05579 0.563642,-0.297552 0.237333,-0.353342 -0.02965,-0.539313 -0.108763,-0.344045 -0.07911,0.195269 -0.425218,0.576507 -0.474659,0.455628 -0.04944,-0.120882 0.01978,-0.325448 -0.207662,-0.260359 -0.227428,0.06509 -0.682308,0.325447 -0.721865,0.223165 -0.03955,-0.102283 0.06922,-0.399836 -0.02966,-0.390536 -0.09889,0.0093 -0.533993,0.185967 -0.613103,0.120879 -0.07911,-0.06508 -0.148328,-0.446326 -0.257102,-0.474222 -0.108783,-0.0279 -0.454892,0.0744 -0.662532,0.03719 -0.207662,-0.03719 0.118658,-0.213865 0.286754,-0.251059 0.168116,-0.03719 0.326328,0.0093 0.286783,-0.120879 -0.03956,-0.13018 -0.266994,-0.325449 0.07911,-0.204567 0.346097,0.120882 0.840525,0.502118 1.354725,0.464923 0.514225,-0.03719 0.524121,-0.03719 0.622999,-0.102283 0.09889,-0.06509 0.177989,-0.06509 0.07911,-0.167371 -0.0989,-0.102285 0,-0.167374 -0.01979,-0.25106 -0.01977,-0.08369 0.158223,-0.241761 -0.1582,-0.0093 -0.31646,0.232461 -0.484552,0.213865 -0.464776,0.102284 0.01977,-0.111581 0.09888,-0.158076 -0.148327,-0.158076 -0.247231,0 -0.355993,-0.09299 -0.266999,-0.102281 0.089,-0.0093 0.543878,-0.07438 0,-0.111583 -0.543872,-0.03719 -0.474655,0.232462 -0.642763,0.195268 -0.168105,-0.03719 -0.207649,-0.148776 -0.108771,-0.23246 0.09889,-0.08369 0.444983,-0.297551 0.672425,-0.241763 0.227449,0.05579 0.118667,-0.0093 0.266994,0.06508 0.148332,0.07439 0.494436,0.09299 0.662545,0.09299 0.168103,0 0.12855,-0.07438 0.09889,-0.148777 -0.02967,-0.07439 0.168091,-0.05579 -0.108787,-0.102281 -0.276891,-0.0465 -0.266995,-0.139478 -0.286771,-0.195269 -0.01977,-0.05579 -0.01,-0.176672 -0.247218,-0.05579 -0.237313,0.120879 -0.55377,0.148773 -0.454871,0.04649 0.09889,-0.102283 0.514204,-0.223162 0.346108,-0.223162 -0.168116,0 -0.454879,-0.167373 -0.286775,-0.148776 0.168108,0.0186 0.415327,-0.03719 0.672424,0.06508 0.257103,0.102285 0.533981,0.297552 0.711973,0.148778 0.178013,-0.148778 0.336225,-0.31615 0.22745,-0.325447 -0.10877,-0.0093 -0.128551,-0.111583 -0.22745,0 -0.09888,0.111581 -0.168095,0.08368 -0.158199,0.0093 0.01,-0.07439 0.118655,-0.05579 -0.0989,-0.0093 -0.217545,0.04648 -0.138444,-0.0744 -0.197769,-0.102284 -0.05933,-0.0279 -0.03954,-0.05579 -0.207662,-0.0186 -0.168108,0.03719 -0.07911,-0.0093 -0.148314,-0.111583 -0.06923,-0.102281 -0.02967,-0.08369 -0.178013,-0.130178 -0.148332,-0.04649 -0.06922,-0.130178 -0.02965,-0.185969 0.03955,-0.05579 0.118659,-0.204568 0.286751,-0.08368 0.16812,0.120882 0.207665,0.204567 0.494448,0.176672 0.286775,-0.0279 0.444974,-0.09299 0.257102,-0.213866 -0.187884,-0.120879 -0.05933,-0.120879 -0.22745,-0.251058 -0.168095,-0.130178 -0.35598,-0.213865 -0.35598,-0.213865 0,0 0.22743,-0.06509 0.286771,0 0.05934,0.06509 0.247218,0.102283 0.177992,0.0279 -0.06922,-0.07438 0.04944,-0.167373 0.14834,-0.06508 0.09888,0.102284 0.237321,0.148777 0.22743,-0.0186 -0.01,-0.167373 -0.03956,-0.808967 0.04944,-1.004235 0.08901,-0.195268 0.148327,-0.176673 0.148327,-0.176673 z"
     style="fill:none;fill-opacity:0.98566314;fill-rule:evenodd;stroke:#0000ff;stroke-width:0.2;stroke-linecap:butt;stroke-linejoin:miter;stroke-miterlimit:4;stroke-dasharray:none;stroke-opacity:1" />
  <path
     style="fill:none;fill-rule:evenodd;stroke:#0000ff;stroke-width:0.2;stroke-linecap:butt;stroke-linejoin:miter;stroke-miterlimit:4;stroke-dasharray:none;stroke-opacity:1"
     d="m 59.422363,87.514542 c 0,0 2.602894,-0.349395 4.207907,-1.437448 1.605018,-1.088054 0.481505,-1.088054 2.594775,-3.053572 2.11327,-1.965516 2.533169,-2.512864 3.790431,-2.618159"
     id="path4624"
     inkscape:connector-curvature="0"
     sodipodi:nodetypes="ccsc" />
</svg>
