<?xml version="1.0" encoding="UTF-8" standalone="no"?>
<svg
   xmlns:dc="http://purl.org/dc/elements/1.1/"
   xmlns:cc="http://creativecommons.org/ns#"
   xmlns:rdf="http://www.w3.org/1999/02/22-rdf-syntax-ns#"
   xmlns:svg="http://www.w3.org/2000/svg"
   xmlns="http://www.w3.org/2000/svg"
   xmlns:sodipodi="http://sodipodi.sourceforge.net/DTD/sodipodi-0.dtd"
   xmlns:inkscape="http://www.inkscape.org/namespaces/inkscape"
   height="90.74704mm"
   version="1.1"
   viewBox="0 0 143.63852 90.74704"
   width="143.63852mm"
   id="svg86"
   sodipodi:docname="iot96_orangepi-pi.svg"
   inkscape:version="0.92+devel unknown">
  <metadata
     id="metadata90">
    <rdf:RDF>
      <cc:Work
         rdf:about="">
        <dc:format>image/svg+xml</dc:format>
        <dc:type
           rdf:resource="http://purl.org/dc/dcmitype/StillImage" />
        <dc:title></dc:title>
      </cc:Work>
    </rdf:RDF>
  </metadata>
  <sodipodi:namedview
     pagecolor="#ffffff"
     bordercolor="#666666"
     inkscape:document-rotation="0"
     borderopacity="1"
     objecttolerance="10"
     gridtolerance="10"
     guidetolerance="10"
     inkscape:pageopacity="0"
     inkscape:pageshadow="2"
     inkscape:window-width="1600"
     inkscape:window-height="835"
     id="namedview88"
     showgrid="false"
     inkscape:zoom="1.0812639"
     inkscape:cx="359.49823"
     inkscape:cy="144.30138"
     inkscape:window-x="0"
     inkscape:window-y="0"
     inkscape:window-maximized="1"
     inkscape:current-layer="svg86"
     fit-margin-top="0"
     fit-margin-left="0"
     fit-margin-right="0"
     fit-margin-bottom="0" />
  <defs
     id="defs2" />
  <path
     inkscape:connector-curvature="0"
     id="path4"
     stroke-width="0.5"
     stroke="red"
     fill="none"
     d="m 0.25,3.25 a 3,3 0 0 1 3,-3 h 60 a 3,3 0 0 1 3,3 v 35 a 3,3 0 0 1 -3,3 h -25 a 14,14 0 0 0 -18,0 h -17 a 3,3 0 0 1 -3,-3 z"
     style="stroke:#ff0000;stroke-opacity:1" />
  <circle
     cx="7.25"
     cy="12.25"
     fill="none"
     r="1.25"
     stroke="red"
     stroke-width="0.5"
     id="circle6"
     style="stroke:#ff0000;stroke-opacity:1" />
  <circle
     cx="7.25"
     cy="34.25"
     fill="none"
     r="1.25"
     stroke="red"
     stroke-width="0.5"
     id="circle8"
     style="stroke:#ff0000;stroke-opacity:1" />
  <circle
     cx="59.25"
     cy="12.25"
     fill="none"
     r="1.25"
     stroke="red"
     stroke-width="0.5"
     id="circle10"
     style="stroke:#ff0000;stroke-opacity:1" />
  <circle
     cx="59.25"
     cy="34.25"
     fill="none"
     r="1.25"
     stroke="red"
     stroke-width="0.5"
     id="circle12"
     style="stroke:#ff0000;stroke-opacity:1" />
  <path
     inkscape:connector-curvature="0"
     id="path18"
     stroke-width="0.5"
     stroke="red"
     fill="none"
     d="m 0.25,46.25 a 3,3 0 0 1 3,-3 h 60 a 3,3 0 0 1 3,3 v 35 a 3,3 0 0 1 -3,3 h -4 a 3,3 0 0 1 -3,-3 v -16 h -14.5 v 16 a 3,3 0 0 1 -3,3 h -0.5 a 14,14 0 0 0 -18,0 h -17 a 3,3 0 0 1 -3,-3 z"
     style="stroke:#ff0000;stroke-opacity:1" />
  <rect
     id="rect20"
     y="52"
     x="10.75"
     width="43"
     stroke-width="0.5"
     stroke="red"
     height="6.5"
     fill="none"
     style="stroke:#ff0000;stroke-opacity:1" />
  <circle
     cx="7.25"
     cy="55.25"
     fill="none"
     r="1.25"
     stroke="red"
     stroke-width="0.5"
     id="circle22"
     style="stroke:#ff0000;stroke-opacity:1" />
  <circle
     cx="7.25"
     cy="77.25"
     fill="none"
     r="1.25"
     stroke="red"
     stroke-width="0.5"
     id="circle24"
     style="stroke:#ff0000;stroke-opacity:1" />
  <circle
     cx="59.25"
     cy="55.25"
     fill="none"
     r="1.25"
     stroke="red"
     stroke-width="0.5"
     id="circle26"
     style="stroke:#ff0000;stroke-opacity:1" />
  <circle
     cx="59.25"
     cy="77.25"
     fill="none"
     r="1.25"
     stroke="red"
     stroke-width="0.5"
     id="circle28"
     style="stroke:#ff0000;stroke-opacity:1" />
  <rect
     id="rect32"
     y="76.050003"
     x="9.75"
     width="7.5"
     stroke-width="0.5"
     stroke="red"
     height="5.1999998"
     fill="none"
     style="stroke:#ff0000;stroke-opacity:1" />
  <path
     id="path58"
     stroke-width="0.5"
     stroke="red"
     fill="none"
     d="m 105.38852,90.497038 a 3,3 0 0 1 -3,-3 v -60 a 3,3 0 0 1 3,-3 h 35 a 3,3 0 0 1 3,3 v 4 a 3,3 0 0 1 -3,3 v -0.5 a 0.5,0.5 0 0 0 -1,0 v 0.5 h -3 a 3,3 0 0 1 -3,-3 v -4 h -16 v 4 a 3,3 0 0 1 -6,0 v -4 h -4 a 2,2 0 0 0 -2,2 v 5 46 5 a 2,2 0 0 0 2,2 h 4 v -4 a 3,3 0 0 1 6,0 v 4 a 3,3 0 0 1 -3,3 z"
     inkscape:connector-curvature="0"
     style="stroke:#ff0000;stroke-opacity:1" />
  <circle
     id="circle60-6"
     stroke-width="0.5"
     stroke="red"
     r="1.25"
     fill="none"
     cy="114.38852"
     cx="-83.49704"
     transform="rotate(-90)"
     style="stroke:#ff0000;stroke-opacity:1" />
  <circle
     id="circle62"
     stroke-width="0.5"
     stroke="red"
     r="1.25"
     fill="none"
     cy="114.38852"
     cx="-31.497038"
     transform="rotate(-90)"
     style="stroke:#ff0000;stroke-opacity:1" />
  <rect
     id="rect64"
     y="135.13852"
     x="-32.747036"
     width="3.5"
     stroke-width="0.5"
     stroke="red"
     ry="1.25"
     rx="1.25"
     height="2.5"
     fill="none"
     transform="rotate(-90)"
     style="stroke:#ff0000;stroke-opacity:1" />
  <path
     id="path48"
     stroke-width="0.5"
     stroke="red"
     fill="none"
     d="m 88.388512,78.497036 a 3,3 0 0 1 -3,-3 v -60 a 3,3 0 0 1 3,-3 h 34.999998 a 3,3 0 0 1 3,3 v 4 a 3,3 0 0 1 -3,3 v -0.5 a 0.5,0.5 0 0 0 -1,0 v 0.5 h -3 a 3,3 0 0 1 -3,-3 v -4 h -16 v 4 a 3,3 0 0 1 -5.999998,0 v -4 h -4 a 2,2 0 0 0 -2,2 v 5 46 5 a 2,2 0 0 0 2,2 h 4 v -4 a 3,3 0 0 1 5.999998,0 v 4 a 3,3 0 0 1 -2.999998,3 z"
     inkscape:connector-curvature="0"
     style="stroke:#ff0000;stroke-opacity:1" />
  <circle
     id="circle50-5"
     stroke-width="0.5"
     stroke="red"
     r="1.25"
     fill="none"
     cy="97.388512"
     cx="-71.49704"
     transform="rotate(-90)"
     style="stroke:#ff0000;stroke-opacity:1" />
  <circle
     id="circle52"
     stroke-width="0.5"
     stroke="red"
     r="1.25"
     fill="none"
     cy="97.388512"
     cx="-19.497036"
     transform="rotate(-90)"
     style="stroke:#ff0000;stroke-opacity:1" />
  <rect
     id="rect54"
     y="118.13851"
     x="-20.747036"
     width="3.5"
     stroke-width="0.5"
     stroke="red"
     ry="1.25"
     rx="1.25"
     height="2.5"
     fill="none"
     transform="rotate(-90)"
     style="stroke:#ff0000;stroke-opacity:1" />
  <path
     inkscape:connector-curvature="0"
     id="path36"
     stroke-width="0.5"
     stroke="red"
     fill="none"
     d="m 71.388515,66.497037 a 3,3 0 0 1 -3,-3 V 3.4970368 a 3,3 0 0 1 3,-3.00000004 h 35.000005 a 3,3 0 0 1 3,3.00000004 v 4 a 3,3 0 0 1 -3,3.0000002 h -4 A 3,3 0 0 1 99.388515,7.4970368 v -4 h -16 v 4 a 3,3 0 0 1 -6,0 v -4 h -4 a 2,2 0 0 0 -2,2 v 5.0000002 46 5 a 2,2 0 0 0 2,2 h 4 v -4 a 3,3 0 0 1 6,0 v 4 a 3,3 0 0 1 -3,3 z"
     style="stroke:#ff0000;stroke-opacity:1" />
  <circle
     id="circle38"
     stroke-width="0.5"
     stroke="red"
     r="1.25"
     fill="none"
     cy="80.388512"
     cx="-59.497036"
     transform="rotate(-90)"
     style="stroke:#ff0000;stroke-opacity:1" />
  <circle
     id="circle40"
     stroke-width="0.5"
     stroke="red"
     r="1.25"
     fill="none"
     cy="80.388512"
     cx="-7.4970369"
     transform="rotate(-90)"
     style="stroke:#ff0000;stroke-opacity:1" />
  <circle
     id="circle42"
     stroke-width="0.5"
     stroke="red"
     r="1.25"
     fill="none"
     cy="102.38851"
     cx="-7.4970369"
     transform="rotate(-90)"
     style="stroke:#ff0000;stroke-opacity:1" />
  <path
     inkscape:connector-curvature="0"
     id="path66"
     stroke-width="0.5"
     stroke="red"
     fill="none"
     d="m 123.38851,36.497038 a 3,3 0 0 1 3,3 v 4 a 3,3 0 0 1 -3,3 h -4 a 3,3 0 0 1 -3,-3 v -4 a 3,3 0 0 1 3,-3 z"
     style="stroke:#ff0000;stroke-opacity:1" />
  <rect
     id="rect68"
     y="-42.99704"
     x="-120.38851"
     width="4"
     height="1.5"
     fill="black"
     transform="scale(-1)"
     style="stroke:none;stroke-opacity:1" />
  <circle
     id="circle70"
     stroke-width="0.5"
     stroke="red"
     r="1.25"
     fill="none"
     cy="-39.49704"
     cx="-119.38851"
     transform="scale(-1)"
     style="stroke:#ff0000;stroke-opacity:1" />
  <path
     inkscape:connector-curvature="0"
     id="path74"
     stroke-width="0.5"
     stroke="red"
     fill="none"
     d="m 123.38851,48.497038 a 3,3 0 0 1 3,3 v 4 a 3,3 0 0 1 -3,3 h -4 a 3,3 0 0 1 -3,-3 v -4 a 3,3 0 0 1 3,-3 z"
     style="stroke:#ff0000;stroke-opacity:1" />
  <circle
     id="circle76"
     stroke-width="0.5"
     stroke="red"
     r="1.25"
     fill="none"
     cy="-51.49704"
     cx="-119.38851"
     transform="scale(-1)"
     style="stroke:#ff0000;stroke-opacity:1" />
  <path
     inkscape:connector-curvature="0"
     id="path80"
     stroke-width="0.5"
     stroke="red"
     fill="none"
     d="m 123.38851,60.497038 a 3,3 0 0 1 3,3 v 4 a 3,3 0 0 1 -3,3 h -4 a 3,3 0 0 1 -3,-3 v -4 a 3,3 0 0 1 3,-3 z"
     style="stroke:#ff0000;stroke-opacity:1" />
  <circle
     id="circle82"
     stroke-width="0.5"
     stroke="red"
     r="1.25"
     fill="none"
     cy="-63.49704"
     cx="-119.38851"
     transform="scale(-1)"
     style="stroke:#ff0000;stroke-opacity:1" />
  <text
     xml:space="preserve"
     style="font-style:normal;font-variant:normal;font-weight:normal;font-stretch:normal;font-size:13.34822369px;line-height:125%;font-family:Comfortaa;-inkscape-font-specification:'Comfortaa, Normal';font-variant-ligatures:normal;font-variant-caps:normal;font-variant-numeric:normal;font-feature-settings:normal;text-align:start;letter-spacing:0px;word-spacing:0px;writing-mode:lr-tb;text-anchor:start;fill:none;stroke:#0000ff;stroke-width:0.30000001;stroke-linecap:butt;stroke-linejoin:miter;stroke-miterlimit:4;stroke-dasharray:none;stroke-opacity:1"
     x="7.2928514"
     y="72.491173"
     id="text4269"><tspan
       sodipodi:role="line"
       id="tspan4267"
       x="7.2928514"
       y="72.491173"
       style="font-style:normal;font-variant:normal;font-weight:normal;font-stretch:normal;font-size:13.34822369px;font-family:Comfortaa;-inkscape-font-specification:'Comfortaa, Normal';font-variant-ligatures:normal;font-variant-caps:normal;font-variant-numeric:normal;font-feature-settings:normal;text-align:start;writing-mode:lr-tb;text-anchor:start;stroke:#0000ff;stroke-width:0.30000001;stroke-miterlimit:4;stroke-dasharray:none;stroke-opacity:1">22รท7</tspan></text>
  <rect
     id="rect16"
     y="23.25"
     x="7.25"
     width="5"
     height="5"
     fill="black" />
</svg>
