<?xml version="1.0" encoding="UTF-8" standalone="no"?>
<svg
   xmlns:dc="http://purl.org/dc/elements/1.1/"
   xmlns:cc="http://creativecommons.org/ns#"
   xmlns:rdf="http://www.w3.org/1999/02/22-rdf-syntax-ns#"
   xmlns:svg="http://www.w3.org/2000/svg"
   xmlns="http://www.w3.org/2000/svg"
   xmlns:sodipodi="http://sodipodi.sourceforge.net/DTD/sodipodi-0.dtd"
   xmlns:inkscape="http://www.inkscape.org/namespaces/inkscape"
   height="66mm"
   version="1.1"
   viewBox="0 0 166.5 66"
   width="166.5mm"
   id="svg78"
   sodipodi:docname="iot96_carbon-art.svg"
   inkscape:version="0.92.1 r">
  <metadata
     id="metadata82">
    <rdf:RDF>
      <cc:Work
         rdf:about="">
        <dc:format>image/svg+xml</dc:format>
        <dc:type
           rdf:resource="http://purl.org/dc/dcmitype/StillImage" />
        <dc:title />
      </cc:Work>
    </rdf:RDF>
  </metadata>
  <sodipodi:namedview
     pagecolor="#ffffff"
     bordercolor="#666666"
     borderopacity="1"
     objecttolerance="10"
     gridtolerance="10"
     guidetolerance="10"
     inkscape:pageopacity="0"
     inkscape:pageshadow="2"
     inkscape:window-width="3200"
     inkscape:window-height="1671"
     id="namedview80"
     showgrid="false"
     inkscape:zoom="14.128936"
     inkscape:cx="185.70375"
     inkscape:cy="190.31635"
     inkscape:window-x="0"
     inkscape:window-y="55"
     inkscape:window-maximized="1"
     inkscape:current-layer="svg78"
     fit-margin-top="0"
     fit-margin-left="0"
     fit-margin-right="0"
     fit-margin-bottom="0" />
  <defs
     id="defs2" />
  <g
     id="g14"
     transform="rotate(-90,33.118876,32.868875)">
    <path
       style="fill:none;stroke:#ff0000;stroke-width:0.5"
       inkscape:connector-curvature="0"
       d="M 0,3 A 3,3 0 0 1 3,0 h 60 a 3,3 90 0 1 3,3 v 30 a 3,3 -180 0 1 -3,3 H 39 A 16,16 -90 0 0 19,36 H 3 A 3,3 -90 0 1 0,33 Z"
       id="path4" />
    <circle
       style="fill:none;stroke:#ff0000;stroke-width:0.5"
       cx="7"
       cy="7"
       r="1.25"
       id="circle6" />
    <circle
       style="fill:none;stroke:#ff0000;stroke-width:0.5"
       cx="7"
       cy="29"
       r="1.25"
       id="circle8" />
    <circle
       style="fill:none;stroke:#ff0000;stroke-width:0.5"
       cx="59"
       cy="7"
       r="1.25"
       id="circle10" />
    <circle
       style="fill:none;stroke:#ff0000;stroke-width:0.5"
       cx="59"
       cy="29"
       r="1.25"
       id="circle12" />
  </g>
  <path
     id="path16"
     d="m 41.250001,65.987751 a 3,3 0 0 1 -3,-3 l 0,-60 a 3,3 0 0 1 3,-3 h 30 a 3,3 0 0 1 3,3 v 24 a 16,16 0 0 0 0,20 v 16 a 3,3 0 0 1 -3,3 z"
     inkscape:connector-curvature="0"
     style="fill:none;stroke:#ff0000;stroke-width:0.5" />
  <circle
     id="circle18"
     r="1.25"
     cy="45.25"
     cx="-58.987751"
     style="fill:none;stroke:#ff0000;stroke-width:0.5"
     transform="rotate(-90)" />
  <circle
     id="circle20"
     r="1.25"
     cy="67.25"
     cx="-58.987751"
     style="fill:none;stroke:#ff0000;stroke-width:0.5"
     transform="rotate(-90)" />
  <circle
     id="circle22"
     r="1.25"
     cy="45.25"
     cx="-6.987751"
     style="fill:none;stroke:#ff0000;stroke-width:0.5"
     transform="rotate(-90)" />
  <circle
     id="circle24"
     r="1.25"
     cy="67.25"
     cx="-6.987751"
     style="fill:none;stroke:#ff0000;stroke-width:0.5"
     transform="rotate(-90)" />
  <rect
     id="rect26"
     y="41.598534"
     x="-55.48922"
     width="40.997326"
     ry="0"
     rx="0"
     height="7.3029375"
     style="fill:none;stroke:#ff0000;stroke-width:0.49706259"
     transform="rotate(-90)" />
  <g
     transform="rotate(-180,71.125,32.993876)"
     id="g38">
    <path
       style="fill:none;stroke:#ff0000;stroke-width:0.5"
       inkscape:connector-curvature="0"
       d="M 0,3 A 3,3 0 0 1 3,0 h 60 a 3,3 90 0 1 3,3 v 30 a 3,3 -180 0 1 -3,3 h -4 a 3,3 -90 0 1 -3,-3 v -4 a 3,3 0 0 1 3,-3 h 4 V 10 H 59 A 3,3 -90 0 1 56,7 V 3 H 10 V 7 A 3,3 -180 0 1 7,10 H 3 A 3,3 -90 0 1 0,7 Z"
       id="path30" />
    <circle
       style="fill:none;stroke:#ff0000;stroke-width:0.5"
       cx="7"
       cy="7"
       r="1.25"
       id="circle32" />
    <circle
       style="fill:none;stroke:#ff0000;stroke-width:0.5"
       cx="59"
       cy="7"
       r="1.25"
       id="circle34" />
    <circle
       style="fill:none;stroke:#ff0000;stroke-width:0.5"
       cx="59"
       cy="29"
       r="1.25"
       id="circle36" />
  </g>
  <g
     transform="rotate(-180,77.125,26.993876)"
     id="g48">
    <path
       style="fill:none;stroke:#ff0000;stroke-width:0.5"
       inkscape:connector-curvature="0"
       d="M 0,3 A 3,3 0 0 1 3,0 h 60 a 3,3 90 0 1 3,3 v 30 a 3,3 -180 0 1 -3,3 h -4 a 3,3 -90 0 1 -3,-3 v -4 a 3,3 0 0 1 3,-3 h 4 V 10 H 59 A 3,3 -90 0 1 56,7 V 3 H 10 V 7 A 3,3 -180 0 1 7,10 H 3 A 3,3 -90 0 1 0,7 Z"
       id="path40" />
    <circle
       style="fill:none;stroke:#ff0000;stroke-width:0.5"
       cx="7"
       cy="7"
       r="1.25"
       id="circle42" />
    <circle
       style="fill:none;stroke:#ff0000;stroke-width:0.5"
       cx="59"
       cy="7"
       r="1.25"
       id="circle44" />
    <circle
       style="fill:none;stroke:#ff0000;stroke-width:0.5"
       cx="59"
       cy="29"
       r="1.25"
       id="circle46" />
  </g>
  <g
     transform="rotate(-180,83.125,20.993876)"
     id="g58">
    <path
       style="fill:none;stroke:#ff0000;stroke-width:0.5"
       inkscape:connector-curvature="0"
       d="M 0,3 A 3,3 0 0 1 3,0 h 60 a 3,3 90 0 1 3,3 v 30 a 3,3 -180 0 1 -3,3 h -4 a 3,3 -90 0 1 -3,-3 v -4 a 3,3 0 0 1 3,-3 h 4 V 10 H 59 A 3,3 -90 0 1 56,7 V 3 H 10 V 7 A 3,3 -180 0 1 7,10 H 3 A 3,3 -90 0 1 0,7 Z"
       id="path50" />
    <circle
       style="fill:none;stroke:#ff0000;stroke-width:0.5"
       cx="7"
       cy="7"
       r="1.25"
       id="circle52" />
    <circle
       style="fill:none;stroke:#ff0000;stroke-width:0.5"
       cx="59"
       cy="7"
       r="1.25"
       id="circle54" />
    <circle
       style="fill:none;stroke:#ff0000;stroke-width:0.5"
       cx="59"
       cy="29"
       r="1.25"
       id="circle56" />
  </g>
  <g
     transform="rotate(-180,61.125,18.493876)"
     id="g64">
    <path
       style="fill:none;stroke:#ff0000;stroke-width:0.5"
       inkscape:connector-curvature="0"
       d="M 3,10 A 3,3 -90 0 1 0,7 V 3 A 3,3 0 0 1 3,0 h 4 a 3,3 90 0 1 3,3 v 4 a 3,3 -180 0 1 -3,3 z"
       id="path60" />
    <circle
       style="fill:none;stroke:#ff0000;stroke-width:0.5"
       cx="7"
       cy="2.5"
       r="1.25"
       id="circle62" />
  </g>
  <g
     transform="rotate(-180,67.125,18.493876)"
     id="g70">
    <path
       style="fill:none;stroke:#ff0000;stroke-width:0.5"
       inkscape:connector-curvature="0"
       d="M 3,10 A 3,3 -90 0 1 0,7 V 3 A 3,3 0 0 1 3,0 h 4 a 3,3 90 0 1 3,3 v 4 a 3,3 -180 0 1 -3,3 z"
       id="path66" />
    <circle
       style="fill:none;stroke:#ff0000;stroke-width:0.5"
       cx="7"
       cy="2.5"
       r="1.25"
       id="circle68" />
  </g>
  <g
     transform="rotate(-180,73.125,18.493876)"
     id="g76">
    <path
       style="fill:none;stroke:#ff0000;stroke-width:0.5"
       inkscape:connector-curvature="0"
       d="M 3,10 A 3,3 -90 0 1 0,7 V 3 A 3,3 0 0 1 3,0 h 4 a 3,3 90 0 1 3,3 v 4 a 3,3 -180 0 1 -3,3 z"
       id="path72" />
    <circle
       style="fill:none;stroke:#ff0000;stroke-width:0.5"
       cx="7"
       cy="2.5"
       r="1.25"
       id="circle74" />
  </g>
  <path
     inkscape:connector-curvature="0"
     id="path39"
     style="fill:#000000;fill-opacity:1;stroke:#0000ff;stroke-width:0.04820966;stroke-opacity:1"
     d="m 55.592611,51.558643 c -0.84545,0.01589 -2.04885,0.176885 -2.67447,0.831874 -0.44309,0.463987 -0.64377,1.844243 -1.52285,1.609688 -0.11401,0.168497 -0.29684,0.138711 -0.47848,0.197334 -0.34364,0.110704 -0.66111,0.434379 -1.05248,0.340427 -0.35068,-0.08416 -0.75114,-0.610599 -0.59838,-0.974625 0.246,-0.585649 0.62731,0.179156 0.82681,0.275219 0.19998,0.09605 0.55611,-0.06928 0.70597,-0.202282 0.42115,-0.373888 0.64044,-1.072834 0.86543,-1.569852 0.13703,-0.303456 0.379,-0.51341 0.56586,-0.782123 0.49201,-0.707927 0.92329,-1.671716 1.87669,-1.819337 -0.34098,-0.286278 -0.80469,-0.766014 -1.26855,-0.791533 -0.38758,-0.02117 -0.80789,0.06436 -1.15273,0.239125 -0.1944,0.09864 -0.39886,0.354185 -0.62059,0.358351 -0.25065,0.0042 -0.5914,-0.32111 -0.7799,-0.47283 -0.39756,-0.320895 -0.96693,-0.829506 -1.02856,-1.36357 -0.0518,-0.445528 -0.0217,-1.0493 0.55156,-0.92651 l -0.0455,0.145509 c 0.40587,0.146672 0.1103,0.55774 0.27033,0.862847 0.16853,0.32086 0.89939,0.596917 1.24982,0.590815 0.40781,-0.0072 0.6282,-0.544135 0.95265,-0.726228 0.24954,-0.140181 0.54782,-0.176645 0.81455,-0.275201 0.294,-0.108715 0.55819,-0.342232 0.86013,-0.414445 0.40466,-0.09681 1.10274,0.07668 1.4984,0.193646 -0.23108,-0.28786 -0.49666,-0.462723 -0.67238,-0.807074 -0.50813,-0.995801 -0.49724,-2.417958 -0.51777,-3.510198 -0.6977,0.180428 -1.49673,0.100938 -2.21427,0.200248 -0.63193,0.08758 -1.27656,0.398643 -1.92329,0.289286 -0.50839,-0.08639 -1.07818,-0.89926 -0.71391,-1.399859 0.4066,-0.558775 0.68963,0.4157 0.70074,0.699013 0.38882,-0.195839 0.87811,-0.09896 1.29871,-0.169539 0.26436,-0.04452 0.46001,-0.255522 0.71715,-0.324965 0.59921,-0.161702 1.67194,-0.117733 2.08438,-0.672757 0.1439,-0.193649 0.11531,-0.56005 0.15434,-0.793196 -0.77369,-0.168208 -1.17975,-0.864564 -1.6881,-1.410002 -0.20372,-0.218457 -0.48564,-0.338044 -0.70683,-0.536405 -0.26287,-0.235668 -0.43542,-0.565133 -0.67082,-0.826873 -0.27433,-0.305369 -0.62527,-0.532153 -0.87792,-0.865413 -0.31001,-0.40885 -0.37171,-0.664212 -0.45556,-1.148677 -0.0325,-0.185512 -0.0725,-0.441279 0.15819,-0.512157 0.48325,-0.14843 0.79811,1.006265 1.05019,1.309159 0.76616,0.922002 1.89261,1.567692 2.91537,2.160362 0.32222,0.186335 1.03091,0.435807 1.38794,0.216938 0.25788,-0.158181 0.32896,-0.609874 0.43198,-0.875081 -0.47165,-0.286233 -0.25483,-0.859764 -0.34252,-1.293044 -0.0542,-0.266592 -0.3909,-0.350434 -0.35636,-0.668358 0.0202,-0.183126 0.18548,-0.264344 0.30727,-0.378018 0.48051,-0.448296 1.35809,-0.344724 1.93849,-0.01908 0.17836,0.09984 0.43935,0.235246 0.50639,0.441806 0.0829,0.253517 -0.066,0.461244 0.0689,0.719567 0.34262,0.655605 0.38585,1.21123 0.52452,1.918878 0.0559,0.28392 0.20487,0.535712 0.25929,0.814837 0.14994,0.768673 0.12175,1.832416 7.2e-4,2.603769 -0.0508,0.325463 -0.30677,0.558827 -0.37605,0.874994 -0.13054,0.597466 0.0466,1.276907 0.0579,1.87942 0.017,0.903772 -0.11873,1.764605 -0.14106,2.65465 -0.0219,0.860143 0.0667,1.721584 -0.19975,2.559318 -0.18714,0.586957 -0.65468,1.160859 -1.00793,1.658358 -0.85071,1.198778 -1.89005,2.289476 -2.68274,3.522315 -0.4966,0.772287 -0.0119,1.905707 -0.8375,2.593866 -0.34371,0.286558 -0.95912,0.330478 -1.39107,0.283963 -0.24207,-0.02607 -0.49228,-0.178368 -0.4209,-0.460096 0.0552,-0.218116 0.28829,-0.181125 0.45584,-0.24609 0.21973,-0.08533 0.44225,-0.277753 0.52776,-0.500923 0.0703,-0.183344 0.0177,-0.390223 0.0653,-0.579845 0.11971,-0.48014 0.27449,-1.045513 0.46935,-1.503583 0.17179,-0.403778 0.50697,-0.759994 0.75279,-1.123357 0.49356,-0.729173 0.94723,-1.450843 1.54736,-2.102459 z" />
  <path
     inkscape:connector-curvature="0"
     d="m 64.962001,-8.5125187 c 0.0699,0.4324854 -0.001,0.8156732 -0.10679,1.2343832 -0.0303,0.1203057 -0.0604,0.2511685 -0.0751,0.3829844 1.10248,-1.8486998 2.645233,-3.4128869 4.471319,-4.5687169 -1.367156,1.034972 -2.528465,2.3148781 -3.413029,3.764153 0.577548,0.059416 1.151302,-0.1121871 1.704239,-0.2714949 0.471567,-0.1358772 0.943168,-0.2717564 1.414761,-0.4076026 -0.48363,0.1970309 -0.967267,0.3940617 -1.450897,0.5910635 -0.598027,0.2436272 -1.215329,0.4737727 -1.869143,0.4285675 -0.63099,1.1065644 -1.10294,2.3052501 -1.38612,3.5641343 1.21084,-0.8415063 2.224819,-1.8999388 3.036427,-3.1554573 -0.733376,1.7131724 -1.828257,3.1764793 -3.250107,4.3744995 -0.06,0.4752531 -0.0934,0.9535501 -0.0982,1.4337314 -0.007,0.71403919 0.0792,1.42538127 0.0654,2.1393624 -0.0114,0.5911226 -0.11428,1.1658323 -0.31531,1.7209711 -0.0627,0.1729348 -0.13316,0.3423894 -0.20942,0.5092081 0.43226,0.2161978 0.98692,0.1656566 1.4246,-0.020592 0.56775,-0.2415999 1.02251,-0.6822018 1.418084,-1.1447546 -0.345434,0.656772 -0.795644,1.3040031 -1.458474,1.6726052 -0.54438,0.3027242 -1.17675,0.3900317 -1.75627,0.2214478 -0.12789,0.2304622 -0.26157,0.4578537 -0.39522,0.6843746 -0.3728,0.6314855 -0.74564,1.2629427 -1.11845,1.8944276 -0.19549,0.3311118 -0.39096,0.6622229 -0.58645,0.9933042 0.87233,0.1476208 1.73851,0.330444 2.5951,0.5480343 0.49957,-0.49265 1.0624,-0.9150429 1.66013,-1.3015667 0.98232,-0.6351673 2.040111,-1.1819536 2.899101,-1.9881161 0.632128,-0.5932091 1.0484,-1.3091343 1.252793,-2.1474802 0.241977,-0.992608 0.330819,-2.01273307 0.687972,-2.97640224 0.408562,-1.10244696 1.066639,-2.08357296 1.880048,-2.91922186 -0.105114,-0.6386772 0.412446,-1.3404224 0.691103,-1.8638654 0.280396,-0.5267517 0.560791,-1.0535013 0.841187,-1.5802549 -0.289819,0.6949907 -0.579959,1.3898331 -0.869255,2.0850534 -0.128459,0.3086968 -0.344336,0.6930162 -0.349787,1.0515578 0.356253,-0.3343874 0.737497,-0.6429118 1.137271,-0.9233341 0.639808,-0.4487806 1.322558,-0.8128598 2.033671,-1.1083625 0.09673,-0.7513294 0.61835,-1.3354931 1.095082,-1.9062021 0.45803,-0.5482958 0.916026,-1.0965886 1.374058,-1.6448834 -0.374173,0.5323464 -0.748342,1.0646627 -1.122514,1.5970101 -0.374748,0.5331884 -0.889614,1.1341113 -0.981271,1.8088007 1.627865,-0.6155654 3.389372,-0.8916998 5.121624,-1.0023204 -2.341904,0.3229624 -4.783149,1.0158042 -6.719475,2.3793072 0.978312,0.7782078 2.526261,0.044422 3.652487,0.2134724 -1.282515,-0.074721 -2.792857,0.8649949 -3.94915,0.00381 -0.929338,0.7078601 -1.728134,1.5828017 -2.3232,2.6616158 -0.273699,0.49618885 -0.484475,1.01647368 -0.632212,1.55667803 1.114193,-0.4766733 2.593882,-0.40032599 3.290669,-1.51219643 -0.65071,1.22939376 -2.332507,1.14631909 -3.371657,1.83861067 -0.04551,0.20387347 -0.08258,0.41032883 -0.11053,0.61933503 -0.09883,0.7391483 -0.143913,1.4877226 -0.300958,2.2103723 0.649119,0.088875 1.303047,-0.055209 1.901502,-0.3964974 0.790216,-0.4506343 1.544295,-1.1042741 2.505704,-1.0882094 -1.060024,0.1517966 -1.715316,1.0887029 -2.544006,1.6625429 -0.622903,0.4313517 -1.353237,0.6286448 -2.089719,0.6059118 -0.04908,0.1310625 -0.104155,0.2608228 -0.166526,0.3889 -0.315657,0.6482174 -0.763541,1.2015573 -1.275532,1.6959765 0.42422,0.5014661 1.226698,0.6267012 1.842818,0.6298339 0.803028,0.00403 1.595851,-0.2000479 2.38731,-0.3094523 0.897848,-0.124104 1.792856,-0.1184794 2.65582,0.1873169 0.655695,0.2323503 1.229741,0.6094785 1.726912,1.0918352 -0.695219,-0.4625231 -1.480355,-0.7501678 -2.32018,-0.7839487 -1.026912,-0.041289 -1.976838,0.3558736 -2.924967,0.6954805 -1.557054,0.5577178 -3.466385,0.8241971 -4.758123,-0.3650366 -0.08896,0.065442 -0.178068,0.130281 -0.267081,0.1944794 -0.539718,0.3891915 -1.086969,0.7733072 -1.584149,1.2090383 0.71338,0.2304351 1.41788,0.4854306 2.111275,0.7650723 1.217938,0.4912006 2.409755,1.0487745 3.636737,1.5173575 1.151307,-0.440949 2.263178,-0.9659024 3.336948,-1.5740174 -0.74547,0.6901174 -1.528899,1.3313444 -2.350107,1.9247294 0.97686,0.314525 1.972137,0.52562 2.989798,0.605853 0.916405,-0.488329 1.832841,-0.976659 2.749246,-1.46499 -0.735904,0.498364 -1.471776,0.996697 -2.207677,1.49506 0.144719,0.0047 0.289905,0.0067 0.435585,0.0059 1.275992,-0.007 2.534611,-0.190711 3.777895,-0.46238 0.0029,-6.58e-4 0.0065,-0.0015 0.01065,-0.0024 -1.42e-4,5.8e-5 -2.57e-4,2.14e-4 -5.26e-4,2.14e-4 0,0 0.02373,-0.0054 5.26e-4,-2.14e-4 0.02371,-0.01087 0.03767,-0.03949 0.03767,-0.03949 0.349117,-0.285645 0.698263,-0.571289 1.047381,-0.856933 0.40053,-0.327718 0.986753,-0.7479937 0.85418,-1.347525 0.211182,0.5995029 -0.341664,1.113523 -0.712473,1.500743 -0.188534,0.196885 -0.377071,0.393743 -0.565606,0.590629 1.092445,-0.265347 2.173229,-0.586947 3.243607,-0.904604 -0.0056,0.0022 -0.01129,0.0044 -0.0169,0.0065 -1.811672,0.69761 -3.651849,1.403733 -5.553904,1.818904 0.36614,0.202744 0.681334,0.481024 0.955495,0.815788 0.381507,0.467279 0.958422,0.72729 1.517037,0.370285 -0.513585,0.408822 -1.156929,0.239106 -1.594166,-0.185113 -0.439707,-0.426625 -0.904578,-0.75359 -1.515854,-0.873578 -0.462,0.08357 -0.927711,0.148636 -1.397804,0.190247 -0.977412,0.08653 -1.947464,0.05588 -2.908696,-0.07641 0.191494,0.192915 0.370632,0.396528 0.517762,0.628093 0.41198,0.648333 0.389277,1.454755 0.707457,2.141827 C 74.248914,14.646622 74.123214,13.82863 73.574165,13.323686 73.078818,12.842692 72.425674,12.558411 71.868302,12.1533 71.116219,11.963606 70.3773,11.730271 69.641981,11.485134 c -0.122857,0.49062 -0.172445,0.98733 -0.147017,1.48839 0.24853,-0.08064 0.512341,-0.108998 0.783578,-0.07797 0.602776,0.06893 1.052747,0.428336 1.367848,0.928846 0.307277,0.488097 0.579409,0.969874 0.98307,1.389309 0.318324,0.330791 0.680316,0.611652 1.070492,0.852149 -0.872185,-0.355699 -1.62189,-0.914608 -2.22154,-1.640622 -0.290018,-0.35109 -0.583518,-0.731407 -1.071245,-0.776236 -0.280016,-0.02587 -0.569024,0.05663 -0.780149,0.241367 0.308093,1.252087 1.160101,2.35552 2.259703,3.018003 0.895209,0.539335 1.917452,0.771828 2.948218,0.919914 0.424308,-0.145185 0.848584,-0.290401 1.272888,-0.435585 0.673271,-0.230407 1.390384,-0.527186 2.114426,-0.384872 -0.710617,0.04071 -1.30522,0.489143 -1.878856,0.865894 -0.05942,0.03903 -0.11883,0.07803 -0.178244,0.117058 0.0029,3.16e-4 0.0059,6.59e-4 0.0088,9.92e-4 0.669159,0.07678 1.351244,0.158636 2.017727,0.299268 1.131811,0.37246 1.979206,-1.233076 3.145476,-0.870736 -0.923193,-0.181228 -1.543021,0.710415 -2.321171,1.081541 0.407518,0.125209 0.804217,0.282486 1.182825,0.485491 1.115118,0.597879 2.049676,1.60423 2.254245,2.884253 -0.387538,-1.509907 -1.798507,-2.519797 -3.265875,-2.855228 -0.63221,-0.161656 -1.277644,-0.232784 -1.927251,-0.268217 0.230173,0.186129 0.460347,0.372286 0.690523,0.558414 0.482586,0.390264 1.136981,0.798738 1.28927,1.443881 -0.22455,-0.640504 -0.957725,-0.983851 -1.489172,-1.327867 -0.359529,-0.232725 -0.719058,-0.465451 -1.078584,-0.698206 -0.523153,-0.01516 -1.047266,-0.01806 -1.567726,-0.03682 l -0.110242,-0.0042 c -0.07623,-0.0031 -0.152404,-0.0065 -0.228435,-0.01046 -0.454463,-0.02369 -0.908169,-0.06588 -1.354951,-0.137153 0.06821,0.199988 0.123179,0.406095 0.173951,0.611216 0.159307,0.643693 0.370403,1.394007 1.048979,1.666574 -0.672575,-0.09676 -1.099317,-0.69406 -1.400039,-1.248793 -0.225536,-0.416012 -0.436774,-0.937398 -0.820863,-1.245282 -0.651433,-0.183056 -1.276456,-0.450694 -1.853691,-0.840348 -0.140776,-0.09503 -0.27639,-0.194915 -0.406931,-0.299216 0.02432,0.21356 0.09679,0.421348 0.157911,0.625861 0.13072,0.437209 0.242961,0.981734 -0.07496,1.368925 0.265145,-0.628238 -0.321252,-1.18932 -0.586134,-1.701602 -0.147737,-0.285673 -0.218954,-0.618205 -0.179864,-0.929135 -1.38525,-1.499437 -1.94903,-3.599277 -1.579907,-5.648778 -0.129497,-0.04271 -0.25908,-0.08513 -0.388902,-0.126744 -0.594313,-0.190593 -1.194512,-0.362949 -1.799401,-0.517181 -0.13643,0.706905 0.21118,1.566302 0.41819,2.181725 0.194706,0.578828 0.378574,1.166674 0.424996,1.77908 0.02735,0.360833 -0.0059,0.715808 -0.05596,1.069884 0.559518,0.07322 0.926236,0.610521 1.088785,1.130167 0.116688,0.373069 0.186801,0.75971 0.39134,1.09891 0.151101,0.250587 0.353353,0.465945 0.590283,0.636995 -0.555282,-0.283354 -0.889148,-0.755764 -1.13779,-1.313107 -0.166123,-0.372402 -0.486914,-1.111233 -1.01488,-1.017429 -0.0059,0.03753 -0.01163,0.07504 -0.01731,0.112623 -0.09442,0.626847 -0.07619,1.207588 0.223711,1.779514 0.268343,0.511703 0.654313,0.950276 1.023726,1.390065 0.631461,0.751763 1.235108,1.59388 1.18741,2.619399 -0.108938,-1.215243 -1.089167,-1.979098 -1.91928,-2.755538 -0.464868,-0.434801 -0.912741,-0.91597 -1.171111,-1.505932 -0.26286,-0.600286 -0.2705,-1.245226 -0.25386,-1.888802 0.007,-0.252126 0.003,-0.493726 -0.0164,-0.730249 -0.019,0.04784 -0.0379,0.09569 -0.0568,0.143503 -0.19936,0.503439 -0.45064,1.014094 -0.552,1.548646 -0.17384,0.916666 0.69866,1.912551 0.18116,2.776908 0.19801,-0.421146 0.064,-0.898254 -0.1034,-1.305249 -0.21657,-0.526751 -0.4234,-1.009513 -0.35556,-1.5933 0.0621,-0.534638 0.2503,-1.05785 0.39691,-1.573755 0.0929,-0.326878 0.1858,-0.653786 0.27871,-0.980662 0.003,0.0011 0.007,0.0022 0.01,0.0033 -0.0276,-0.07951 -0.0582,-0.159249 -0.0923,-0.239511 -0.23441,-0.552094 -0.5332,-1.074205 -0.76716,-1.626675 -0.27982,-0.682345 -0.44018,-1.408707 -0.37461,-2.1182234 -0.70195,-0.1381968 -1.40869,-0.2522982 -2.11855,-0.3418392 0.0918,0.3857984 0.17563,0.7726406 0.25186,1.1604686 0.49135,0.199988 0.93969,0.733495 1.19197,1.092588 0.47995,0.683129 0.70528,1.484215 0.70444,2.313197 -0.0726,-0.887612 -0.40729,-1.724133 -1.02692,-2.374756 -0.20979,-0.220287 -0.49076,-0.490708 -0.79548,-0.641142 0.33043,1.808772 0.49146,3.639872 0.4787,5.493531 -0.29875,-1.292982 -0.68134,-2.553895 -1.1491,-3.782419 -0.004,0.01937 -0.007,0.03871 -0.0113,0.05805 -0.11995,0.557458 -0.36283,1.068057 -0.61307,1.576541 0.18888,-0.523301 0.37226,-1.048225 0.42888,-1.60516 0.0156,-0.16357 0.0207,-0.326384 0.0162,-0.488331 -0.40783,-1.017631 -0.87523,-2.012618 -1.40291,-2.9848127 -1.25708,-0.079566 -2.51895,-0.08261 -3.77621,-0.00754 0.19416,0.6532337 0.38832,1.3064667 0.58248,1.9596987 0.75588,0.03474 1.48818,0.293213 2.09326,0.785283 0.78285,0.661557 1.21261,1.624152 1.20773,2.644366 -0.14234,-0.905155 -0.62508,-1.722044 -1.40633,-2.22032 -0.50075,-0.319369 -1.08369,-0.457942 -1.66283,-0.42938 0.3026,1.018095 0.60521,2.036192 0.90785,3.054287 0.20947,0.70473 0.40396,1.437212 0.63047,2.158557 0.93711,0.479399 2.00134,0.530811 3.01694,0.187782 -0.8348,0.539654 -1.78044,0.75591 -2.72866,0.664601 0.4903,1.33465 1.16201,2.574192 2.33327,3.455685 0.1979,0.148926 0.40218,0.287443 0.61112,0.418246 1.63535,-0.862849 3.67529,-0.46319 4.736184,1.122774 -1.023114,-1.062287 -2.633174,-1.359183 -3.879824,-0.63604 0.83585,0.436456 1.71124,0.806597 2.54038,1.247605 0.43624,0.232001 0.85375,0.487199 1.248448,0.769422 0.422045,0.01583 0.844059,0.03164 1.266071,0.04747 0.568945,0.02134 1.596409,0.02389 1.656627,0.809786 -0.135616,-0.746805 -1.107521,-0.64033 -1.653667,-0.604172 -0.286313,0.01896 -0.57265,0.0379 -0.858963,0.05686 0.519794,0.415317 0.993185,0.884683 1.408736,1.418857 0.0013,-0.0011 0.0026,-0.0022 0.004,-0.0034 0.201585,0.285325 0.615366,0.292777 0.928672,0.287935 0.398964,-0.0061 0.778241,0.007 1.147561,0.177313 0.676173,0.3118 1.115758,0.995885 1.110162,1.741153 -0.05635,-0.734482 -0.546641,-1.378087 -1.2534,-1.600665 -0.464552,-0.148403 -1.036919,0.01751 -1.533279,-0.03485 1.418474,2.172758 1.844781,4.884133 1.115665,7.380384 0.180592,-0.784645 0.267636,-1.575497 0.22562,-2.381308 -0.05959,-1.143304 -0.352158,-2.275124 -0.844515,-3.309777 -0.358136,1.382465 -0.422567,2.766527 -0.37742,4.199882 -0.176304,-1.572249 -0.200542,-3.127765 0.128248,-4.684268 -0.788532,-1.428281 -1.617654,-2.309601 -3.009896,-3.115993 -0.46577,-0.269784 -0.95084,-0.498479 -1.44347,-0.711284 0.73503,1.209356 1.27065,2.510865 1.60249,3.90171 -0.47636,-1.506136 -1.19288,-2.885644 -2.14989,-4.131914 -0.70648,-0.290805 -1.4195,-0.567983 -2.10538,-0.903386 -0.9969,-0.487517 -1.90023,-1.105606 -2.62891,-1.945896 -0.12828,-0.147911 -0.24897,-0.301709 -0.36316,-0.460234 -0.57751,1.021954 -0.20505,2.324738 0.15296,3.421849 -0.41395,-0.727261 -0.89561,-1.532203 -0.96665,-2.385484 -0.0677,-0.632935 0.0384,-1.25494 0.32407,-1.809729 -0.38476,-0.687391 -0.68563,-1.427266 -0.95974,-2.15534 -0.0387,-0.102822 -0.077,-0.205875 -0.11528,-0.308841 -0.69523,1.075799 -1.27542,2.215767 -1.74186,3.419818 0.29813,-1.501729 0.76931,-2.942854 1.40848,-4.324944 -0.36217,-0.994463 -0.71484,-1.992639 -1.07458,-2.987711 -0.0366,-0.101054 -0.0731,-0.202135 -0.1096,-0.303188 -0.35823,0.438687 -0.67417,0.902109 -0.83681,1.463946 -0.27841,0.961727 -0.35122,2.071162 -1.181,2.751275 0.76145,-0.831736 0.57119,-2.04985 0.74315,-3.076703 0.12785,-0.763536 0.53397,-1.420046 0.93858,-2.068175 -0.3361,-0.929715 -0.67223,-1.859458 -1.00831,-2.7891723 -0.43866,0.052976 -0.87619,0.1155224 -1.31219,0.1879557 -2.62073,0.4353806 -5.1452,1.2034986 -7.57512,2.2747446 -1.33104,0.606259 -2.66212,1.26219 -4.09612,1.589763 -1.01902,0.232783 -2.58915,0.275641 -3.8215,0.08627 v -3.569652 c 1.21918,0.222521 3.4794,0.03152 4.35104,-0.2263449 1.25621,-0.3659939 2.46499,-0.8817556 3.71269,-1.276049 2.0212,-0.6387063 4.10462,-1.0530375 6.20882,-1.2893007 0.78942,-0.3782592 1.22675,-1.3721997 1.47739,-2.1516269 0.18338,-0.5702455 0.32404,-1.152611 0.50045,-1.7247115 -0.0712,-0.124801 -0.15006,-0.2453099 -0.22237,-0.3623122 -0.29389,-0.4755699 -0.49752,-0.9742819 -0.52843,-1.5383504 -0.0539,-0.98486659 0.42377,-1.93531157 1.24188,-2.48410055 -0.7671,0.6289911 -1.15171,1.63720096 -0.9423,2.61502045 0.10315,0.4814852 0.35348,0.853076 0.63019,1.2333654 0.19793,-0.5522379 0.43091,-1.0909352 0.70409,-1.6106387 0.34355,-0.65361035 0.73845,-1.26766931 1.17958,-1.840872 0.21492,-1.1089418 0.6411,-2.1397102 1.27886,-3.0749344 -0.42909,0.80593 -0.71476,1.6585707 -0.85244,2.5506194 1.05037,-1.2250139 2.3239,-2.2432286 3.76372,-3.0382267 -0.0478,0.034328 -0.0955,0.068667 -0.1433,0.1029982 -1.7429,1.2530549 -3.07998,2.8770336 -3.99128,4.76566252 0.73633,-0.28460278 1.48911,-0.51924149 2.25929,-0.70336787 -0.84945,0.31495808 -1.66846,0.69260931 -2.45778,1.13402315 -0.19555,0.4450962 -0.36878,0.9035881 -0.51845,1.374753 -0.18523,0.7015689 -0.31685,1.402966 -0.42527,2.1201364 -0.0102,0.067504 -0.0208,0.1349194 -0.0314,0.2023087 1.4246,-0.2351613 2.01958,-2.3289696 3.53882,-2.5435732 -0.95891,0.2403816 -1.42593,1.146928 -1.97299,1.8820473 -0.42897,0.5764501 -0.97877,1.0287082 -1.65241,1.1642961 -0.0937,0.4963027 -0.21472,0.9858814 -0.39833,1.4596558 -0.0372,0.096094 -0.0779,0.1906801 -0.12126,0.2837866 1.61397,-0.070664 3.23787,-0.018438 4.85019,0.153711 0.51419,-0.7246978 1.02839,-1.4494364 1.54255,-2.1741738 0.0976,-0.1376465 0.19637,-0.2748588 0.29541,-0.4119827 0.0501,-0.5089472 -0.14423,-1.0693914 -0.30602,-1.5202286 -0.23688,-0.6601332 -0.50138,-1.3503658 -0.38751,-2.0637956 0.0425,0.8852331 0.61691,1.5831203 1.01891,2.3331732 0.0846,0.1578571 0.16029,0.3209908 0.22353,0.4876932 0.23015,-0.3248483 0.45502,-0.653118 0.66539,-0.9897382 0.43451,-0.695308 0.69597,-1.4054594 0.75448,-2.22638068 0.0115,-0.16119102 0.0204,-0.32238304 0.0284,-0.48351592 -0.70215,-0.7102115 -0.87233,-1.7201022 -1.05689,-2.6860896 -0.17241,-0.9024594 -0.34483,-1.8049169 -0.51727,-2.7073763 0.28443,0.7734248 0.56883,1.5468487 0.85325,2.3203015 0.21083,0.5733771 0.40444,1.3077127 0.77949,1.8622999 0.0276,-0.4293503 0.0699,-0.8575709 0.15188,-1.2838482 0.20103,-1.0451813 0.49883,-2.0472992 0.91627,-3.0272676 0.1502,-0.3526241 0.31606,-0.6971316 0.49564,-1.0334044 -0.17445,-0.6764293 0.35442,-1.3693303 0.31588,-2.0587804 -0.0362,-0.6973652 -0.32731,-1.5922848 0.27738,-2.1393918 -0.52886,0.5583282 -0.21002,1.3841194 -0.10465,2.0367424 z"
     id="path5226"
     style="fill:none;stroke:#0000ff;stroke-width:0.5;stroke-opacity:1;stroke-miterlimit:4;stroke-dasharray:none" />
</svg>
