<?xml version="1.0" encoding="utf-8" ?>
<svg baseProfile="full" height="138mm" version="1.1" viewBox="0, 0, 161, 138" width="161mm" xmlns="http://www.w3.org/2000/svg" xmlns:ev="http://www.w3.org/2001/xml-events" xmlns:xlink="http://www.w3.org/1999/xlink"><defs /><g><rect fill="none" height="64" rx="5" ry="5" stroke="red" stroke-width="0.5" width="95" x="0" y="0" /><g><circle cx="9" cy="23.5" fill="none" r="1.25" stroke="red" stroke-width="0.5" /><circle cx="9" cy="55" fill="none" r="1.25" stroke="red" stroke-width="0.5" /><circle cx="86" cy="23.5" fill="none" r="1.25" stroke="red" stroke-width="0.5" /><circle cx="86" cy="55" fill="none" r="1.25" stroke="red" stroke-width="0.5" /></g></g><g transform="translate(0,66)"><path d="M 0 5 a 5 5 0 0,1 5.0 -5.0 l 85.0 -0.0 a 5 5 90 0,1 5.0 5.0 l 0.0 54.0 a 5 5 180 0,1 -5.0 5.0 l -8.0 0.0 l -0.0 -20.0 l -42.0 0.0 l 0.0 20.0 l -35.0 0.0 a 5 5 270 0,1 -5.0 -5.0 z" fill="none" stroke="red" stroke-width="0.5" /><g><circle cx="9" cy="23.5" fill="none" r="1.25" stroke="red" stroke-width="0.5" /><circle cx="9" cy="55" fill="none" r="1.25" stroke="red" stroke-width="0.5" /><circle cx="86" cy="23.5" fill="none" r="1.25" stroke="red" stroke-width="0.5" /><circle cx="86" cy="55" fill="none" r="1.25" stroke="red" stroke-width="0.5" /></g></g><g transform="translate(161,0) rotate(90)"><path d="M 0 5 a 5 5 0 0,1 10 0 l -5 0 l 0 16.0 l 4 0 a 2.5 2.5 0 0,1 0 5 l -4 0 l 0 26.5 l 4 0 a 2.5 2.5 0 0,1 0 5 l -4 0 l 0 6.5 a 5 5 0 0,1 -5 -5 z" fill="none" stroke="red" stroke-width="0.5" /><circle cx="9" cy="23.5" fill="none" r="1.25" stroke="red" stroke-width="0.5" /><circle cx="9" cy="55" fill="none" r="1.25" stroke="red" stroke-width="0.5" /></g><g transform="translate(97,18) rotate(-90)"><path d="M 0 5 a 5 5 0 0,1 10 0 l -5 0 l 0 16.0 l 4 0 a 2.5 2.5 0 0,1 0 5 l -4 0 l 0 26.5 l 4 0 a 2.5 2.5 0 0,1 0 5 l -4 0 l 0 6.5 a 5 5 0 0,1 -5 -5 z" fill="none" stroke="red" stroke-width="0.5" /><circle cx="9" cy="23.5" fill="none" r="1.25" stroke="red" stroke-width="0.5" /><circle cx="9" cy="55" fill="none" r="1.25" stroke="red" stroke-width="0.5" /></g><g transform="translate(161,20) rotate(90)"><path d="M 0 5 a 5 5 0 0,1 10 0 l -5 0 l 0 16.0 l 4 0 a 2.5 2.5 0 0,1 0 5 l -4 0 l 0 26.5 l 4 0 a 2.5 2.5 0 0,1 0 5 l -4 0 l 0 6.5 a 5 5 0 0,1 -5 -5 z" fill="none" stroke="red" stroke-width="0.5" /><circle cx="9" cy="23.5" fill="none" r="1.25" stroke="red" stroke-width="0.5" /><circle cx="9" cy="55" fill="none" r="1.25" stroke="red" stroke-width="0.5" /></g><g transform="translate(97,38) rotate(-90)"><path d="M 0 5 a 5 5 0 0,1 10 0 l -5 0 l 0 16.0 l 4 0 a 2.5 2.5 0 0,1 0 5 l -4 0 l 0 26.5 l 4 0 a 2.5 2.5 0 0,1 0 5 l -4 0 l 0 6.5 a 5 5 0 0,1 -5 -5 z" fill="none" stroke="red" stroke-width="0.5" /><circle cx="9" cy="23.5" fill="none" r="1.25" stroke="red" stroke-width="0.5" /><circle cx="9" cy="55" fill="none" r="1.25" stroke="red" stroke-width="0.5" /></g><g transform="translate(161,40) rotate(90)"><path d="M 0 5 a 5 5 0 0,1 10 0 l -5 0 l 0 16.0 l 4 0 a 2.5 2.5 0 0,1 0 5 l -4 0 l 0 26.5 l 4 0 a 2.5 2.5 0 0,1 0 5 l -4 0 l 0 6.5 a 5 5 0 0,1 -5 -5 z" fill="none" stroke="red" stroke-width="0.5" /><circle cx="9" cy="23.5" fill="none" r="1.25" stroke="red" stroke-width="0.5" /><circle cx="9" cy="55" fill="none" r="1.25" stroke="red" stroke-width="0.5" /></g><g transform="translate(97,58) rotate(-90)"><path d="M 0 5 a 5 5 0 0,1 10 0 l -5 0 l 0 16.0 l 4 0 a 2.5 2.5 0 0,1 0 5 l -4 0 l 0 26.5 l 4 0 a 2.5 2.5 0 0,1 0 5 l -4 0 l 0 6.5 a 5 5 0 0,1 -5 -5 z" fill="none" stroke="red" stroke-width="0.5" /><circle cx="9" cy="23.5" fill="none" r="1.25" stroke="red" stroke-width="0.5" /><circle cx="9" cy="55" fill="none" r="1.25" stroke="red" stroke-width="0.5" /></g><g transform="translate(161,60) rotate(90)"><path d="M 0 5 a 5 5 0 0,1 10 0 l -5 0 l 0 16.0 l 4 0 a 2.5 2.5 0 0,1 0 5 l -4 0 l 0 26.5 l 4 0 a 2.5 2.5 0 0,1 0 5 l -4 0 l 0 6.5 a 5 5 0 0,1 -5 -5 z" fill="none" stroke="red" stroke-width="0.5" /><circle cx="9" cy="23.5" fill="none" r="1.25" stroke="red" stroke-width="0.5" /><circle cx="9" cy="55" fill="none" r="1.25" stroke="red" stroke-width="0.5" /></g><g transform="translate(97,78) rotate(-90)"><path d="M 0 5 a 5 5 0 0,1 10 0 l -5 0 l 0 16.0 l 4 0 a 2.5 2.5 0 0,1 0 5 l -4 0 l 0 26.5 l 4 0 a 2.5 2.5 0 0,1 0 5 l -4 0 l 0 6.5 a 5 5 0 0,1 -5 -5 z" fill="none" stroke="red" stroke-width="0.5" /><circle cx="9" cy="23.5" fill="none" r="1.25" stroke="red" stroke-width="0.5" /><circle cx="9" cy="55" fill="none" r="1.25" stroke="red" stroke-width="0.5" /></g><g transform="translate(161,80) rotate(90)"><path d="M 0 5 a 5 5 0 0,1 10 0 l -5 0 l 0 16.0 l 4 0 a 2.5 2.5 0 0,1 0 5 l -4 0 l 0 26.5 l 4 0 a 2.5 2.5 0 0,1 0 5 l -4 0 l 0 6.5 a 5 5 0 0,1 -5 -5 z" fill="none" stroke="red" stroke-width="0.5" /><circle cx="9" cy="23.5" fill="none" r="1.25" stroke="red" stroke-width="0.5" /><circle cx="9" cy="55" fill="none" r="1.25" stroke="red" stroke-width="0.5" /></g><g transform="translate(97,98) rotate(-90)"><path d="M 0 5 a 5 5 0 0,1 10 0 l -5 0 l 0 16.0 l 4 0 a 2.5 2.5 0 0,1 0 5 l -4 0 l 0 26.5 l 4 0 a 2.5 2.5 0 0,1 0 5 l -4 0 l 0 6.5 a 5 5 0 0,1 -5 -5 z" fill="none" stroke="red" stroke-width="0.5" /><circle cx="9" cy="23.5" fill="none" r="1.25" stroke="red" stroke-width="0.5" /><circle cx="9" cy="55" fill="none" r="1.25" stroke="red" stroke-width="0.5" /></g><g transform="translate(161,100) rotate(90)"><path d="M 0 5 a 5 5 0 0,1 10 0 l -5 0 l 0 16.0 l 4 0 a 2.5 2.5 0 0,1 0 5 l -4 0 l 0 26.5 l 4 0 a 2.5 2.5 0 0,1 0 5 l -4 0 l 0 6.5 a 5 5 0 0,1 -5 -5 z" fill="none" stroke="red" stroke-width="0.5" /><circle cx="9" cy="23.5" fill="none" r="1.25" stroke="red" stroke-width="0.5" /><circle cx="9" cy="55" fill="none" r="1.25" stroke="red" stroke-width="0.5" /></g><g transform="translate(97,118) rotate(-90)"><path d="M 0 5 a 5 5 0 0,1 10 0 l -5 0 l 0 16.0 l 4 0 a 2.5 2.5 0 0,1 0 5 l -4 0 l 0 26.5 l 4 0 a 2.5 2.5 0 0,1 0 5 l -4 0 l 0 6.5 a 5 5 0 0,1 -5 -5 z" fill="none" stroke="red" stroke-width="0.5" /><circle cx="9" cy="23.5" fill="none" r="1.25" stroke="red" stroke-width="0.5" /><circle cx="9" cy="55" fill="none" r="1.25" stroke="red" stroke-width="0.5" /></g><g transform="translate(161,120) rotate(90)"><path d="M 0 5 a 5 5 0 0,1 10 0 l -5 0 l 0 16.0 l 4 0 a 2.5 2.5 0 0,1 0 5 l -4 0 l 0 26.5 l 4 0 a 2.5 2.5 0 0,1 0 5 l -4 0 l 0 6.5 a 5 5 0 0,1 -5 -5 z" fill="none" stroke="red" stroke-width="0.5" /><circle cx="9" cy="23.5" fill="none" r="1.25" stroke="red" stroke-width="0.5" /><circle cx="9" cy="55" fill="none" r="1.25" stroke="red" stroke-width="0.5" /></g><g transform="translate(97,138) rotate(-90)"><path d="M 0 5 a 5 5 0 0,1 10 0 l -5 0 l 0 16.0 l 4 0 a 2.5 2.5 0 0,1 0 5 l -4 0 l 0 26.5 l 4 0 a 2.5 2.5 0 0,1 0 5 l -4 0 l 0 6.5 a 5 5 0 0,1 -5 -5 z" fill="none" stroke="red" stroke-width="0.5" /><circle cx="9" cy="23.5" fill="none" r="1.25" stroke="red" stroke-width="0.5" /><circle cx="9" cy="55" fill="none" r="1.25" stroke="red" stroke-width="0.5" /></g></svg>