<?xml version="1.0" encoding="utf-8" ?>
<svg baseProfile="full" height="200mm" version="1.1" viewBox="0, 0, 300, 200" width="300mm" xmlns="http://www.w3.org/2000/svg" xmlns:ev="http://www.w3.org/2001/xml-events" xmlns:xlink="http://www.w3.org/1999/xlink"><defs /><g><rect fill="none" height="64" rx="5" ry="5" stroke="red" stroke-width="0.5" width="95" x="0" y="0" /><circle cx="9" cy="23.5" fill="none" r="1.25" stroke="red" stroke-width="0.5" /><circle cx="9" cy="55" fill="none" r="1.25" stroke="red" stroke-width="0.5" /><circle cx="86" cy="23.5" fill="none" r="1.25" stroke="red" stroke-width="0.5" /><circle cx="86" cy="55" fill="none" r="1.25" stroke="red" stroke-width="0.5" /></g><g transform="translate(0,66)"><path d="M 0 5 a 5 5 0 0,1 5 -5 l 85 0 a 5 5 0 0,1 5 5 l 0 54 a 5 5 0 0,1 -5 5 l -8 0 l 0 -20 l -42 0 l 0 20 l -35 0 a 5 5 0 0,1 -5 -5 z" fill="none" stroke="red" stroke-width="0.5" /><circle cx="9" cy="23.5" fill="none" r="1.25" stroke="red" stroke-width="0.5" /><circle cx="9" cy="55" fill="none" r="1.25" stroke="red" stroke-width="0.5" /><circle cx="86" cy="23.5" fill="none" r="1.25" stroke="red" stroke-width="0.5" /><circle cx="86" cy="55" fill="none" r="1.25" stroke="red" stroke-width="0.5" /></g><g transform="translate(0,132)"><path d="M 0 5 a 5 5 0 0,1 10 0 l -5 0 l 0 16.0 l 4 0 a 2.5 2.5 0 0,1 0 5 l -4 0 l 0 26.5 l 4 0 a 2.5 2.5 0 0,1 0 5 l -4 0 l 0 6.5 a 5 5 0 0,1 -5 -5 z" fill="none" stroke="red" stroke-width="0.5" /><circle cx="9" cy="23.5" fill="none" r="1.25" stroke="red" stroke-width="0.5" /><circle cx="9" cy="55" fill="none" r="1.25" stroke="red" stroke-width="0.5" /></g></svg>