<?xml version="1.0" encoding="utf-8" ?>
<svg baseProfile="full" height="300mm" version="1.1" viewBox="0, 0, 200, 300" width="200mm" xmlns="http://www.w3.org/2000/svg" xmlns:ev="http://www.w3.org/2001/xml-events" xmlns:xlink="http://www.w3.org/1999/xlink"><defs /><g><rect fill="none" height="130" rx="5" ry="5" stroke="red" stroke-width="0.5" width="170" x="0" y="0" /><g><circle cx="9" cy="9" fill="none" r="1.25" stroke="red" stroke-width="0.5" /><circle cx="161" cy="9" fill="none" r="1.25" stroke="red" stroke-width="0.5" /><circle cx="9" cy="121" fill="none" r="1.25" stroke="red" stroke-width="0.5" /><circle cx="161" cy="121" fill="none" r="1.25" stroke="red" stroke-width="0.5" /><circle cx="129.5" cy="121" fill="none" r="1.25" stroke="red" stroke-width="0.5" /><circle cx="161" cy="44" fill="none" r="1.25" stroke="red" stroke-width="0.5" /><circle cx="129.5" cy="44" fill="none" r="1.25" stroke="red" stroke-width="0.5" /></g></g><g transform="translate(0,132)"><path d="M 0 5 a 5 5 0 0,1 5.0 -5.0 l 68.0 -0.0 l 22.0 -0.0 l 70.0 -0.0 a 5 5 90 0,1 5.0 5.0 l 0.0 120.0 a 5 5 180 0,1 -5.0 5.0 l -117.0 0.0 a 5 5 270 0,1 -5.0 -5.0 l -0.0 -16.0 l -16.0 0.0 l 0.0 16.0 a 5 5 180 0,1 -5.0 5.0 l -17.0 0.0 a 5 5 270 0,1 -5.0 -5.0 z" fill="none" stroke="red" stroke-width="0.5" /><rect fill="none" height="9.5" stroke="red" stroke-width="0.5" width="12" x="76.5" y="4.5" /><g><circle cx="9" cy="9" fill="none" r="1.25" stroke="red" stroke-width="0.5" /><circle cx="161" cy="9" fill="none" r="1.25" stroke="red" stroke-width="0.5" /><circle cx="161" cy="121" fill="none" r="1.25" stroke="red" stroke-width="0.5" /><circle cx="129.5" cy="121" fill="none" r="1.25" stroke="red" stroke-width="0.5" /><circle cx="161" cy="44" fill="none" r="1.25" stroke="red" stroke-width="0.5" /><circle cx="129.5" cy="44" fill="none" r="1.25" stroke="red" stroke-width="0.5" /></g></g><path d="M 0 0 l 18.0 -0.0 l 0.0 24.6 l -18.0 0.0 l -0.0 -8.0 l -0.0 -0.1 l 12.9 -0.0 l -0.0 -1.4000000000000001 l -12.9 0.0 l -0.0 -0.1 l -0.0 -7.0 a 0.3 0.3 360 0,1 0.3 -0.3 l 10.5 -0.0 a 0.3 0.3 450 0,1 0.3 0.3 l 2.5 -0.0 l -0.0 -2.5 l -2.5 0.0 a 0.3 0.3 180 0,1 -0.3 0.3 l -10.5 0.0 a 0.3 0.3 270 0,1 -0.3 -0.3 z" fill="none" stroke="red" stroke-width="0.5" transform="translate(172,0)" /></svg>