<?xml version="1.0" encoding="utf-8" ?>
<svg baseProfile="full" height="200mm" version="1.1" viewBox="0, 0, 300, 200" width="300mm" xmlns="http://www.w3.org/2000/svg" xmlns:ev="http://www.w3.org/2001/xml-events" xmlns:xlink="http://www.w3.org/1999/xlink"><defs /><g><path d="M 0 3 a 3 3 0 0,1 3.0 -3.0 l 60.0 -0.0 a 3 3 90 0,1 3.0 3.0 l 0.0 30.0 a 3 3 180 0,1 -3.0 3.0 l -24.0 0.0 a 16 16 270 0,0 -20.0 0.0 l -16.0 0.0 a 3 3 270 0,1 -3.0 -3.0 z" fill="none" stroke="red" stroke-width="0.5" /><circle cx="7" cy="7" fill="none" r="1.25" stroke="red" stroke-width="0.5" /><circle cx="7" cy="29" fill="none" r="1.25" stroke="red" stroke-width="0.5" /><circle cx="59" cy="7" fill="none" r="1.25" stroke="red" stroke-width="0.5" /><circle cx="59" cy="29" fill="none" r="1.25" stroke="red" stroke-width="0.5" /></g><g transform="translate(0,38)"><path d="M 0 3 a 3 3 0 0,1 3.0 -3.0 l 60.0 -0.0 a 3 3 90 0,1 3.0 3.0 l 0.0 30.0 a 3 3 180 0,1 -3.0 3.0 l -24.0 0.0 a 16 16 270 0,0 -20.0 0.0 l -16.0 0.0 a 3 3 270 0,1 -3.0 -3.0 z" fill="none" stroke="red" stroke-width="0.5" /><circle cx="7" cy="7" fill="none" r="1.25" stroke="red" stroke-width="0.5" /><circle cx="7" cy="29" fill="none" r="1.25" stroke="red" stroke-width="0.5" /><circle cx="59" cy="7" fill="none" r="1.25" stroke="red" stroke-width="0.5" /><circle cx="59" cy="29" fill="none" r="1.25" stroke="red" stroke-width="0.5" /><rect fill="none" height="7.3" rx="0" ry="0" stroke="red" stroke-width="0.5" width="41.0" x="10.5" y="3.35" /></g><g transform="translate(0,142) rotate(-90)"><path d="M 0 3 a 3 3 0 0,1 3.0 -3.0 l 60.0 -0.0 a 3 3 90 0,1 3.0 3.0 l 0.0 30.0 a 3 3 180 0,1 -3.0 3.0 l -4.0 0.0 a 3 3 270 0,1 -3.0 -3.0 l -0.0 -4.0 a 3 3 360 0,1 3.0 -3.0 l 4.0 -0.0 l -0.0 -16.0 l -4.0 0.0 a 3 3 270 0,1 -3.0 -3.0 l -0.0 -4.0 l -46.0 0.0 l 0.0 4.0 a 3 3 180 0,1 -3.0 3.0 l -4.0 0.0 a 3 3 270 0,1 -3.0 -3.0 z" fill="none" stroke="red" stroke-width="0.5" /><circle cx="7" cy="7" fill="none" r="1.25" stroke="red" stroke-width="0.5" /><circle cx="59" cy="7" fill="none" r="1.25" stroke="red" stroke-width="0.5" /><circle cx="59" cy="29" fill="none" r="1.25" stroke="red" stroke-width="0.5" /></g><g transform="translate(12,154) rotate(-90)"><path d="M 0 3 a 3 3 0 0,1 3.0 -3.0 l 60.0 -0.0 a 3 3 90 0,1 3.0 3.0 l 0.0 30.0 a 3 3 180 0,1 -3.0 3.0 l -4.0 0.0 a 3 3 270 0,1 -3.0 -3.0 l -0.0 -4.0 a 3 3 360 0,1 3.0 -3.0 l 4.0 -0.0 l -0.0 -16.0 l -4.0 0.0 a 3 3 270 0,1 -3.0 -3.0 l -0.0 -4.0 l -46.0 0.0 l 0.0 4.0 a 3 3 180 0,1 -3.0 3.0 l -4.0 0.0 a 3 3 270 0,1 -3.0 -3.0 z" fill="none" stroke="red" stroke-width="0.5" /><circle cx="7" cy="7" fill="none" r="1.25" stroke="red" stroke-width="0.5" /><circle cx="59" cy="7" fill="none" r="1.25" stroke="red" stroke-width="0.5" /><circle cx="59" cy="29" fill="none" r="1.25" stroke="red" stroke-width="0.5" /></g><g transform="translate(24,166) rotate(-90)"><path d="M 0 3 a 3 3 0 0,1 3.0 -3.0 l 60.0 -0.0 a 3 3 90 0,1 3.0 3.0 l 0.0 30.0 a 3 3 180 0,1 -3.0 3.0 l -4.0 0.0 a 3 3 270 0,1 -3.0 -3.0 l -0.0 -4.0 a 3 3 360 0,1 3.0 -3.0 l 4.0 -0.0 l -0.0 -16.0 l -4.0 0.0 a 3 3 270 0,1 -3.0 -3.0 l -0.0 -4.0 l -46.0 0.0 l 0.0 4.0 a 3 3 180 0,1 -3.0 3.0 l -4.0 0.0 a 3 3 270 0,1 -3.0 -3.0 z" fill="none" stroke="red" stroke-width="0.5" /><circle cx="7" cy="7" fill="none" r="1.25" stroke="red" stroke-width="0.5" /><circle cx="59" cy="7" fill="none" r="1.25" stroke="red" stroke-width="0.5" /><circle cx="59" cy="29" fill="none" r="1.25" stroke="red" stroke-width="0.5" /></g><g transform="translate(29,122) rotate(-90)"><path d="M 3 10 a 3 3 -90 0,1 -3.0 -3.0 l 0.0 -4.0 a 3 3 0 0,1 3.0 -3.0 l 4.0 -0.0 a 3 3 90 0,1 3.0 3.0 l 0.0 4.0 a 3 3 180 0,1 -3.0 3.0 z" fill="none" stroke="red" stroke-width="0.5" /><circle cx="7" cy="2.5" fill="none" r="1.25" stroke="red" stroke-width="0.5" /></g><g transform="translate(29,134) rotate(-90)"><path d="M 3 10 a 3 3 -90 0,1 -3.0 -3.0 l 0.0 -4.0 a 3 3 0 0,1 3.0 -3.0 l 4.0 -0.0 a 3 3 90 0,1 3.0 3.0 l 0.0 4.0 a 3 3 180 0,1 -3.0 3.0 z" fill="none" stroke="red" stroke-width="0.5" /><circle cx="7" cy="2.5" fill="none" r="1.25" stroke="red" stroke-width="0.5" /></g><g transform="translate(29,146) rotate(-90)"><path d="M 3 10 a 3 3 -90 0,1 -3.0 -3.0 l 0.0 -4.0 a 3 3 0 0,1 3.0 -3.0 l 4.0 -0.0 a 3 3 90 0,1 3.0 3.0 l 0.0 4.0 a 3 3 180 0,1 -3.0 3.0 z" fill="none" stroke="red" stroke-width="0.5" /><circle cx="7" cy="2.5" fill="none" r="1.25" stroke="red" stroke-width="0.5" /></g></svg>