<?xml version="1.0" encoding="utf-8" ?>
<svg baseProfile="full" height="200mm" version="1.1" viewBox="0, 0, 300, 200" width="300mm" xmlns="http://www.w3.org/2000/svg" xmlns:ev="http://www.w3.org/2001/xml-events" xmlns:xlink="http://www.w3.org/1999/xlink"><defs /><g><path d="M 0 3 a 3 3 0 0,1 3.0 -3.0 l 60.0 -0.0 a 3 3 90 0,1 3.0 3.0 l 0.0 35.0 a 3 3 180 0,1 -3.0 3.0 l -25.0 0.0 a 14 14 270 0,0 -18.0 0.0 l -17.0 0.0 a 3 3 270 0,1 -3.0 -3.0 z" fill="none" stroke="red" stroke-width="0.5" /><g transform="translate(0,5)"><circle cx="7" cy="7" fill="none" r="1.25" stroke="red" stroke-width="0.5" /><circle cx="7" cy="29" fill="none" r="1.25" stroke="red" stroke-width="0.5" /><circle cx="59" cy="7" fill="none" r="1.25" stroke="red" stroke-width="0.5" /><circle cx="59" cy="29" fill="none" r="1.25" stroke="red" stroke-width="0.5" /></g><rect fill="black" height="5" width="5" x="7" y="23" /></g><g transform="translate(0,43)"><path d="M 0 3 a 3 3 0 0,1 3.0 -3.0 l 60.0 -0.0 a 3 3 90 0,1 3.0 3.0 l 0.0 35.0 a 3 3 180 0,1 -3.0 3.0 l -4.0 0.0 a 3 3 270 0,1 -3.0 -3.0 l -0.0 -16.0 l -14.5 0.0 l 0.0 16.0 a 3 3 180 0,1 -3.0 3.0 l -0.5 0.0 a 14 14 270 0,0 -18.0 0.0 l -17.0 0.0 a 3 3 270 0,1 -3.0 -3.0 z" fill="none" stroke="red" stroke-width="0.5" /><rect fill="none" height="6.5" stroke="red" stroke-width="0.5" transform="translate(0,5)" width="43" x="10.5" y="3.75" /><g transform="translate(0,5)"><circle cx="7" cy="7" fill="none" r="1.25" stroke="red" stroke-width="0.5" /><circle cx="7" cy="29" fill="none" r="1.25" stroke="red" stroke-width="0.5" /><circle cx="59" cy="7" fill="none" r="1.25" stroke="red" stroke-width="0.5" /><circle cx="59" cy="29" fill="none" r="1.25" stroke="red" stroke-width="0.5" /></g><rect fill="none" height="5.2" stroke="red" stroke-width="0.5" transform="translate(3,8)" width="7.5" x="6.5" y="24.8" /></g><g transform="translate(0,152) rotate(-90)"><path d="M 0 3 a 3 3 0 0,1 3.0 -3.0 l 60.0 -0.0 a 3 3 90 0,1 3.0 3.0 l 0.0 35.0 a 3 3 180 0,1 -3.0 3.0 l -4.0 0.0 a 3 3 270 0,1 -3.0 -3.0 l -0.0 -4.0 a 3 3 360 0,1 3.0 -3.0 l 4.0 -0.0 l -0.0 -16.0 l -4.0 0.0 a 3 3 270 0,1 0.0 -6.0 l 4.0 -0.0 l -0.0 -4.0 a 2 2 360 0,0 -2.0 -2.0 l -5.0 0.0 l -46.0 0.0 l -5.0 0.0 a 2 2 270 0,0 -2.0 2.0 l 0.0 4.0 l 4.0 -0.0 a 3 3 90 0,1 0.0 6.0 l -4.0 0.0 a 3 3 270 0,1 -3.0 -3.0 z" fill="none" stroke="red" stroke-width="0.5" /><circle cx="7" cy="12" fill="none" r="1.25" stroke="red" stroke-width="0.5" /><circle cx="59" cy="12" fill="none" r="1.25" stroke="red" stroke-width="0.5" /><circle cx="59" cy="34" fill="none" r="1.25" stroke="red" stroke-width="0.5" /></g><g transform="translate(17,164) rotate(-90)"><path d="M 0 3 a 3 3 0 0,1 3.0 -3.0 l 60.0 -0.0 a 3 3 90 0,1 3.0 3.0 l 0.0 35.0 a 3 3 180 0,1 -3.0 3.0 l -4.0 0.0 a 3 3 270 0,1 -3.0 -3.0 l 0.5 -0.0 a 0.5 0.5 450 0,0 0.0 -1.0 l -0.5 0.0 l -0.0 -3.0 a 3 3 360 0,1 3.0 -3.0 l 4.0 -0.0 l -0.0 -16.0 l -4.0 0.0 a 3 3 270 0,1 0.0 -6.0 l 4.0 -0.0 l -0.0 -4.0 a 2 2 360 0,0 -2.0 -2.0 l -5.0 0.0 l -46.0 0.0 l -5.0 0.0 a 2 2 270 0,0 -2.0 2.0 l 0.0 4.0 l 4.0 -0.0 a 3 3 90 0,1 0.0 6.0 l -4.0 0.0 a 3 3 270 0,1 -3.0 -3.0 z" fill="none" stroke="red" stroke-width="0.5" /><circle cx="7" cy="12" fill="none" r="1.25" stroke="red" stroke-width="0.5" /><circle cx="59" cy="12" fill="none" r="1.25" stroke="red" stroke-width="0.5" /><rect fill="none" height="2.5" rx="1.25" ry="1.25" stroke="red" stroke-width="0.5" width="3.5" x="57.75" y="32.75" /></g><g transform="translate(34,176) rotate(-90)"><path d="M 0 3 a 3 3 0 0,1 3.0 -3.0 l 60.0 -0.0 a 3 3 90 0,1 3.0 3.0 l 0.0 35.0 a 3 3 180 0,1 -3.0 3.0 l -4.0 0.0 a 3 3 270 0,1 -3.0 -3.0 l 0.5 -0.0 a 0.5 0.5 450 0,0 0.0 -1.0 l -0.5 0.0 l -0.0 -3.0 a 3 3 360 0,1 3.0 -3.0 l 4.0 -0.0 l -0.0 -16.0 l -4.0 0.0 a 3 3 270 0,1 0.0 -6.0 l 4.0 -0.0 l -0.0 -4.0 a 2 2 360 0,0 -2.0 -2.0 l -5.0 0.0 l -46.0 0.0 l -5.0 0.0 a 2 2 270 0,0 -2.0 2.0 l 0.0 4.0 l 4.0 -0.0 a 3 3 90 0,1 0.0 6.0 l -4.0 0.0 a 3 3 270 0,1 -3.0 -3.0 z" fill="none" stroke="red" stroke-width="0.5" /><circle cx="7" cy="12" fill="none" r="1.25" stroke="red" stroke-width="0.5" /><circle cx="59" cy="12" fill="none" r="1.25" stroke="red" stroke-width="0.5" /><rect fill="none" height="2.5" rx="1.25" ry="1.25" stroke="red" stroke-width="0.5" width="3.5" x="57.75" y="32.75" /></g><g transform="translate(58,132) rotate(-180)"><path d="M 3 10 a 3 3 -90 0,1 -3.0 -3.0 l 0.0 -4.0 a 3 3 0 0,1 3.0 -3.0 l 4.0 -0.0 a 3 3 90 0,1 3.0 3.0 l 0.0 4.0 a 3 3 180 0,1 -3.0 3.0 z" fill="none" stroke="red" stroke-width="0.5" /><rect fill="black" height="1.5" width="4" x="6" y="3.5" /><circle cx="7" cy="7" fill="none" r="1.25" stroke="red" stroke-width="0.5" /></g><g transform="translate(58,144) rotate(-180)"><path d="M 3 10 a 3 3 -90 0,1 -3.0 -3.0 l 0.0 -4.0 a 3 3 0 0,1 3.0 -3.0 l 4.0 -0.0 a 3 3 90 0,1 3.0 3.0 l 0.0 4.0 a 3 3 180 0,1 -3.0 3.0 z" fill="none" stroke="red" stroke-width="0.5" /><circle cx="7" cy="7" fill="none" r="1.25" stroke="red" stroke-width="0.5" /></g><g transform="translate(58,156) rotate(-180)"><path d="M 3 10 a 3 3 -90 0,1 -3.0 -3.0 l 0.0 -4.0 a 3 3 0 0,1 3.0 -3.0 l 4.0 -0.0 a 3 3 90 0,1 3.0 3.0 l 0.0 4.0 a 3 3 180 0,1 -3.0 3.0 z" fill="none" stroke="red" stroke-width="0.5" /><circle cx="7" cy="7" fill="none" r="1.25" stroke="red" stroke-width="0.5" /></g></svg>