<?xml version="1.0" encoding="utf-8" ?>
<svg baseProfile="full" height="108.0mm" version="1.1" viewBox="0, 0, 277, 108.0" width="277mm" xmlns="http://www.w3.org/2000/svg" xmlns:ev="http://www.w3.org/2001/xml-events" xmlns:xlink="http://www.w3.org/1999/xlink"><defs /><rect fill="none" height="63.0" rx="7.5" ry="7.5" stroke="red" stroke-width="0.5" width="63.0" x="108.0" y="15" /><line fill="none" stroke="blue" stroke-width="0.5" x1="93.0" x2="93.0" y1="0" y2="108.0" /><line fill="none" stroke="blue" stroke-width="0.5" x1="186.0" x2="186.0" y1="0" y2="108.0" /><path d="M 0 7.5 a 7.5 7.5 0 0,1 7.5 -7.5 l 78.0 -0.0 a 7.5 7.5 90 0,1 7.5 7.5 a 7.5 7.5 360 0,1 7.5 -7.5 l 78.0 -0.0 a 7.5 7.5 450 0,1 7.5 7.5 a 7.5 7.5 720 0,1 7.5 -7.5 l 76.0 -0.0 a 7.5 7.5 810 0,1 7.5 7.5 l 0.0 93.0 a 7.5 7.5 900 0,1 -7.5 7.5 l -76.0 -0.0 a 7.5 7.5 990 0,1 -7.5 -7.5 a 7.5 7.5 1260 0,1 -7.5 7.5 l -78.0 -0.0 a 7.5 7.5 1350 0,1 -7.5 -7.5 a 7.5 7.5 1620 0,1 -7.5 7.5 l -78.0 -0.0 a 7.5 7.5 1710 0,1 -7.5 -7.5 z" fill="none" stroke="red" stroke-width="0.5" /></svg>